<svg width="1371" height="638" viewBox="0 0 1371 638" fill="none" xmlns="http://www.w3.org/2000/svg">
<path d="M529.633 408.234C531.705 408.234 531.705 404.616 529.633 404.616C527.561 404.616 527.551 408.234 529.633 408.234Z" fill="white"/>
<path d="M56.7832 364.168C56.7832 365.482 55.2694 366.929 52.2419 368.533C49.2143 370.137 45.6714 370.933 41.6131 370.933C35.6868 370.933 30.7804 368.605 26.8939 363.951C22.9967 359.296 21.0535 353.616 21.0535 346.912C21.0535 340.207 23.0182 334.539 26.9583 329.909C30.8877 325.278 35.8156 322.963 41.742 322.963C45.2527 322.963 48.4091 323.602 51.2005 324.868C53.9918 326.134 55.3875 327.569 55.3875 329.173C55.3875 329.824 55.1835 330.343 54.7863 330.717C54.3783 331.09 53.8308 331.271 53.1329 331.271C52.4351 331.271 51.6084 330.946 50.6529 330.282C49.6974 329.631 48.495 328.956 47.0348 328.281C45.5747 327.605 43.814 327.268 41.7312 327.268C37.2006 327.268 33.4859 329.209 30.5657 333.08C27.6454 336.951 26.1854 341.521 26.1854 346.791C26.1854 352.061 27.6454 356.679 30.5657 360.659C33.4859 364.638 37.1898 366.628 41.6668 366.628C43.7389 366.628 45.607 366.411 47.2818 365.977C48.9566 365.542 50.2127 365.084 51.0609 364.59C51.909 364.095 52.6928 363.637 53.4121 363.203C54.1314 362.769 54.679 362.552 55.0655 362.552C56.2035 362.564 56.7832 363.095 56.7832 364.168Z" fill="#262D7D"/>
<path d="M93.8657 338.338C97.2691 338.338 100.039 339.254 102.175 341.099C104.312 342.944 105.375 345.344 105.375 348.298C105.375 351.253 104.054 353.496 101.413 355.027C98.7721 356.571 95.5191 357.33 91.6756 357.33C89.4747 357.33 86.7906 357.029 83.6128 356.402C83.8704 359.272 84.9762 361.744 86.9409 363.818C88.9057 365.892 91.0958 366.929 93.5114 366.929C94.9501 366.929 96.2813 366.736 97.5053 366.35C98.7292 365.964 99.6632 365.542 100.297 365.084C101.993 363.818 103.099 363.179 103.625 363.179C104.151 363.179 104.58 363.336 104.892 363.637C105.203 363.939 105.364 364.324 105.364 364.771C105.364 365.916 104.151 367.231 101.714 368.702C99.2767 370.173 96.6464 370.921 93.812 370.921C89.4102 370.921 85.921 369.425 83.3443 366.435C80.7677 363.444 79.372 359.839 79.1573 355.606C76.9134 354.955 75.7969 353.881 75.7969 352.41C75.7969 351.795 75.9794 351.313 76.3337 350.963C76.688 350.614 77.1281 350.445 77.6327 350.445C78.1373 350.445 78.7708 350.626 79.533 350.999C80.4671 347.309 82.2278 344.271 84.8367 341.895C87.4455 339.519 90.4624 338.338 93.8657 338.338ZM91.4608 353.459C94.3166 353.459 96.6034 352.989 98.3105 352.049C100.028 351.108 100.876 349.83 100.876 348.238C100.876 346.646 100.318 345.259 99.1908 344.09C98.0743 342.92 96.4746 342.341 94.4025 342.341C91.6111 342.341 89.2599 343.354 87.3596 345.38C85.4594 347.406 84.2247 349.781 83.6772 352.483C86.0069 353.134 88.605 353.459 91.4608 353.459Z" fill="#262D7D"/>
<path d="M155.072 350.638L154.75 360.297C154.75 361.442 154.761 362.311 154.782 362.914C154.804 363.505 154.933 364.12 155.158 364.759C155.394 365.398 155.673 365.784 156.017 365.928C156.35 366.073 156.704 366.17 157.069 366.206C157.423 366.242 157.681 366.302 157.831 366.387C157.982 366.471 158.057 366.628 158.057 366.881C158.057 367.942 157.703 368.835 157.005 369.558C156.307 370.27 155.491 370.631 154.557 370.631C152.946 370.631 151.841 370.016 151.229 368.786C150.617 367.556 150.305 365.748 150.305 363.372L150.563 352.061C150.563 349.275 149.951 347.02 148.727 345.296C147.503 343.571 145.796 342.715 143.617 342.715C141.437 342.715 139.333 343.885 137.304 346.224C135.275 348.564 133.858 351.205 133.052 354.159L133.246 367.508C133.246 369.594 132.441 370.643 130.83 370.643C128.887 370.643 127.91 369.196 127.91 366.302C127.91 363.408 128.329 359.368 129.177 354.159C129.177 352.435 128.994 350.059 128.64 347.02C128.275 343.981 128.103 342.112 128.103 341.389C128.103 340.665 128.329 340.038 128.769 339.483C129.209 338.929 129.821 338.651 130.572 338.651C131.335 338.651 131.936 338.929 132.376 339.483C132.816 340.038 133.042 340.665 133.042 341.365C133.042 342.064 133.031 342.908 133.01 343.921C132.988 344.922 132.977 345.778 132.977 346.478C136.069 341.268 139.87 338.663 144.401 338.663C147.782 338.663 150.402 339.833 152.27 342.172C154.138 344.488 155.072 347.31 155.072 350.638Z" fill="#262D7D"/>
<path d="M187.055 343.005L186.926 357.584C186.926 361.31 187.087 363.758 187.399 364.903C187.721 366.049 188.547 366.628 189.9 366.628C190.534 366.628 191.307 366.411 192.219 365.977C193.132 365.543 193.733 365.326 194.023 365.326C194.914 365.326 195.354 365.748 195.354 366.592C195.354 367.436 194.57 368.316 193.003 369.233C191.435 370.161 189.889 370.619 188.376 370.619C184.693 370.619 182.857 368.003 182.857 362.745L182.793 343.005C181.397 343.125 180.42 343.185 179.873 343.185C177.758 343.185 176.695 342.51 176.695 341.16C176.695 339.809 177.747 339.134 179.873 339.134C180.044 339.134 180.968 339.17 182.664 339.254L182.535 332.369C182.535 330.319 183.34 329.294 184.951 329.294C186.561 329.294 187.366 330.319 187.366 332.369L187.173 339.315L192.316 339.073C194.431 339.073 195.494 339.773 195.494 341.16C195.494 342.474 194.431 343.125 192.316 343.125C191.94 343.137 190.19 343.089 187.055 343.005Z" fill="#262D7D"/>
<path d="M221.389 355.919L221.582 367.484C221.582 369.57 220.777 370.619 219.167 370.619C217.224 370.619 216.247 369.172 216.247 366.278C216.247 363.384 216.665 359.344 217.513 354.135C217.513 352.41 217.331 350.059 216.977 347.056C216.612 344.066 216.44 342.196 216.44 341.461C216.44 340.725 216.665 340.062 217.105 339.495C217.546 338.916 218.158 338.639 218.909 338.639C219.671 338.639 220.273 338.929 220.713 339.495C221.153 340.074 221.378 340.689 221.378 341.376C221.378 342.052 221.368 342.908 221.346 343.957C221.325 345.006 221.314 345.874 221.314 346.574C222.162 344.488 223.483 342.643 225.276 341.039C227.069 339.435 228.926 338.639 230.826 338.639C232.726 338.639 234.197 339.013 235.239 339.773C236.28 340.532 236.795 341.34 236.795 342.196C236.795 343.053 236.559 343.728 236.098 344.222C235.636 344.717 235.024 344.958 234.294 344.958C233.564 344.958 232.748 344.584 231.878 343.824C231.009 343.065 230.322 342.691 229.817 342.691C228.421 342.691 226.789 344.15 224.932 347.056C223.075 349.974 221.894 352.929 221.389 355.919Z" fill="#262D7D"/>
<path d="M270.786 338.338C275.123 338.338 278.688 339.905 281.479 343.041C284.27 346.176 285.666 350.023 285.666 354.569C285.666 359.115 284.249 362.986 281.415 366.157C278.58 369.341 275.005 370.921 270.689 370.921C266.373 370.921 262.82 369.353 260.028 366.218C257.237 363.082 255.841 359.236 255.841 354.689C255.841 350.143 257.248 346.272 260.061 343.101C262.873 339.929 266.449 338.338 270.786 338.338ZM278.086 363.299C280.137 360.876 281.168 357.969 281.168 354.569C281.168 351.168 280.18 348.274 278.215 345.898C276.251 343.523 273.803 342.329 270.883 342.329C267.962 342.329 265.482 343.535 263.432 345.959C261.381 348.383 260.35 351.289 260.35 354.689C260.35 358.09 261.338 360.984 263.303 363.36C265.268 365.735 267.715 366.929 270.636 366.929C273.545 366.929 276.025 365.723 278.086 363.299Z" fill="#262D7D"/>
<path d="M382.624 366.118C383.719 366.118 384.277 366.42 384.277 367.035C384.277 367.819 383.987 368.614 383.418 369.434C382.849 370.254 381.948 370.664 380.724 370.664C379.5 370.664 378.533 370.013 377.836 368.699C377.138 367.384 376.644 365.298 376.343 362.428C373.251 367.927 369.343 370.664 364.609 370.664C361.86 370.664 359.488 369.808 357.501 368.084C355.515 366.359 354.098 364.37 353.25 362.115C352.402 359.86 351.983 357.605 351.983 355.35C351.983 350.876 353.379 346.981 356.17 343.665C358.962 340.349 362.537 338.684 366.896 338.684C370.073 338.684 373.069 339.685 375.903 341.699C375.989 335.995 376.032 331.823 376.032 329.182C376.032 326.541 376.236 324.901 376.633 324.262C377.03 323.623 377.685 323.309 378.598 323.309C379.51 323.309 380.251 323.671 380.82 324.383C381.389 325.094 381.679 326.155 381.679 327.554C381.679 328.953 381.593 330.665 381.421 332.691C381.25 334.717 381.003 337.406 380.659 340.746C380.316 344.087 380.047 347.114 379.832 349.815C379.832 354.819 380.026 358.738 380.402 361.56C380.788 364.394 381.529 365.913 382.624 366.118ZM375.903 356.037V346.257C373.369 343.882 370.363 342.688 366.896 342.688C364.19 342.688 361.807 343.894 359.756 346.318C357.705 348.741 356.675 351.575 356.675 354.831C356.675 358.087 357.416 360.873 358.897 363.2C360.379 365.515 362.386 366.673 364.931 366.673C369.365 366.673 373.026 363.128 375.903 356.037Z" fill="#262D7D"/>
<path d="M420.984 338.338C424.387 338.338 427.157 339.254 429.294 341.099C431.43 342.944 432.493 345.344 432.493 348.298C432.493 351.253 431.173 353.496 428.531 355.027C425.89 356.571 422.637 357.33 418.794 357.33C416.593 357.33 413.909 357.029 410.731 356.402C410.989 359.272 412.094 361.744 414.059 363.818C416.024 365.892 418.214 366.929 420.63 366.929C422.068 366.929 423.4 366.736 424.623 366.35C425.847 365.964 426.781 365.542 427.415 365.084C429.111 363.818 430.217 363.179 430.743 363.179C431.269 363.179 431.699 363.336 432.01 363.637C432.321 363.939 432.482 364.324 432.482 364.771C432.482 365.916 431.269 367.231 428.832 368.702C426.395 370.173 423.765 370.921 420.93 370.921C416.528 370.921 413.039 369.425 410.463 366.435C407.886 363.444 406.49 359.839 406.275 355.606C404.032 354.955 402.915 353.881 402.915 352.41C402.915 351.795 403.097 351.313 403.452 350.963C403.806 350.614 404.246 350.445 404.751 350.445C405.255 350.445 405.889 350.626 406.651 350.999C407.585 347.309 409.346 344.271 411.955 341.895C414.564 339.519 417.581 338.338 420.984 338.338ZM418.579 353.459C421.435 353.459 423.722 352.989 425.429 352.049C427.146 351.108 427.995 349.83 427.995 348.238C427.995 346.646 427.436 345.259 426.309 344.09C425.192 342.92 423.593 342.341 421.521 342.341C418.729 342.341 416.378 343.354 414.478 345.38C412.578 347.406 411.343 349.781 410.795 352.483C413.125 353.134 415.723 353.459 418.579 353.459Z" fill="#262D7D"/>
<path d="M516.9 365.984L527.185 365.683C529.3 365.683 530.363 366.467 530.363 368.022C530.363 369.578 529.3 370.362 527.185 370.362L516.9 370.06L505.799 370.362C503.899 370.362 502.943 369.578 502.943 368.022C502.943 366.587 502.997 364.164 503.104 360.763C503.212 357.362 503.265 353.009 503.265 347.727C502.89 347.764 502.46 347.788 501.999 347.788C499.969 347.788 498.949 347.028 498.949 345.509C498.949 344.809 499.229 344.242 499.776 343.784C500.324 343.338 500.946 343.109 501.644 343.109C502.342 343.109 502.879 343.133 503.265 343.169C503.18 334.933 503.029 329.953 502.825 328.228C502.321 327.529 502.063 326.769 502.063 325.949C502.063 324.394 503.18 323.61 505.423 323.61L517.673 323.911L527.196 323.61C529.311 323.61 530.374 324.394 530.374 325.949C530.374 327.505 529.311 328.289 527.196 328.289L517.673 327.987C512.853 327.987 509.675 328.071 508.15 328.228C507.936 333.594 507.828 338.623 507.828 343.302C509.686 343.386 511.167 343.422 512.273 343.422L523.696 343.121C524.673 343.121 525.446 343.338 526.015 343.772C526.584 344.206 526.874 344.785 526.874 345.521C526.874 347.04 525.811 347.8 523.696 347.8L512.273 347.498C511.092 347.498 509.61 347.534 507.828 347.619V353.709C507.828 359.822 507.936 363.838 508.15 365.767C511.103 365.9 514.023 365.984 516.9 365.984Z" fill="#262D7D"/>
<path d="M582.068 366.118C583.163 366.118 583.722 366.42 583.722 367.035C583.722 367.819 583.432 368.614 582.863 369.434C582.294 370.254 581.392 370.664 580.168 370.664C578.944 370.664 577.978 370.013 577.28 368.699C576.582 367.384 576.088 365.298 575.788 362.428C572.696 367.927 568.788 370.664 564.053 370.664C561.305 370.664 558.932 369.808 556.946 368.084C554.96 366.359 553.543 364.37 552.694 362.115C551.846 359.86 551.428 357.605 551.428 355.35C551.428 350.876 552.823 346.981 555.615 343.665C558.406 340.349 561.981 338.684 566.34 338.684C569.518 338.684 572.513 339.685 575.348 341.699C575.433 335.995 575.476 331.823 575.476 329.182C575.476 326.541 575.68 324.901 576.078 324.262C576.475 323.623 577.13 323.309 578.042 323.309C578.955 323.309 579.696 323.671 580.265 324.383C580.834 325.094 581.124 326.155 581.124 327.554C581.124 328.953 581.038 330.665 580.866 332.691C580.694 334.717 580.447 337.406 580.104 340.746C579.76 344.087 579.492 347.114 579.277 349.815C579.277 354.819 579.47 358.738 579.846 361.56C580.233 364.394 580.973 365.913 582.068 366.118ZM575.348 356.037V346.257C572.814 343.882 569.808 342.688 566.34 342.688C563.635 342.688 561.251 343.894 559.2 346.318C557.15 348.741 556.119 351.575 556.119 354.831C556.119 358.087 556.86 360.873 558.342 363.2C559.823 365.515 561.831 366.673 564.375 366.673C568.809 366.673 572.47 363.128 575.348 356.037Z" fill="#262D7D"/>
<path d="M610.433 343.692L609.929 357.222C609.929 360.008 610.541 362.275 611.764 364.023C612.988 365.772 614.695 366.64 616.875 366.64C619.054 366.64 621.159 365.458 623.188 363.107C625.217 360.755 626.634 358.09 627.439 355.148L627.246 341.799C627.246 339.713 628.051 338.663 629.661 338.663C631.605 338.663 632.582 340.11 632.582 343.005C632.582 345.899 632.163 349.938 631.315 355.148C631.315 358.223 631.551 360.731 632.013 362.685C632.474 364.638 633.033 365.723 633.666 365.977C633.924 366.097 634.224 366.182 634.589 366.218C634.944 366.254 635.201 366.314 635.352 366.399C635.502 366.483 635.577 366.64 635.577 366.893C635.577 368.003 635.223 368.907 634.525 369.594C633.827 370.294 632.947 370.643 631.895 370.643C629.232 370.643 627.901 368.027 627.901 362.769C624.766 368.015 620.836 370.643 616.102 370.643C612.72 370.643 610.09 369.426 608.232 366.99C606.375 364.554 605.441 361.563 605.441 358.042L605.817 348.757C605.817 347.117 605.645 345.585 605.312 344.174C604.969 342.763 604.807 341.751 604.807 341.136C604.807 340.521 605.065 339.954 605.57 339.447C606.074 338.941 606.729 338.675 607.534 338.675C609.456 338.639 610.433 340.328 610.433 343.692Z" fill="#262D7D"/>
<path d="M681.313 363.673C682.376 363.673 682.902 364.216 682.902 365.301C682.902 366.387 681.678 367.593 679.219 368.931C676.761 370.258 674.184 370.933 671.479 370.933C667.034 370.933 663.33 369.341 660.377 366.17C657.414 362.998 655.933 359.151 655.933 354.641C655.933 350.131 657.425 346.285 660.41 343.113C663.394 339.942 667.313 338.35 672.177 338.35C674.839 338.35 677.201 338.929 679.252 340.098C681.302 341.268 682.333 342.462 682.333 343.692C682.333 344.343 682.118 344.886 681.699 345.32C681.281 345.754 680.787 345.971 680.239 345.971C679.692 345.971 679.058 345.67 678.339 345.055C676.138 343.246 673.894 342.353 671.607 342.353C668.687 342.353 666.143 343.547 663.963 345.923C661.784 348.298 660.7 351.193 660.7 354.593C660.7 357.994 661.795 360.912 663.995 363.324C666.196 365.748 668.923 366.953 672.187 366.953C674.678 366.953 677.115 366.133 679.488 364.493C680.282 363.939 680.894 363.673 681.313 363.673Z" fill="#262D7D"/>
<path d="M730.055 355.124C730.055 358.199 730.291 360.707 730.753 362.66C731.214 364.614 731.772 365.699 732.406 365.952C732.664 366.073 732.964 366.157 733.329 366.194C733.683 366.23 733.941 366.29 734.091 366.375C734.242 366.459 734.317 366.616 734.317 366.869C734.317 367.978 734.006 368.883 733.394 369.57C732.782 370.269 731.858 370.619 730.634 370.619C729.411 370.619 728.455 369.86 727.779 368.34C727.102 366.821 726.759 364.879 726.759 362.504C725.696 364.795 724.15 366.724 722.099 368.28C720.049 369.835 717.74 370.619 715.185 370.619C712.63 370.619 710.418 369.799 708.55 368.159C705.169 365.169 703.472 360.888 703.472 355.305C703.472 350.831 704.804 346.936 707.466 343.619C710.129 340.303 713.553 338.639 717.751 338.639C720.929 338.639 723.677 339.688 725.996 341.774C725.996 339.688 726.802 338.639 728.412 338.639C730.355 338.639 731.332 340.086 731.332 342.98C731.322 345.874 730.892 349.914 730.055 355.124ZM726.372 355.678L726.05 346.212C723.516 343.836 720.854 342.643 718.084 342.643C715.314 342.643 712.931 343.849 710.945 346.272C708.958 348.696 707.96 351.59 707.96 354.979C707.96 358.367 708.604 361.153 709.892 363.348C711.181 365.542 713.017 366.64 715.379 366.64C717.751 366.64 719.909 365.615 721.852 363.565C723.806 361.503 725.309 358.874 726.372 355.678Z" fill="#262D7D"/>
<path d="M780.053 363.673C781.116 363.673 781.642 364.216 781.642 365.301C781.642 366.387 780.418 367.593 777.959 368.931C775.501 370.258 772.924 370.933 770.219 370.933C765.774 370.933 762.07 369.341 759.117 366.17C756.154 362.998 754.673 359.151 754.673 354.641C754.673 350.131 756.165 346.285 759.15 343.113C762.134 339.942 766.053 338.35 770.916 338.35C773.579 338.35 775.941 338.929 777.992 340.098C780.042 341.268 781.073 342.462 781.073 343.692C781.073 344.343 780.858 344.886 780.439 345.32C780.021 345.754 779.527 345.971 778.979 345.971C778.432 345.971 777.798 345.67 777.079 345.055C774.878 343.246 772.634 342.353 770.347 342.353C767.427 342.353 764.883 343.547 762.703 345.923C760.524 348.298 759.439 351.193 759.439 354.593C759.439 357.994 760.534 360.912 762.735 363.324C764.936 365.748 767.663 366.953 770.927 366.953C773.418 366.953 775.855 366.133 778.228 364.493C779.022 363.939 779.634 363.673 780.053 363.673Z" fill="#262D7D"/>
<path d="M806.582 325.423C807.473 325.423 808.128 325.7 808.546 326.255C808.965 326.81 809.18 327.509 809.18 328.341C809.18 329.185 808.879 330.017 808.289 330.861C807.698 331.705 806.957 332.127 806.066 332.127C805.175 332.127 804.51 331.838 804.069 331.271C803.629 330.692 803.404 329.945 803.404 328.992C803.404 328.04 803.715 327.22 804.327 326.496C804.939 325.785 805.691 325.423 806.582 325.423ZM808.353 354.629L808.675 367.544C808.675 369.594 807.87 370.619 806.26 370.619C804.649 370.619 803.844 369.594 803.844 367.544L804.166 354.629L803.844 341.714C803.844 339.664 804.649 338.639 806.26 338.639C807.87 338.639 808.675 339.664 808.675 341.714L808.353 354.629Z" fill="#262D7D"/>
<path d="M846.338 338.385C850.675 338.385 854.239 339.952 857.031 343.087C859.822 346.223 861.218 350.07 861.218 354.616C861.218 359.162 859.8 363.033 856.966 366.204C854.132 369.388 850.557 370.967 846.241 370.967C841.925 370.967 838.371 369.4 835.58 366.264C832.789 363.129 831.393 359.282 831.393 354.736C831.393 350.19 832.799 346.319 835.612 343.148C838.425 339.976 842 338.385 846.338 338.385ZM853.627 363.346C855.678 360.922 856.708 358.016 856.708 354.616C856.708 351.215 855.721 348.321 853.756 345.945C851.791 343.57 849.344 342.376 846.423 342.376C843.503 342.376 841.023 343.582 838.962 346.006C836.911 348.43 835.88 351.336 835.88 354.736C835.88 358.137 836.868 361.031 838.833 363.407C840.798 365.782 843.245 366.976 846.166 366.976C849.097 366.976 851.577 365.77 853.627 363.346ZM852.779 325.651C852.779 327.411 851.813 329.172 849.891 330.944C847.969 332.717 846.434 333.585 845.285 333.585C844.147 333.585 843.568 333.151 843.568 332.295C843.568 331.8 843.911 331.185 844.588 330.45C845.264 329.714 845.758 329.148 846.08 328.762C846.391 328.376 846.778 327.652 847.218 326.603C847.658 325.554 848.13 324.746 848.614 324.179C849.097 323.601 849.719 323.323 850.482 323.323C851.244 323.323 851.813 323.564 852.199 324.035C852.586 324.493 852.779 325.036 852.779 325.651Z" fill="#262D7D"/>
<path d="M910.711 350.638L910.389 360.297C910.389 361.442 910.4 362.311 910.421 362.914C910.443 363.505 910.571 364.12 910.797 364.759C911.022 365.398 911.312 365.784 911.656 365.928C911.989 366.073 912.343 366.17 912.697 366.206C913.052 366.242 913.309 366.302 913.459 366.387C913.61 366.471 913.685 366.628 913.685 366.881C913.685 367.942 913.331 368.835 912.643 369.558C911.946 370.27 911.13 370.631 910.196 370.631C908.585 370.631 907.479 370.016 906.867 368.786C906.256 367.556 905.944 365.748 905.944 363.372L906.202 352.061C906.202 349.275 905.59 347.02 904.366 345.296C903.142 343.571 901.435 342.715 899.256 342.715C897.076 342.715 894.972 343.885 892.943 346.224C890.914 348.564 889.497 351.205 888.691 354.159L888.885 367.508C888.885 369.594 888.079 370.643 886.469 370.643C884.526 370.643 883.549 369.196 883.549 366.302C883.549 363.408 883.967 359.368 884.816 354.159C884.816 352.435 884.633 350.059 884.279 347.02C883.914 343.981 883.742 342.112 883.742 341.389C883.742 340.665 883.967 340.038 884.408 339.483C884.848 338.929 885.46 338.651 886.211 338.651C886.963 338.651 887.575 338.929 888.015 339.483C888.455 340.038 888.681 340.665 888.681 341.365C888.681 342.064 888.67 342.908 888.648 343.921C888.627 344.922 888.616 345.778 888.616 346.478C891.708 341.268 895.509 338.663 900.039 338.663C903.421 338.663 906.041 339.833 907.909 342.172C909.777 344.488 910.711 347.31 910.711 350.638Z" fill="#262D7D"/>
<path d="M992.885 366.03L998.468 365.729C999.445 365.729 1000.22 365.946 1000.79 366.38C1001.36 366.814 1001.65 367.381 1001.65 368.068C1001.65 368.756 1001.35 369.335 1000.75 369.793C1000.16 370.239 999.402 370.468 998.468 370.468L990.276 370.094L981.902 370.396C979.787 370.396 978.724 369.612 978.724 368.056C978.724 366.501 979.787 365.717 981.902 365.717C982.364 365.717 984.296 365.813 987.678 366.018C987.893 356.793 987.99 350.475 987.99 347.05C987.99 343.625 987.882 337.306 987.678 328.081C983.953 328.25 982.031 328.322 981.902 328.322C979.873 328.322 978.853 327.563 978.853 326.043C978.853 325.308 979.132 324.717 979.68 324.295C980.227 323.861 980.968 323.644 981.902 323.644L990.276 323.945C991.715 323.945 993.39 323.885 995.29 323.764C997.19 323.644 998.436 323.583 999.005 323.583C999.574 323.583 1000.16 323.824 1000.79 324.295C1001.4 324.765 1001.71 325.356 1001.71 326.043C1001.71 326.731 1001.41 327.297 1000.82 327.732C1000.23 328.166 999.606 328.383 998.951 328.383C998.296 328.383 996.278 328.286 992.896 328.081C992.681 337.511 992.574 343.89 992.574 347.207C992.574 350.523 992.671 356.805 992.885 366.03Z" fill="#262D7D"/>
<path d="M1050.63 350.638L1050.31 360.297C1050.31 361.442 1050.32 362.311 1050.34 362.914C1050.37 363.505 1050.5 364.12 1050.72 364.759C1050.95 365.398 1051.24 365.784 1051.58 365.928C1051.91 366.073 1052.27 366.17 1052.62 366.206C1052.98 366.242 1053.23 366.302 1053.38 366.387C1053.53 366.471 1053.61 366.628 1053.61 366.881C1053.61 367.942 1053.25 368.835 1052.57 369.558C1051.87 370.27 1051.05 370.631 1050.12 370.631C1048.51 370.631 1047.4 370.016 1046.79 368.786C1046.18 367.556 1045.87 365.748 1045.87 363.372L1046.13 352.061C1046.13 349.275 1045.51 347.02 1044.29 345.296C1043.07 343.571 1041.36 342.715 1039.18 342.715C1037 342.715 1034.9 343.885 1032.87 346.224C1030.84 348.564 1029.42 351.205 1028.61 354.159L1028.81 367.508C1028.81 369.594 1028 370.643 1026.39 370.643C1024.45 370.643 1023.47 369.196 1023.47 366.302C1023.47 363.408 1023.89 359.368 1024.74 354.159C1024.74 352.435 1024.56 350.059 1024.2 347.02C1023.84 343.981 1023.67 342.112 1023.67 341.389C1023.67 340.665 1023.89 340.038 1024.33 339.483C1024.77 338.929 1025.38 338.651 1026.13 338.651C1026.89 338.651 1027.5 338.929 1027.94 339.483C1028.38 340.038 1028.6 340.665 1028.6 341.365C1028.6 342.064 1028.59 342.908 1028.57 343.921C1028.55 344.922 1028.54 345.778 1028.54 346.478C1031.63 341.268 1035.43 338.663 1039.96 338.663C1043.34 338.663 1045.96 339.833 1047.83 342.172C1049.7 344.488 1050.63 347.31 1050.63 350.638Z" fill="#262D7D"/>
<path d="M1082.1 339.299L1088.25 339.179C1088.93 339.179 1089.5 339.348 1089.97 339.673C1090.43 339.999 1090.67 340.493 1090.67 341.144C1090.67 342.374 1089.86 342.989 1088.25 342.989L1082.1 342.869V346.993C1082.1 352.648 1082.17 357.412 1082.3 361.258C1082.42 365.117 1082.49 367.36 1082.49 367.987C1082.49 368.626 1082.26 369.229 1081.82 369.796C1081.38 370.375 1080.77 370.652 1080.02 370.652C1079.26 370.652 1078.66 370.363 1078.22 369.796C1077.78 369.217 1077.55 368.614 1077.55 367.987C1077.55 367.348 1077.57 366.07 1077.61 364.141C1077.83 358.364 1077.93 352.636 1077.93 346.981V342.857L1074.69 342.977C1073.08 342.977 1072.28 342.362 1072.28 341.132C1072.28 340.481 1072.52 339.987 1072.98 339.661C1073.44 339.336 1074.02 339.167 1074.69 339.167L1077.87 339.287V334.066C1077.87 330.255 1078.65 327.506 1080.19 325.83C1081.74 324.153 1083.52 323.309 1085.55 323.309C1087.58 323.309 1089.26 323.683 1090.59 324.443C1091.93 325.203 1092.59 326.011 1092.59 326.867C1092.59 328.217 1092 328.893 1090.81 328.893C1090.26 328.893 1089.54 328.651 1088.65 328.157C1087.76 327.663 1086.89 327.421 1086.05 327.421C1083.43 327.421 1082.11 329.821 1082.11 334.621V339.299H1082.1Z" fill="#262D7D"/>
<path d="M1136.49 355.124C1136.49 358.199 1136.73 360.707 1137.19 362.66C1137.65 364.614 1138.21 365.699 1138.84 365.952C1139.1 366.073 1139.4 366.157 1139.77 366.194C1140.12 366.23 1140.38 366.29 1140.53 366.375C1140.68 366.459 1140.75 366.616 1140.75 366.869C1140.75 367.978 1140.44 368.883 1139.83 369.57C1139.22 370.269 1138.3 370.619 1137.07 370.619C1135.85 370.619 1134.89 369.86 1134.22 368.34C1133.54 366.821 1133.2 364.879 1133.2 362.504C1132.13 364.795 1130.59 366.724 1128.54 368.28C1126.49 369.835 1124.18 370.619 1121.62 370.619C1119.07 370.619 1116.85 369.799 1114.99 368.159C1111.6 365.169 1109.91 360.888 1109.91 355.305C1109.91 350.831 1111.24 346.936 1113.9 343.619C1116.57 340.303 1119.99 338.639 1124.19 338.639C1127.37 338.639 1130.11 339.688 1132.43 341.774C1132.43 339.688 1133.24 338.639 1134.85 338.639C1136.79 338.639 1137.77 340.086 1137.77 342.98C1137.76 345.874 1137.34 349.914 1136.49 355.124ZM1132.81 355.678L1132.49 346.212C1129.95 343.836 1127.29 342.643 1124.52 342.643C1121.75 342.643 1119.37 343.849 1117.38 346.272C1115.39 348.696 1114.4 351.59 1114.4 354.979C1114.4 358.367 1115.04 361.153 1116.33 363.348C1117.62 365.542 1119.45 366.64 1121.82 366.64C1124.19 366.64 1126.35 365.615 1128.29 363.565C1130.24 361.503 1131.75 358.874 1132.81 355.678Z" fill="#262D7D"/>
<path d="M1189.67 350.638L1189.35 360.297C1189.35 361.442 1189.36 362.311 1189.38 362.914C1189.4 363.505 1189.53 364.12 1189.75 364.759C1189.98 365.398 1190.27 365.784 1190.61 365.928C1190.94 366.073 1191.3 366.17 1191.65 366.206C1192.01 366.242 1192.27 366.302 1192.42 366.387C1192.57 366.471 1192.64 366.628 1192.64 366.881C1192.64 367.942 1192.29 368.835 1191.6 369.558C1190.9 370.27 1190.09 370.631 1189.15 370.631C1187.54 370.631 1186.44 370.016 1185.82 368.786C1185.21 367.556 1184.9 365.748 1184.9 363.372L1185.16 352.061C1185.16 349.275 1184.55 347.02 1183.32 345.296C1182.1 343.571 1180.39 342.715 1178.21 342.715C1176.03 342.715 1173.93 343.885 1171.9 346.224C1169.87 348.564 1168.45 351.205 1167.65 354.159L1167.84 367.508C1167.84 369.594 1167.04 370.643 1165.43 370.643C1163.48 370.643 1162.5 369.196 1162.5 366.302C1162.5 363.408 1162.92 359.368 1163.77 354.159C1163.77 352.435 1163.59 350.059 1163.23 347.02C1162.87 343.981 1162.7 342.112 1162.7 341.389C1162.7 340.665 1162.92 340.038 1163.36 339.483C1163.8 338.929 1164.42 338.651 1165.17 338.651C1165.92 338.651 1166.53 338.929 1166.97 339.483C1167.41 340.038 1167.64 340.665 1167.64 341.365C1167.64 342.064 1167.63 342.908 1167.6 343.921C1167.58 344.922 1167.57 345.778 1167.57 346.478C1170.66 341.268 1174.46 338.663 1179 338.663C1182.38 338.663 1185 339.833 1186.87 342.172C1188.73 344.488 1189.67 347.31 1189.67 350.638Z" fill="#262D7D"/>
<path d="M1221.65 343.005L1221.52 357.584C1221.52 361.31 1221.68 363.758 1221.99 364.903C1222.32 366.049 1223.14 366.628 1224.5 366.628C1225.13 366.628 1225.9 366.411 1226.81 365.977C1227.73 365.543 1228.33 365.326 1228.62 365.326C1229.51 365.326 1229.95 365.748 1229.95 366.592C1229.95 367.436 1229.17 368.316 1227.6 369.233C1226.03 370.161 1224.48 370.619 1222.96 370.619C1219.28 370.619 1217.44 368.003 1217.44 362.745L1217.38 343.005C1215.98 343.125 1215 343.185 1214.46 343.185C1212.34 343.185 1211.28 342.51 1211.28 341.16C1211.28 339.809 1212.33 339.134 1214.46 339.134C1214.63 339.134 1215.55 339.17 1217.25 339.254L1217.12 332.369C1217.12 330.319 1217.92 329.294 1219.54 329.294C1221.15 329.294 1221.95 330.319 1221.95 332.369L1221.76 339.315L1226.9 339.073C1229.02 339.073 1230.08 339.773 1230.08 341.16C1230.08 342.474 1229.02 343.125 1226.9 343.125C1226.54 343.137 1224.77 343.089 1221.65 343.005Z" fill="#262D7D"/>
<path d="M1253.94 325.423C1254.84 325.423 1255.49 325.7 1255.91 326.255C1256.33 326.81 1256.54 327.509 1256.54 328.341C1256.54 329.185 1256.24 330.017 1255.65 330.861C1255.06 331.705 1254.32 332.127 1253.43 332.127C1252.54 332.127 1251.87 331.838 1251.43 331.271C1250.99 330.692 1250.77 329.945 1250.77 328.992C1250.77 328.04 1251.08 327.22 1251.69 326.496C1252.3 325.785 1253.05 325.423 1253.94 325.423ZM1255.73 354.629L1256.05 367.544C1256.05 369.594 1255.24 370.619 1253.63 370.619C1252.02 370.619 1251.22 369.594 1251.22 367.544L1251.54 354.629L1251.22 341.714C1251.22 339.664 1252.02 338.639 1253.63 338.639C1255.24 338.639 1256.05 339.664 1256.05 341.714L1255.73 354.629Z" fill="#262D7D"/>
<path d="M1285.04 346.995L1285.36 367.591C1285.36 369.641 1284.55 370.666 1282.94 370.666C1281.33 370.666 1280.53 369.641 1280.53 367.591L1280.85 346.995L1280.53 326.398C1280.53 324.348 1281.33 323.323 1282.94 323.323C1284.55 323.323 1285.36 324.348 1285.36 326.398L1285.04 346.995Z" fill="#262D7D"/>
<path d="M728.445 61.9574L809.502 1.79312L808.836 55.2702L768.973 82.0088V231.384L728.445 266.494" fill="#009ACB"/>
<path d="M464.873 296.214V91.1429L536.805 30.7112V36.6751" fill="#E63B00"/>
<path d="M464.873 244.699L536.805 193.5V244.699L464.873 299.256V244.699Z" fill="#E63B00"/>
<path d="M469.168 180.899L541.099 93.1242V180.899L469.168 274.419V180.899Z" fill="#E63B00"/>
<path d="M540.026 26.7484H531.437V35.6646H540.026V26.7484Z" fill="white"/>
<path d="M302.758 3.87357V200.702L221.862 268.99V64.1269L302.758 3.87357Z" fill="#ECBE1F"/>
<path d="M804.134 78.2638H764.41V81.236H804.134V78.2638Z" fill="#009ACB"/>
<path d="M762.575 78.046V78.0559C762.564 78.264 762.618 78.4522 762.714 78.6305C762.779 78.8187 762.886 78.9772 763.047 79.106C763.197 79.2546 763.369 79.3537 763.562 79.4131C763.755 79.5023 763.96 79.5518 764.185 79.5419C764.325 79.5221 764.475 79.5023 764.614 79.4924C764.883 79.423 765.119 79.2943 765.323 79.106C765.409 79.007 765.495 78.9079 765.57 78.8088C765.72 78.581 765.785 78.3234 765.785 78.0559V78.046C765.795 77.838 765.742 77.6498 765.645 77.4715C765.581 77.2832 765.473 77.1247 765.312 76.9959C765.162 76.8473 764.99 76.7483 764.797 76.6888C764.604 76.5997 764.4 76.5502 764.174 76.5601C764.035 76.5799 763.884 76.5997 763.745 76.6096C763.476 76.6789 763.24 76.8077 763.036 76.9959C762.95 77.095 762.864 77.1941 762.789 77.2931C762.65 77.5309 762.575 77.7786 762.575 78.046Z" fill="#009ACB"/>
<path d="M764.056 80.1066C764.196 80.1462 764.335 80.176 764.475 80.2057C764.754 80.2552 765.033 80.2849 765.312 80.3047C765.538 80.3146 765.742 80.2651 765.935 80.176C766.139 80.1165 766.311 80.0175 766.45 79.8689C766.611 79.7302 766.719 79.5717 766.783 79.3934C766.88 79.215 766.933 79.0268 766.923 78.8188C766.901 78.69 766.88 78.5513 766.869 78.4225C766.794 78.1749 766.654 77.9569 766.45 77.7687C766.343 77.6894 766.235 77.6102 766.128 77.5408C765.881 77.4021 765.602 77.3427 765.312 77.3427C765.215 77.3427 765.119 77.3328 765.033 77.3229C765.173 77.3427 765.323 77.3625 765.462 77.3724C765.28 77.3526 765.087 77.313 764.915 77.2536C764.7 77.1941 764.485 77.1842 764.271 77.2238C764.056 77.2338 763.852 77.2932 763.67 77.4022C763.487 77.4913 763.326 77.6201 763.219 77.7885C763.079 77.9272 762.982 78.0956 762.929 78.2937C762.907 78.4225 762.886 78.5612 762.875 78.69C762.875 78.9575 762.95 79.2051 763.09 79.4429C763.176 79.5419 763.262 79.641 763.337 79.7401C763.541 79.9085 763.777 80.0373 764.056 80.1066Z" fill="#009ACB"/>
<path d="M766.643 80.4435C766.847 80.4534 767.041 80.4533 767.245 80.4236C767.578 80.384 767.91 80.3543 768.232 80.2552C768.447 80.2057 768.63 80.1165 768.78 79.9877C768.952 79.8787 769.091 79.7401 769.199 79.5716C769.317 79.4032 769.381 79.215 769.392 79.0168C769.435 78.8187 769.435 78.6206 769.36 78.4224C769.306 78.3035 769.252 78.1846 769.199 78.0657C769.059 77.8379 768.866 77.6695 768.619 77.5308C768.49 77.4812 768.361 77.4317 768.232 77.3822C767.943 77.3128 767.663 77.3128 767.374 77.3822C767.202 77.4317 767.019 77.4713 766.848 77.4911C766.987 77.4713 767.137 77.4515 767.277 77.4416C767.073 77.4713 766.858 77.4713 766.643 77.4614C766.418 77.4515 766.214 77.5011 766.021 77.5902C765.817 77.6497 765.645 77.7487 765.506 77.8973C765.344 78.036 765.237 78.1945 765.173 78.3729C765.076 78.5512 765.022 78.7394 765.033 78.9475C765.055 79.0763 765.076 79.215 765.087 79.3438C765.162 79.5914 765.302 79.8094 765.506 79.9976C765.613 80.0769 765.72 80.1562 765.828 80.2255C766.085 80.3741 766.354 80.4435 766.643 80.4435Z" fill="#009ACB"/>
<path d="M763.337 79.2547L808.965 44.8879L805.207 42.5994L752.601 76.2826L759.042 83.2174L763.337 79.2547Z" fill="#009ACB"/>
<path d="M985.66 79.5915C985.66 79.5915 985.66 286.704 985.66 284.029C985.66 281.355 1011.78 258.638 1011.78 257.301C1011.78 255.963 1011.78 57.4596 1011.78 57.4596L985.66 79.5915Z" fill="#8FB816"/>
<path d="M505.348 62.2347L586.374 1.98135H779.795L707.917 62.2347" fill="#ECBE1F"/>
<path d="M525.962 62.2347L606.987 1.98135H800.398L728.52 62.2347" fill="#ECBE1F"/>
<path d="M1080.05 19.3381L986.54 79.5618H763.337L846.284 19.3381" fill="#E98909"/>
<path d="M1210.13 61.244L1282.01 0H1088.6L1007.57 61.244" fill="#8DB815"/>
<path d="M445.613 92.9459L517.491 32.6925H324.069L243.055 92.9459" fill="#ECBE1F"/>
<path d="M545.394 32.6925L464.97 93.1242H272.987L344.328 32.6925" fill="#ECBE1F"/>
<path d="M19.486 64.2161L100.511 3.96271H293.922L222.044 64.2161" fill="#8FB816"/>
<path d="M100.286 3.96271L28.4078 64.3944H221.819L302.844 3.96271" fill="#8FB816"/>
<path d="M607.18 1.98135L535.302 62.413H728.724L809.749 1.98135" fill="#ECBE1F"/>
<path d="M753.674 239.745V247.869L726.834 267.157L727.951 235.684L740.254 226.54" fill="#009ACB"/>
<path d="M1012.41 256.587V264.711L985.574 283.999L986.691 252.525L998.994 243.381" fill="#8DB815"/>
<path d="M768.705 228.848V236.972L741.865 256.26L742.981 224.786L755.285 215.642" fill="#009ACB"/>
<path d="M222.087 64.3944L300.611 3.96271H89.3137L0.805237 64.3944" fill="#8FB816"/>
<path d="M1231.15 61.0163H1009.14V266.494H1231.15V61.0163Z" fill="#ECBE1F"/>
<path d="M1108.72 0L1036.84 60.4317H1230.25L1311.27 0" fill="#8DB815"/>
<path d="M1229.47 62.4131L1307.66 0H1097.26L1009.13 62.4131" fill="#8DB815"/>
<path d="M985.714 79.5618C985.714 79.5618 985.714 286.416 985.714 283.751C985.714 281.086 1011.83 258.4 1011.83 257.062C1011.83 255.725 1011.83 57.4696 1011.83 57.4696L985.714 79.5618Z" fill="#8FB816"/>
<path d="M464.873 93.1243H243.785V299.692H464.873V93.1243Z" fill="#E98909"/>
<path d="M728.434 62.0465H506.422V266.91H728.434V62.0465Z" fill="#8FB816"/>
<path d="M985.66 79.1654H763.648V284.029H985.66V79.1654Z" fill="#E63B00"/>
<path d="M222.656 64.1963H0.644165V269.06H222.656V64.1963Z" fill="#009ACB"/>
<path d="M127.588 168.594V203.714C127.588 209.262 126.224 213.423 123.497 216.197C120.77 218.971 117.174 220.358 112.697 220.358C108.36 220.358 104.849 218.971 102.165 216.197C99.47 213.423 98.128 209.262 98.128 203.714V161.63C98.128 154.992 97.8811 149.831 97.398 146.146C96.9041 142.47 95.5836 139.458 93.4149 137.101C91.2462 134.743 87.8214 133.574 83.1404 133.574C73.7678 133.574 67.6053 136.546 64.6314 142.47C61.6575 148.404 60.1759 156.914 60.1759 168.01V203.714C60.1759 209.193 58.8339 213.344 56.1391 216.147C53.4444 218.951 49.9014 220.358 45.4996 220.358C41.1623 220.358 37.6193 218.951 34.8602 216.147C32.101 213.344 30.716 209.203 30.716 203.714V128.155C30.716 123.191 31.9614 119.417 34.4414 116.831C36.9215 114.255 40.1853 112.958 44.2435 112.958C48.1622 112.958 51.426 114.166 54.0456 116.583C56.6652 119.001 57.975 122.349 57.975 126.609V129.126C62.9351 123.647 68.2494 119.615 73.9074 117.029C79.5653 114.454 85.8567 113.156 92.7814 113.156C99.9746 113.156 106.169 114.473 111.344 117.118C116.519 119.764 120.781 123.766 124.131 129.116C128.951 123.697 134.126 119.684 139.645 117.069C145.163 114.454 151.282 113.146 157.993 113.146C165.819 113.146 172.561 114.562 178.23 117.406C183.888 120.249 188.118 124.311 190.92 129.591C193.368 134.366 194.592 141.876 194.592 152.129V203.694C194.592 209.242 193.228 213.403 190.501 216.177C187.774 218.951 184.178 220.338 179.701 220.338C175.364 220.338 171.821 218.931 169.061 216.128C166.302 213.324 164.917 209.183 164.917 203.694V159.302C164.917 153.625 164.66 149.078 164.134 145.66C163.608 142.242 162.19 139.369 159.882 137.051C157.574 134.733 154.085 133.564 149.393 133.564C145.614 133.564 142.039 134.594 138.646 136.665C135.253 138.725 132.612 141.499 130.734 144.986C128.64 149.435 127.588 157.311 127.588 168.594Z" fill="white" stroke="white" stroke-miterlimit="10"/>
<path d="M353.84 155.973C350.051 155.973 346.819 154.903 344.124 152.753C341.44 150.614 340.087 147.572 340.087 143.659C340.087 140.102 341.462 137.18 344.221 134.882C346.98 132.583 350.179 131.434 353.83 131.434C357.351 131.434 360.465 132.474 363.192 134.555C365.918 136.635 367.271 139.676 367.271 143.649C367.271 147.513 365.94 150.524 363.288 152.704C360.647 154.883 357.491 155.973 353.84 155.973ZM367.282 181.889V254.408C367.282 259.43 365.983 263.235 363.396 265.8C360.808 268.366 357.523 269.664 353.54 269.664C349.557 269.664 346.314 268.346 343.824 265.711C341.333 263.076 340.087 259.311 340.087 254.408V182.623C340.087 177.659 341.333 173.924 343.824 171.408C346.314 168.892 349.546 167.643 353.54 167.643C357.534 167.643 360.808 168.902 363.396 171.408C365.994 173.924 367.282 177.412 367.282 181.889Z" fill="white" stroke="white" stroke-miterlimit="10"/>
<path d="M666.4 189.627C666.4 192.916 665.337 196.433 663.201 200.168C661.065 203.912 657.822 207.469 653.453 210.857C649.083 214.245 643.575 216.97 636.941 219.03C630.295 221.091 622.823 222.131 614.502 222.131C596.82 222.131 583.013 217.376 573.093 207.865C563.162 198.355 558.202 185.595 558.202 169.605C558.202 158.767 560.468 149.187 565.02 140.875C569.561 132.553 576.131 126.124 584.731 121.577C593.331 117.029 603.605 114.761 615.554 114.761C622.962 114.761 629.758 115.761 635.942 117.762C642.126 119.764 647.365 122.339 651.67 125.5C655.965 128.66 659.25 132.028 661.526 135.615C663.791 139.191 664.93 142.53 664.93 145.63C664.93 148.791 663.652 151.466 661.108 153.665C658.552 155.854 655.46 156.954 651.832 156.954C649.459 156.954 647.483 156.389 645.905 155.26C644.338 154.131 642.566 152.308 640.612 149.791C637.112 144.887 633.462 141.212 629.651 138.765C625.839 136.318 620.998 135.09 615.125 135.09C606.665 135.09 599.847 138.141 594.683 144.234C589.509 150.326 586.921 158.668 586.921 169.238C586.921 174.202 587.587 178.769 588.918 182.93C590.249 187.091 592.171 190.637 594.683 193.57C597.196 196.502 600.245 198.731 603.809 200.247C607.373 201.763 611.292 202.516 615.554 202.516C621.287 202.516 626.194 201.287 630.284 198.84C634.375 196.393 637.993 192.648 641.138 187.616C642.888 184.653 644.767 182.325 646.796 180.651C648.825 178.977 651.305 178.135 654.236 178.135C657.726 178.135 660.635 179.363 662.943 181.81C665.252 184.247 666.4 186.863 666.4 189.627Z" fill="white" stroke="white" stroke-miterlimit="10"/>
<path d="M931.411 184.178C931.411 192.044 930.079 199.306 927.427 205.943C924.776 212.591 920.932 218.297 915.897 223.072C910.862 227.847 904.849 231.503 897.86 234.049C890.871 236.595 883.012 237.873 874.273 237.873C865.609 237.873 857.815 236.585 850.89 233.999C843.965 231.414 837.974 227.728 832.907 222.924C827.839 218.119 823.996 212.442 821.376 205.894C818.757 199.345 817.447 192.103 817.447 184.178C817.447 176.183 818.778 168.862 821.43 162.214C824.082 155.577 827.893 149.9 832.853 145.185C837.813 140.479 843.825 136.853 850.89 134.297C857.954 131.751 865.738 130.473 874.273 130.473C882.937 130.473 890.807 131.761 897.86 134.347C904.925 136.922 910.969 140.608 915.993 145.373C921.029 150.148 924.851 155.825 927.47 162.403C930.09 168.981 931.411 176.243 931.411 184.178ZM902.681 184.178C902.681 173.409 900.115 165.018 894.972 159.024C889.83 153.031 882.937 150.029 874.262 150.029C868.669 150.029 863.741 151.366 859.479 154.041C855.216 156.716 851.931 160.669 849.623 165.89C847.315 171.111 846.166 177.213 846.166 184.178C846.166 191.083 847.304 197.106 849.569 202.268C851.845 207.429 855.088 211.382 859.318 214.116C863.548 216.861 868.529 218.228 874.262 218.228C882.926 218.228 889.83 215.216 894.972 209.183C900.115 203.159 902.681 194.818 902.681 184.178Z" fill="white" stroke="white" stroke-miterlimit="10"/>
<path d="M1171.8 184.128C1171.8 191.42 1169.88 197.661 1166.04 202.852C1162.19 208.044 1156.51 211.977 1149 214.651C1141.48 217.326 1132.35 218.664 1121.58 218.664C1111.3 218.664 1102.5 217.217 1095.16 214.315C1087.81 211.412 1082.4 207.786 1078.9 203.427C1075.4 199.078 1073.66 194.709 1073.66 190.32C1073.66 187.417 1074.78 184.931 1077.02 182.87C1079.26 180.81 1082.09 179.769 1085.52 179.769C1088.52 179.769 1090.83 180.443 1092.44 181.8C1094.05 183.158 1095.59 185.06 1097.06 187.507C1099.99 192.212 1103.51 195.729 1107.59 198.047C1111.67 200.366 1117.25 201.535 1124.32 201.535C1130.05 201.535 1134.75 200.356 1138.41 198.008C1142.08 195.65 1143.92 192.965 1143.92 189.934C1143.92 185.287 1142.02 181.899 1138.21 179.779C1134.4 177.649 1128.13 175.618 1119.39 173.687C1109.53 171.428 1101.51 169.06 1095.33 166.574C1089.14 164.087 1084.2 160.818 1080.49 156.756C1076.79 152.694 1074.93 147.691 1074.93 141.757C1074.93 136.467 1076.64 131.474 1080.07 126.758C1083.5 122.052 1088.54 118.297 1095.22 115.484C1101.9 112.68 1109.95 111.274 1119.39 111.274C1126.8 111.274 1133.45 111.987 1139.36 113.403C1145.26 114.82 1150.19 116.722 1154.14 119.11C1158.09 121.497 1161.1 124.142 1163.16 127.045C1165.22 129.948 1166.25 132.791 1166.25 135.555C1166.25 138.587 1165.15 141.073 1162.94 143.005C1160.74 144.937 1157.62 145.908 1153.56 145.908C1150.63 145.908 1148.13 145.135 1146.07 143.59C1144.01 142.044 1141.64 139.716 1138.99 136.625C1136.82 134.049 1134.28 131.979 1131.34 130.433C1128.4 128.888 1124.41 128.115 1119.39 128.115C1114.21 128.115 1109.92 129.136 1106.49 131.166C1103.07 133.197 1101.35 135.734 1101.35 138.765C1101.35 141.539 1102.61 143.808 1105.13 145.581C1107.64 147.354 1111.04 148.82 1115.3 149.98C1119.56 151.139 1125.43 152.555 1132.92 154.239C1141.79 156.241 1149.04 158.628 1154.67 161.402C1160.29 164.176 1164.56 167.445 1167.45 171.22C1170.35 174.984 1171.8 179.294 1171.8 184.128Z" fill="white" stroke="white" stroke-miterlimit="10"/>
<path d="M1310.02 0.772736L1310.18 212.74L1231.22 266.91L1231.21 265.88L1229.9 60.9172" fill="#009ACB"/>
<path d="M1229.87 61.0657H1007.86V266.494H1229.87V61.0657Z" fill="#ECBE1F"/>
<path d="M1166.2 185.842C1166.2 193.134 1164.28 199.375 1160.43 204.566C1156.59 209.757 1150.91 213.69 1143.39 216.365C1135.88 219.04 1126.74 220.378 1115.97 220.378C1105.7 220.378 1096.9 218.931 1089.55 216.028C1082.21 213.126 1076.8 209.5 1073.3 205.141C1069.8 200.792 1068.06 196.423 1068.06 192.034C1068.06 189.131 1069.18 186.645 1071.42 184.584C1073.65 182.523 1076.49 181.483 1079.91 181.483C1082.92 181.483 1085.23 182.157 1086.84 183.514C1088.45 184.871 1089.98 186.773 1091.45 189.22C1094.38 193.926 1097.91 197.443 1101.99 199.761C1106.07 202.08 1111.65 203.249 1118.71 203.249C1124.45 203.249 1129.15 202.07 1132.81 199.722C1136.48 197.364 1138.32 194.679 1138.32 191.648C1138.32 187.001 1136.42 183.613 1132.61 181.493C1128.79 179.363 1122.52 177.332 1113.78 175.4C1103.93 173.142 1095.91 170.774 1089.73 168.287C1083.54 165.801 1078.59 162.531 1074.89 158.47C1071.18 154.408 1069.33 149.405 1069.33 143.471C1069.33 138.18 1071.03 133.187 1074.47 128.472C1077.89 123.766 1082.94 120.011 1089.62 117.198C1096.3 114.394 1104.35 112.987 1113.78 112.987C1121.19 112.987 1127.85 113.701 1133.75 115.117C1139.66 116.534 1144.59 118.436 1148.54 120.824C1152.49 123.211 1155.49 125.856 1157.56 128.759C1159.62 131.662 1160.65 134.505 1160.65 137.269C1160.65 140.301 1159.54 142.787 1157.34 144.719C1155.14 146.651 1152.02 147.622 1147.96 147.622C1145.03 147.622 1142.53 146.849 1140.46 145.303C1138.4 143.758 1136.04 141.43 1133.39 138.339C1131.22 135.763 1128.68 133.693 1125.73 132.147C1122.79 130.602 1118.81 129.829 1113.78 129.829C1108.61 129.829 1104.32 130.849 1100.89 132.88C1097.47 134.911 1095.75 137.447 1095.75 140.479C1095.75 143.253 1097 145.521 1099.53 147.295C1102.04 149.068 1105.43 150.534 1109.69 151.693C1113.96 152.852 1119.83 154.269 1127.31 155.953C1136.19 157.955 1143.44 160.342 1149.06 163.116C1154.69 165.89 1158.95 169.159 1161.85 172.934C1164.75 176.708 1166.2 181.008 1166.2 185.842Z" fill="white" stroke="white" stroke-miterlimit="10"/>
<path d="M1309.8 208.044L1231.43 265.503L1309.8 208.044Z" fill="#009ACB"/>
<path d="M1309.8 212.997L1231.43 265.503L1309.8 208.044V212.997Z" fill="#009ACB"/>
</svg>
