<?xml version="1.0" encoding="utf-8"?>
<!-- Generator: Adobe Illustrator 24.0.2, SVG Export Plug-In . SVG Version: 6.00 Build 0)  -->
<svg version="1.1" id="Capa_1" xmlns="http://www.w3.org/2000/svg" xmlns:xlink="http://www.w3.org/1999/xlink" x="0px" y="0px"
	 viewBox="0 0 342 318" enable-background="new 0 0 342 318" xml:space="preserve">
<polyline fill="#8FB816" points="41.17,83.4 116.64,23 296.79,23 229.84,83.4 "/>
<polyline fill="#8FB816" points="117.43,23 50.48,84 230.63,84 306.1,23 "/>
<polyline fill="#8FB816" points="229.94,83.58 303.02,23 106.38,23 24,83.58 "/>
<rect x="23.62" y="83.38" fill="#009ACB" width="206.79" height="206.79"/>
<g>
	<rect x="39.42" y="92.97" fill="none" width="275.19" height="196.74"/>
	<path fill="#FFFFFF" stroke="#FFFFFF" stroke-miterlimit="10" d="M141.86,188.76v35.45c0,5.6-1.27,9.8-3.81,12.6
		s-5.89,4.2-10.06,4.2c-4.04,0-7.31-1.4-9.81-4.2c-2.51-2.8-3.76-7-3.76-12.6v-42.48c0-6.7-0.23-11.91-0.68-15.63
		c-0.46-3.71-1.69-6.75-3.71-9.13c-2.02-2.38-5.21-3.56-9.57-3.56c-8.73,0-14.47,3-17.24,8.98c-2.77,5.99-4.15,14.58-4.15,25.78
		v36.04c0,5.53-1.25,9.72-3.76,12.55c-2.51,2.83-5.81,4.25-9.91,4.25c-4.04,0-7.34-1.42-9.91-4.25c-2.57-2.83-3.86-7.01-3.86-12.55
		v-76.27c0-5.01,1.16-8.82,3.47-11.43c2.31-2.6,5.35-3.91,9.13-3.91c3.65,0,6.69,1.22,9.13,3.66s3.66,5.81,3.66,10.11v2.54
		c4.62-5.53,9.57-9.6,14.84-12.21c5.27-2.6,11.13-3.91,17.58-3.91c6.7,0,12.47,1.33,17.29,4c4.82,2.67,8.79,6.71,11.91,12.11
		c4.49-5.47,9.31-9.52,14.45-12.16c5.14-2.64,10.84-3.96,17.09-3.96c7.29,0,13.57,1.43,18.85,4.3c5.27,2.87,9.21,6.97,11.82,12.3
		c2.28,4.82,3.42,12.4,3.42,22.75v52.05c0,5.6-1.27,9.8-3.81,12.6s-5.89,4.2-10.06,4.2c-4.04,0-7.34-1.42-9.91-4.25
		c-2.57-2.83-3.86-7.01-3.86-12.55v-44.82c0-5.73-0.24-10.32-0.73-13.77c-0.49-3.45-1.81-6.35-3.96-8.69
		c-2.15-2.34-5.4-3.52-9.77-3.52c-3.52,0-6.85,1.04-10.01,3.13c-3.16,2.08-5.62,4.88-7.37,8.4
		C142.84,169.43,141.86,177.37,141.86,188.76z"/>
</g>
<polygon fill="#ECBE1F" points="306,23 306,221.23 230.35,290 230.35,83.68 "/>
<g>
</g>
<g>
</g>
<g>
</g>
<g>
</g>
<g>
</g>
<g>
</g>
<g>
</g>
<g>
</g>
<g>
</g>
<g>
</g>
<g>
</g>
<g>
</g>
<g>
</g>
<g>
</g>
<g>
</g>
</svg>
