<svg width="1372" height="642" viewBox="0 0 1372 642" fill="none" xmlns="http://www.w3.org/2000/svg">
<path d="M530.02 410.793C532.093 410.793 532.093 407.153 530.02 407.153C527.946 407.153 527.935 410.793 530.02 410.793Z" fill="white"/>
<path d="M56.8247 366.451C56.8247 367.774 55.3098 369.23 52.28 370.844C49.2502 372.458 45.7047 373.258 41.6435 373.258C35.7129 373.258 30.8029 370.916 26.9135 366.233C23.0135 361.549 21.0688 355.833 21.0688 349.087C21.0688 342.34 23.035 336.637 26.978 331.977C30.9103 327.317 35.8418 324.988 41.7724 324.988C45.2857 324.988 48.4444 325.631 51.2378 326.905C54.0312 328.179 55.4279 329.623 55.4279 331.237C55.4279 331.892 55.2238 332.414 54.8263 332.79C54.418 333.166 53.8701 333.348 53.1717 333.348C52.4734 333.348 51.6461 333.021 50.6899 332.353C49.7337 331.698 48.5303 331.018 47.0692 330.339C45.608 329.659 43.846 329.32 41.7617 329.32C37.2277 329.32 33.5103 331.273 30.588 335.168C27.6656 339.063 26.2045 343.663 26.2045 348.965C26.2045 354.268 27.6656 358.915 30.588 362.92C33.5103 366.924 37.217 368.926 41.6972 368.926C43.7708 368.926 45.6402 368.708 47.3163 368.271C48.9923 367.834 50.2494 367.373 51.0981 366.876C51.9469 366.378 52.7312 365.917 53.4511 365.48C54.1709 365.043 54.7189 364.825 55.1056 364.825C56.2445 364.837 56.8247 365.371 56.8247 366.451Z" fill="black"/>
<path d="M93.9342 340.459C97.34 340.459 100.112 341.381 102.25 343.238C104.388 345.094 105.452 347.509 105.452 350.482C105.452 353.455 104.13 355.712 101.487 357.253C98.8442 358.806 95.5888 359.571 91.7425 359.571C89.5399 359.571 86.854 359.267 83.6738 358.636C83.9316 361.524 85.0382 364.012 87.0044 366.099C88.9705 368.186 91.1623 369.23 93.5797 369.23C95.0193 369.23 96.3516 369.036 97.5764 368.647C98.8012 368.259 99.7359 367.834 100.37 367.373C102.067 366.099 103.174 365.456 103.7 365.456C104.227 365.456 104.657 365.614 104.968 365.917C105.28 366.22 105.441 366.609 105.441 367.058C105.441 368.21 104.227 369.533 101.788 371.013C99.3491 372.494 96.7169 373.246 93.8805 373.246C89.4755 373.246 85.9837 371.742 83.4052 368.732C80.8266 365.723 79.4299 362.095 79.215 357.835C76.9695 357.18 75.8522 356.1 75.8522 354.62C75.8522 354.001 76.0348 353.516 76.3894 353.164C76.7439 352.812 77.1844 352.642 77.6894 352.642C78.1943 352.642 78.8282 352.824 79.591 353.2C80.5258 349.487 82.2878 346.429 84.8985 344.038C87.5093 341.648 90.5284 340.459 93.9342 340.459ZM91.5276 355.675C94.3854 355.675 96.6739 355.202 98.3822 354.256C100.101 353.309 100.95 352.023 100.95 350.421C100.95 348.819 100.391 347.424 99.2632 346.247C98.1458 345.07 96.545 344.488 94.4714 344.488C91.678 344.488 89.325 345.507 87.4234 347.545C85.5217 349.584 84.2862 351.974 83.7382 354.693C86.0696 355.348 88.6697 355.675 91.5276 355.675Z" fill="black"/>
<path d="M155.185 352.836L154.863 362.556C154.863 363.709 154.874 364.582 154.895 365.189C154.917 365.784 155.046 366.402 155.271 367.046C155.508 367.689 155.787 368.077 156.131 368.223C156.464 368.368 156.818 368.465 157.184 368.502C157.538 368.538 157.796 368.599 157.947 368.684C158.097 368.769 158.172 368.926 158.172 369.181C158.172 370.249 157.818 371.147 157.119 371.875C156.421 372.591 155.604 372.955 154.67 372.955C153.058 372.955 151.951 372.336 151.339 371.099C150.727 369.861 150.415 368.041 150.415 365.65L150.673 354.268C150.673 351.465 150.06 349.196 148.836 347.461C147.611 345.725 145.903 344.864 143.722 344.864C141.541 344.864 139.435 346.041 137.404 348.395C135.374 350.749 133.955 353.406 133.15 356.379L133.343 369.812C133.343 371.912 132.537 372.967 130.926 372.967C128.981 372.967 128.003 371.511 128.003 368.599C128.003 365.687 128.422 361.622 129.271 356.379C129.271 354.644 129.088 352.254 128.734 349.196C128.369 346.138 128.197 344.257 128.197 343.529C128.197 342.801 128.422 342.17 128.863 341.612C129.303 341.054 129.916 340.775 130.668 340.775C131.431 340.775 132.032 341.054 132.473 341.612C132.913 342.17 133.139 342.801 133.139 343.505C133.139 344.209 133.128 345.058 133.107 346.077C133.085 347.084 133.074 347.946 133.074 348.65C136.169 343.408 139.972 340.787 144.506 340.787C147.89 340.787 150.512 341.964 152.381 344.318C154.251 346.648 155.185 349.487 155.185 352.836Z" fill="black"/>
<path d="M187.192 345.155L187.063 359.826C187.063 363.575 187.224 366.038 187.535 367.191C187.858 368.344 188.685 368.926 190.039 368.926C190.673 368.926 191.446 368.708 192.359 368.271C193.273 367.834 193.874 367.616 194.164 367.616C195.056 367.616 195.497 368.041 195.497 368.89C195.497 369.739 194.712 370.625 193.144 371.548C191.575 372.482 190.028 372.943 188.513 372.943C184.828 372.943 182.991 370.31 182.991 365.019L182.926 345.155C181.529 345.276 180.552 345.337 180.004 345.337C177.887 345.337 176.824 344.658 176.824 343.298C176.824 341.939 177.877 341.26 180.004 341.26C180.176 341.26 181.1 341.296 182.797 341.381L182.668 334.452C182.668 332.39 183.474 331.358 185.086 331.358C186.697 331.358 187.503 332.39 187.503 334.452L187.31 341.442L192.456 341.199C194.573 341.199 195.636 341.903 195.636 343.298C195.636 344.621 194.573 345.276 192.456 345.276C192.08 345.289 190.329 345.24 187.192 345.155Z" fill="black"/>
<path d="M221.551 358.151L221.744 369.788C221.744 371.887 220.938 372.943 219.327 372.943C217.382 372.943 216.404 371.487 216.404 368.574C216.404 365.662 216.823 361.597 217.672 356.355C217.672 354.62 217.489 352.254 217.135 349.232C216.77 346.223 216.598 344.342 216.598 343.602C216.598 342.862 216.823 342.194 217.264 341.624C217.704 341.041 218.317 340.762 219.069 340.762C219.832 340.762 220.433 341.053 220.874 341.624C221.314 342.206 221.54 342.825 221.54 343.517C221.54 344.196 221.529 345.058 221.508 346.114C221.486 347.169 221.475 348.043 221.475 348.747C222.324 346.647 223.646 344.791 225.44 343.177C227.234 341.563 229.093 340.762 230.995 340.762C232.896 340.762 234.368 341.138 235.41 341.903C236.452 342.667 236.968 343.48 236.968 344.342C236.968 345.203 236.732 345.883 236.27 346.381C235.808 346.878 235.195 347.121 234.465 347.121C233.734 347.121 232.918 346.745 232.047 345.98C231.177 345.216 230.49 344.839 229.985 344.839C228.588 344.839 226.955 346.308 225.096 349.232C223.237 352.169 222.056 355.142 221.551 358.151Z" fill="black"/>
<path d="M270.983 340.459C275.324 340.459 278.891 342.036 281.684 345.191C284.478 348.346 285.875 352.217 285.875 356.792C285.875 361.367 284.456 365.262 281.62 368.453C278.784 371.657 275.206 373.246 270.887 373.246C266.568 373.246 263.012 371.669 260.218 368.514C257.425 365.359 256.028 361.488 256.028 356.913C256.028 352.339 257.435 348.443 260.25 345.252C263.065 342.061 266.643 340.459 270.983 340.459ZM278.289 365.577C280.341 363.138 281.373 360.214 281.373 356.792C281.373 353.37 280.384 350.458 278.418 348.067C276.452 345.677 274.003 344.475 271.08 344.475C268.158 344.475 265.676 345.689 263.624 348.128C261.572 350.567 260.54 353.491 260.54 356.913C260.54 360.335 261.529 363.247 263.495 365.638C265.461 368.028 267.911 369.23 270.833 369.23C273.745 369.23 276.227 368.016 278.289 365.577Z" fill="black"/>
<path d="M382.903 368.414C383.999 368.414 384.558 368.717 384.558 369.336C384.558 370.125 384.268 370.926 383.698 371.751C383.129 372.576 382.226 372.988 381.001 372.988C379.777 372.988 378.81 372.333 378.111 371.01C377.413 369.688 376.919 367.589 376.618 364.701C373.524 370.234 369.613 372.988 364.875 372.988C362.124 372.988 359.75 372.127 357.762 370.392C355.775 368.656 354.356 366.654 353.508 364.385C352.659 362.116 352.24 359.847 352.24 357.578C352.24 353.076 353.637 349.156 356.43 345.819C359.223 342.482 362.801 340.808 367.163 340.808C370.343 340.808 373.341 341.815 376.177 343.841C376.263 338.102 376.306 333.903 376.306 331.246C376.306 328.588 376.51 326.938 376.908 326.295C377.305 325.652 377.961 325.336 378.874 325.336C379.787 325.336 380.529 325.7 381.098 326.416C381.668 327.132 381.958 328.2 381.958 329.608C381.958 331.015 381.872 332.738 381.7 334.777C381.528 336.816 381.281 339.522 380.937 342.883C380.593 346.244 380.324 349.29 380.11 352.008C380.11 357.044 380.303 360.987 380.679 363.827C381.066 366.678 381.807 368.207 382.903 368.414ZM376.177 358.269V348.428C373.642 346.038 370.633 344.836 367.163 344.836C364.456 344.836 362.071 346.05 360.018 348.489C357.966 350.928 356.935 353.779 356.935 357.056C356.935 360.332 357.676 363.135 359.159 365.477C360.642 367.807 362.651 368.972 365.197 368.972C369.634 368.972 373.298 365.404 376.177 358.269Z" fill="black"/>
<path d="M421.291 340.459C424.697 340.459 427.469 341.381 429.607 343.238C431.745 345.094 432.809 347.509 432.809 350.482C432.809 353.455 431.487 355.712 428.844 357.253C426.201 358.806 422.946 359.571 419.099 359.571C416.897 359.571 414.211 359.267 411.031 358.636C411.288 361.524 412.395 364.012 414.361 366.099C416.327 368.186 418.519 369.23 420.936 369.23C422.376 369.23 423.708 369.036 424.933 368.647C426.158 368.259 427.093 367.834 427.727 367.373C429.424 366.099 430.531 365.456 431.057 365.456C431.584 365.456 432.013 365.614 432.325 365.917C432.637 366.22 432.798 366.609 432.798 367.058C432.798 368.21 431.584 369.533 429.145 371.013C426.706 372.494 424.074 373.246 421.237 373.246C416.832 373.246 413.34 371.742 410.762 368.732C408.183 365.723 406.787 362.095 406.572 357.835C404.326 357.18 403.209 356.1 403.209 354.62C403.209 354.001 403.392 353.516 403.746 353.164C404.101 352.812 404.541 352.642 405.046 352.642C405.551 352.642 406.185 352.824 406.948 353.2C407.883 349.487 409.645 346.429 412.255 344.038C414.866 341.648 417.885 340.459 421.291 340.459ZM418.884 355.675C421.742 355.675 424.031 355.202 425.739 354.256C427.458 353.309 428.307 352.023 428.307 350.421C428.307 348.819 427.748 347.424 426.62 346.247C425.503 345.07 423.902 344.488 421.828 344.488C419.035 344.488 416.682 345.507 414.78 347.545C412.878 349.584 411.643 351.974 411.095 354.693C413.426 355.348 416.026 355.675 418.884 355.675Z" fill="black"/>
<path d="M517.277 368.279L527.57 367.976C529.687 367.976 530.75 368.764 530.75 370.33C530.75 371.895 529.687 372.684 527.57 372.684L517.277 372.38L506.168 372.684C504.266 372.684 503.31 371.895 503.31 370.33C503.31 368.886 503.364 366.447 503.471 363.025C503.579 359.603 503.633 355.222 503.633 349.908C503.256 349.944 502.827 349.968 502.365 349.968C500.334 349.968 499.313 349.204 499.313 347.675C499.313 346.971 499.593 346.401 500.141 345.94C500.689 345.491 501.312 345.26 502.01 345.26C502.709 345.26 503.246 345.284 503.633 345.321C503.547 337.033 503.396 332.021 503.192 330.286C502.687 329.582 502.429 328.818 502.429 327.993C502.429 326.427 503.547 325.639 505.792 325.639L518.051 325.942L527.581 325.639C529.697 325.639 530.761 326.427 530.761 327.993C530.761 329.558 529.697 330.347 527.581 330.347L518.051 330.043C513.227 330.043 510.047 330.128 508.521 330.286C508.306 335.686 508.199 340.746 508.199 345.454C510.057 345.539 511.54 345.576 512.647 345.576L524.078 345.272C525.056 345.272 525.829 345.491 526.399 345.927C526.968 346.364 527.258 346.947 527.258 347.687C527.258 349.216 526.195 349.98 524.078 349.98L512.647 349.677C511.465 349.677 509.982 349.713 508.199 349.798V355.926C508.199 362.078 508.306 366.119 508.521 368.061C511.476 368.194 514.398 368.279 517.277 368.279Z" fill="black"/>
<path d="M582.493 368.414C583.589 368.414 584.148 368.717 584.148 369.336C584.148 370.125 583.857 370.926 583.288 371.751C582.719 372.576 581.816 372.988 580.591 372.988C579.366 372.988 578.4 372.333 577.701 371.01C577.003 369.688 576.509 367.589 576.208 364.701C573.113 370.234 569.203 372.988 564.465 372.988C561.714 372.988 559.34 372.127 557.352 370.392C555.365 368.656 553.946 366.654 553.098 364.385C552.249 362.116 551.83 359.847 551.83 357.578C551.83 353.076 553.227 349.156 556.02 345.819C558.813 342.482 562.391 340.808 566.753 340.808C569.933 340.808 572.931 341.815 575.767 343.841C575.853 338.102 575.896 333.903 575.896 331.246C575.896 328.588 576.1 326.938 576.498 326.295C576.895 325.652 577.551 325.336 578.464 325.336C579.377 325.336 580.119 325.7 580.688 326.416C581.257 327.132 581.548 328.2 581.548 329.608C581.548 331.015 581.462 332.738 581.29 334.777C581.118 336.816 580.871 339.522 580.527 342.883C580.183 346.244 579.914 349.29 579.7 352.008C579.7 357.044 579.893 360.987 580.269 363.827C580.656 366.678 581.397 368.207 582.493 368.414ZM575.767 358.269V348.428C573.232 346.038 570.223 344.836 566.753 344.836C564.046 344.836 561.66 346.05 559.608 348.489C557.556 350.928 556.525 353.779 556.525 357.056C556.525 360.332 557.266 363.135 558.749 365.477C560.232 367.807 562.241 368.972 564.787 368.972C569.224 368.972 572.888 365.404 575.767 358.269Z" fill="black"/>
<path d="M610.878 345.847L610.373 359.462C610.373 362.265 610.986 364.546 612.211 366.305C613.435 368.065 615.144 368.939 617.325 368.939C619.506 368.939 621.612 367.749 623.642 365.383C625.673 363.017 627.091 360.335 627.897 357.375L627.703 343.942C627.703 341.842 628.509 340.787 630.121 340.787C632.065 340.787 633.043 342.243 633.043 345.155C633.043 348.067 632.624 352.132 631.775 357.375C631.775 360.469 632.012 362.993 632.474 364.959C632.936 366.924 633.494 368.016 634.128 368.271C634.386 368.393 634.687 368.478 635.052 368.514C635.407 368.55 635.665 368.611 635.815 368.696C635.965 368.781 636.041 368.939 636.041 369.193C636.041 370.31 635.686 371.22 634.988 371.912C634.289 372.615 633.408 372.967 632.355 372.967C629.691 372.967 628.359 370.334 628.359 365.043C625.221 370.322 621.289 372.967 616.551 372.967C613.167 372.967 610.535 371.742 608.676 369.291C606.817 366.839 605.882 363.83 605.882 360.287L606.259 350.943C606.259 349.293 606.087 347.752 605.754 346.332C605.41 344.912 605.249 343.893 605.249 343.274C605.249 342.655 605.506 342.085 606.011 341.575C606.516 341.066 607.172 340.799 607.978 340.799C609.901 340.762 610.878 342.461 610.878 345.847Z" fill="black"/>
<path d="M681.81 365.954C682.874 365.954 683.4 366.5 683.4 367.592C683.4 368.684 682.175 369.897 679.715 371.244C677.254 372.579 674.676 373.258 671.968 373.258C667.52 373.258 663.814 371.657 660.859 368.465C657.894 365.274 656.411 361.403 656.411 356.865C656.411 352.326 657.905 348.456 660.891 345.264C663.878 342.073 667.8 340.471 672.667 340.471C675.331 340.471 677.695 341.054 679.747 342.231C681.799 343.408 682.831 344.609 682.831 345.847C682.831 346.502 682.616 347.048 682.197 347.485C681.778 347.922 681.283 348.14 680.735 348.14C680.188 348.14 679.554 347.837 678.834 347.218C676.631 345.398 674.386 344.5 672.097 344.5C669.175 344.5 666.629 345.701 664.448 348.092C662.267 350.482 661.181 353.394 661.181 356.816C661.181 360.238 662.277 363.175 664.48 365.602C666.682 368.041 669.411 369.254 672.677 369.254C675.17 369.254 677.609 368.429 679.983 366.779C680.778 366.22 681.391 365.954 681.81 365.954Z" fill="black"/>
<path d="M730.587 357.35C730.587 360.444 730.824 362.968 731.286 364.934C731.748 366.9 732.306 367.992 732.94 368.247C733.198 368.368 733.499 368.453 733.864 368.489C734.219 368.526 734.477 368.587 734.627 368.672C734.777 368.756 734.853 368.914 734.853 369.169C734.853 370.285 734.541 371.195 733.929 371.887C733.316 372.591 732.392 372.943 731.167 372.943C729.943 372.943 728.986 372.178 728.31 370.649C727.633 369.121 727.289 367.167 727.289 364.776C726.225 367.082 724.678 369.023 722.626 370.589C720.574 372.154 718.264 372.943 715.707 372.943C713.15 372.943 710.937 372.118 709.067 370.467C705.683 367.458 703.985 363.15 703.985 357.532C703.985 353.03 705.318 349.111 707.982 345.774C710.647 342.437 714.074 340.762 718.275 340.762C721.455 340.762 724.205 341.818 726.526 343.917C726.526 341.818 727.332 340.762 728.943 340.762C730.888 340.762 731.866 342.218 731.866 345.131C731.855 348.043 731.425 352.108 730.587 357.35ZM726.902 357.908L726.58 348.383C724.044 345.992 721.38 344.791 718.608 344.791C715.836 344.791 713.451 346.004 711.463 348.443C709.476 350.882 708.476 353.795 708.476 357.204C708.476 360.614 709.121 363.417 710.41 365.626C711.699 367.834 713.537 368.938 715.9 368.938C718.275 368.938 720.434 367.907 722.379 365.844C724.334 363.769 725.838 361.124 726.902 357.908Z" fill="black"/>
<path d="M780.622 365.954C781.685 365.954 782.212 366.5 782.212 367.592C782.212 368.684 780.987 369.897 778.527 371.244C776.066 372.579 773.488 373.258 770.78 373.258C766.332 373.258 762.626 371.657 759.671 368.465C756.706 365.274 755.223 361.403 755.223 356.865C755.223 352.326 756.716 348.456 759.703 345.264C762.69 342.073 766.612 340.471 771.479 340.471C774.143 340.471 776.507 341.054 778.559 342.231C780.611 343.408 781.643 344.609 781.643 345.847C781.643 346.502 781.428 347.048 781.009 347.485C780.59 347.922 780.095 348.14 779.547 348.14C778.999 348.14 778.366 347.837 777.646 347.218C775.443 345.398 773.198 344.5 770.909 344.5C767.987 344.5 765.441 345.701 763.26 348.092C761.079 350.482 759.993 353.394 759.993 356.816C759.993 360.238 761.089 363.175 763.292 365.602C765.494 368.041 768.223 369.254 771.489 369.254C773.982 369.254 776.421 368.429 778.795 366.779C779.59 366.22 780.203 365.954 780.622 365.954Z" fill="black"/>
<path d="M807.17 327.463C808.062 327.463 808.717 327.742 809.136 328.3C809.555 328.858 809.77 329.562 809.77 330.4C809.77 331.249 809.469 332.086 808.878 332.936C808.287 333.785 807.546 334.21 806.654 334.21C805.763 334.21 805.096 333.919 804.656 333.348C804.215 332.766 803.99 332.013 803.99 331.055C803.99 330.096 804.301 329.271 804.914 328.543C805.526 327.827 806.278 327.463 807.17 327.463ZM808.943 356.853L809.265 369.849C809.265 371.912 808.459 372.943 806.848 372.943C805.236 372.943 804.43 371.912 804.43 369.849L804.753 356.853L804.43 343.857C804.43 341.794 805.236 340.762 806.848 340.762C808.459 340.762 809.265 341.794 809.265 343.857L808.943 356.853Z" fill="black"/>
<path d="M846.955 340.506C851.295 340.506 854.862 342.084 857.656 345.239C860.449 348.393 861.846 352.264 861.846 356.839C861.846 361.414 860.428 365.309 857.591 368.5C854.755 371.704 851.177 373.293 846.858 373.293C842.539 373.293 838.983 371.716 836.189 368.561C833.396 365.406 831.999 361.535 831.999 356.96C831.999 352.386 833.407 348.491 836.221 345.299C839.036 342.108 842.614 340.506 846.955 340.506ZM854.25 365.624C856.302 363.185 857.333 360.261 857.333 356.839C857.333 353.417 856.345 350.505 854.379 348.114C852.413 345.724 849.963 344.523 847.041 344.523C844.118 344.523 841.636 345.736 839.574 348.175C837.522 350.614 836.49 353.538 836.49 356.96C836.49 360.382 837.479 363.294 839.445 365.685C841.411 368.075 843.861 369.277 846.783 369.277C849.716 369.277 852.198 368.063 854.25 365.624ZM853.401 327.692C853.401 329.464 852.434 331.235 850.511 333.019C848.588 334.803 847.051 335.677 845.902 335.677C844.763 335.677 844.183 335.24 844.183 334.378C844.183 333.881 844.527 333.262 845.204 332.522C845.88 331.782 846.375 331.211 846.697 330.823C847.008 330.435 847.395 329.707 847.836 328.651C848.276 327.595 848.749 326.782 849.233 326.212C849.716 325.629 850.339 325.35 851.102 325.35C851.865 325.35 852.434 325.593 852.821 326.066C853.208 326.527 853.401 327.073 853.401 327.692Z" fill="black"/>
<path d="M911.375 352.836L911.053 362.556C911.053 363.709 911.064 364.582 911.085 365.189C911.107 365.784 911.236 366.402 911.461 367.046C911.687 367.689 911.977 368.077 912.321 368.223C912.654 368.368 913.008 368.465 913.363 368.502C913.718 368.538 913.975 368.599 914.126 368.684C914.276 368.769 914.351 368.926 914.351 369.181C914.351 370.249 913.997 371.147 913.309 371.875C912.611 372.591 911.794 372.955 910.86 372.955C909.248 372.955 908.141 372.336 907.529 371.099C906.917 369.861 906.605 368.041 906.605 365.65L906.863 354.268C906.863 351.465 906.25 349.196 905.026 347.461C903.801 345.725 902.093 344.864 899.912 344.864C897.731 344.864 895.625 346.041 893.594 348.395C891.564 350.749 890.145 353.406 889.34 356.379L889.533 369.812C889.533 371.912 888.727 372.967 887.115 372.967C885.171 372.967 884.193 371.511 884.193 368.599C884.193 365.687 884.612 361.622 885.461 356.379C885.461 354.644 885.278 352.254 884.924 349.196C884.559 346.138 884.387 344.257 884.387 343.529C884.387 342.801 884.612 342.17 885.053 341.612C885.493 341.054 886.106 340.775 886.858 340.775C887.61 340.775 888.222 341.054 888.663 341.612C889.103 342.17 889.329 342.801 889.329 343.505C889.329 344.209 889.318 345.058 889.297 346.077C889.275 347.084 889.264 347.946 889.264 348.65C892.359 343.408 896.162 340.787 900.696 340.787C904.08 340.787 906.702 341.964 908.571 344.318C910.441 346.648 911.375 349.487 911.375 352.836Z" fill="black"/>
<path d="M993.61 368.325L999.196 368.022C1000.17 368.022 1000.95 368.24 1001.52 368.677C1002.09 369.114 1002.38 369.684 1002.38 370.376C1002.38 371.068 1002.08 371.65 1001.48 372.111C1000.89 372.56 1000.13 372.791 999.196 372.791L990.999 372.415L982.618 372.718C980.502 372.718 979.438 371.929 979.438 370.364C979.438 368.799 980.502 368.01 982.618 368.01C983.08 368.01 985.014 368.107 988.399 368.313C988.613 359.03 988.71 352.672 988.71 349.226C988.71 345.78 988.603 339.421 988.399 330.138C984.67 330.308 982.747 330.381 982.618 330.381C980.588 330.381 979.567 329.616 979.567 328.088C979.567 327.347 979.846 326.753 980.394 326.328C980.942 325.891 981.684 325.673 982.618 325.673L990.999 325.976C992.438 325.976 994.114 325.915 996.016 325.794C997.918 325.673 999.164 325.612 999.734 325.612C1000.3 325.612 1000.89 325.855 1001.52 326.328C1002.13 326.801 1002.44 327.396 1002.44 328.088C1002.44 328.779 1002.14 329.349 1001.55 329.786C1000.96 330.223 1000.34 330.442 999.68 330.442C999.024 330.442 997.004 330.345 993.62 330.138C993.405 339.627 993.298 346.046 993.298 349.383C993.298 352.72 993.395 359.042 993.61 368.325Z" fill="black"/>
<path d="M1051.4 352.836L1051.08 362.556C1051.08 363.709 1051.09 364.582 1051.11 365.189C1051.13 365.784 1051.26 366.402 1051.49 367.046C1051.71 367.689 1052 368.077 1052.35 368.223C1052.68 368.368 1053.03 368.465 1053.39 368.502C1053.74 368.538 1054 368.599 1054.15 368.684C1054.3 368.769 1054.38 368.926 1054.38 369.181C1054.38 370.249 1054.02 371.147 1053.33 371.875C1052.64 372.591 1051.82 372.955 1050.89 372.955C1049.27 372.955 1048.17 372.336 1047.55 371.099C1046.94 369.861 1046.63 368.041 1046.63 365.65L1046.89 354.268C1046.89 351.465 1046.28 349.196 1045.05 347.461C1043.83 345.725 1042.12 344.864 1039.94 344.864C1037.76 344.864 1035.65 346.041 1033.62 348.395C1031.59 350.749 1030.17 353.406 1029.37 356.379L1029.56 369.812C1029.56 371.912 1028.75 372.967 1027.14 372.967C1025.2 372.967 1024.22 371.511 1024.22 368.599C1024.22 365.687 1024.64 361.622 1025.49 356.379C1025.49 354.644 1025.3 352.254 1024.95 349.196C1024.58 346.138 1024.41 344.257 1024.41 343.529C1024.41 342.801 1024.64 342.17 1025.08 341.612C1025.52 341.054 1026.13 340.775 1026.88 340.775C1027.64 340.775 1028.25 341.054 1028.69 341.612C1029.13 342.17 1029.35 342.801 1029.35 343.505C1029.35 344.209 1029.34 345.058 1029.32 346.077C1029.3 347.084 1029.29 347.946 1029.29 348.65C1032.38 343.408 1036.19 340.787 1040.72 340.787C1044.11 340.787 1046.73 341.964 1048.6 344.318C1050.47 346.648 1051.4 349.487 1051.4 352.836Z" fill="black"/>
<path d="M1082.89 341.427L1089.05 341.305C1089.72 341.305 1090.29 341.475 1090.77 341.803C1091.23 342.13 1091.47 342.628 1091.47 343.283C1091.47 344.521 1090.66 345.14 1089.05 345.14L1082.89 345.018V349.168C1082.89 354.859 1082.96 359.653 1083.08 363.523C1083.21 367.406 1083.28 369.663 1083.28 370.294C1083.28 370.938 1083.05 371.544 1082.61 372.115C1082.17 372.697 1081.56 372.976 1080.81 372.976C1080.04 372.976 1079.44 372.685 1079 372.115C1078.56 371.532 1078.34 370.925 1078.34 370.294C1078.34 369.651 1078.36 368.365 1078.4 366.424C1078.62 360.611 1078.71 354.847 1078.71 349.156V345.006L1075.48 345.128C1073.87 345.128 1073.06 344.509 1073.06 343.271C1073.06 342.616 1073.3 342.118 1073.76 341.791C1074.22 341.463 1074.8 341.293 1075.48 341.293L1078.66 341.415V336.16C1078.66 332.326 1079.43 329.559 1080.98 327.872C1082.53 326.186 1084.31 325.336 1086.34 325.336C1088.37 325.336 1090.06 325.713 1091.39 326.477C1092.72 327.242 1093.39 328.054 1093.39 328.916C1093.39 330.275 1092.8 330.955 1091.6 330.955C1091.06 330.955 1090.34 330.712 1089.45 330.214C1088.55 329.717 1087.68 329.474 1086.85 329.474C1084.22 329.474 1082.9 331.889 1082.9 336.719V341.427H1082.89Z" fill="black"/>
<path d="M1137.32 357.35C1137.32 360.444 1137.56 362.968 1138.02 364.934C1138.48 366.9 1139.04 367.992 1139.67 368.247C1139.93 368.368 1140.23 368.453 1140.6 368.489C1140.95 368.526 1141.21 368.587 1141.36 368.672C1141.51 368.756 1141.59 368.914 1141.59 369.169C1141.59 370.285 1141.27 371.195 1140.66 371.887C1140.05 372.591 1139.13 372.943 1137.9 372.943C1136.68 372.943 1135.72 372.178 1135.04 370.649C1134.37 369.121 1134.02 367.167 1134.02 364.776C1132.96 367.082 1131.41 369.023 1129.36 370.589C1127.31 372.154 1125 372.943 1122.44 372.943C1119.88 372.943 1117.67 372.118 1115.8 370.467C1112.42 367.458 1110.72 363.15 1110.72 357.532C1110.72 353.03 1112.05 349.111 1114.71 345.774C1117.38 342.437 1120.81 340.762 1125.01 340.762C1128.19 340.762 1130.94 341.818 1133.26 343.917C1133.26 341.818 1134.06 340.762 1135.68 340.762C1137.62 340.762 1138.6 342.218 1138.6 345.131C1138.59 348.043 1138.17 352.108 1137.32 357.35ZM1133.64 357.908L1133.31 348.383C1130.78 345.992 1128.11 344.791 1125.34 344.791C1122.57 344.791 1120.18 346.004 1118.2 348.443C1116.21 350.882 1115.21 353.795 1115.21 357.204C1115.21 360.614 1115.85 363.417 1117.14 365.626C1118.43 367.834 1120.27 368.938 1122.63 368.938C1125.01 368.938 1127.17 367.907 1129.11 365.844C1131.07 363.769 1132.57 361.124 1133.64 357.908Z" fill="black"/>
<path d="M1190.53 352.836L1190.21 362.556C1190.21 363.709 1190.22 364.582 1190.24 365.189C1190.27 365.784 1190.4 366.402 1190.62 367.046C1190.85 367.689 1191.14 368.077 1191.48 368.223C1191.81 368.368 1192.17 368.465 1192.52 368.502C1192.88 368.538 1193.13 368.599 1193.29 368.684C1193.44 368.769 1193.51 368.926 1193.51 369.181C1193.51 370.249 1193.16 371.147 1192.47 371.875C1191.77 372.591 1190.95 372.955 1190.02 372.955C1188.41 372.955 1187.3 372.336 1186.69 371.099C1186.08 369.861 1185.76 368.041 1185.76 365.65L1186.02 354.268C1186.02 351.465 1185.41 349.196 1184.19 347.461C1182.96 345.725 1181.25 344.864 1179.07 344.864C1176.89 344.864 1174.78 346.041 1172.75 348.395C1170.72 350.749 1169.3 353.406 1168.5 356.379L1168.69 369.812C1168.69 371.912 1167.89 372.967 1166.28 372.967C1164.33 372.967 1163.35 371.511 1163.35 368.599C1163.35 365.687 1163.77 361.622 1164.62 356.379C1164.62 354.644 1164.44 352.254 1164.08 349.196C1163.72 346.138 1163.55 344.257 1163.55 343.529C1163.55 342.801 1163.77 342.17 1164.21 341.612C1164.65 341.054 1165.27 340.775 1166.02 340.775C1166.77 340.775 1167.38 341.054 1167.82 341.612C1168.26 342.17 1168.49 342.801 1168.49 343.505C1168.49 344.209 1168.48 345.058 1168.46 346.077C1168.43 347.084 1168.42 347.946 1168.42 348.65C1171.52 343.408 1175.32 340.787 1179.86 340.787C1183.24 340.787 1185.86 341.964 1187.73 344.318C1189.6 346.648 1190.53 349.487 1190.53 352.836Z" fill="black"/>
<path d="M1222.54 345.155L1222.41 359.826C1222.41 363.575 1222.57 366.038 1222.88 367.191C1223.21 368.344 1224.03 368.926 1225.39 368.926C1226.02 368.926 1226.8 368.708 1227.71 368.271C1228.62 367.834 1229.22 367.616 1229.51 367.616C1230.41 367.616 1230.85 368.041 1230.85 368.89C1230.85 369.739 1230.06 370.625 1228.49 371.548C1226.92 372.482 1225.38 372.943 1223.85 372.943C1220.17 372.943 1218.33 370.31 1218.33 365.019L1218.27 345.155C1216.87 345.276 1215.89 345.337 1215.34 345.337C1213.23 345.337 1212.16 344.658 1212.16 343.298C1212.16 341.939 1213.22 341.26 1215.34 341.26C1215.51 341.26 1216.44 341.296 1218.14 341.381L1218.01 334.452C1218.01 332.39 1218.81 331.358 1220.42 331.358C1222.04 331.358 1222.84 332.39 1222.84 334.452L1222.65 341.442L1227.79 341.199C1229.91 341.199 1230.98 341.903 1230.98 343.298C1230.98 344.621 1229.91 345.276 1227.79 345.276C1227.43 345.289 1225.67 345.24 1222.54 345.155Z" fill="black"/>
<path d="M1254.86 327.463C1255.75 327.463 1256.41 327.742 1256.83 328.3C1257.24 328.858 1257.46 329.562 1257.46 330.4C1257.46 331.249 1257.16 332.086 1256.57 332.936C1255.98 333.785 1255.23 334.21 1254.34 334.21C1253.45 334.21 1252.79 333.919 1252.34 333.348C1251.9 332.766 1251.68 332.013 1251.68 331.055C1251.68 330.096 1251.99 329.271 1252.6 328.543C1253.22 327.827 1253.97 327.463 1254.86 327.463ZM1256.64 356.853L1256.96 369.849C1256.96 371.912 1256.16 372.943 1254.55 372.943C1252.94 372.943 1252.13 371.912 1252.13 369.849L1252.45 356.853L1252.13 343.857C1252.13 341.794 1252.94 340.762 1254.55 340.762C1256.16 340.762 1256.96 341.794 1256.96 343.857L1256.64 356.853Z" fill="black"/>
<path d="M1285.97 349.17L1286.3 369.896C1286.3 371.959 1285.49 372.99 1283.88 372.99C1282.27 372.99 1281.46 371.959 1281.46 369.896L1281.78 349.17L1281.46 328.445C1281.46 326.382 1282.27 325.35 1283.88 325.35C1285.49 325.35 1286.3 326.382 1286.3 328.445L1285.97 349.17Z" fill="black"/>
<path d="M728.976 62.3458L810.092 1.80438L809.426 55.6168L769.534 82.523V232.835L728.976 268.165" fill="#009ACB"/>
<path d="M465.212 298.072V91.7143L537.197 30.9037V36.905" fill="#E63B00"/>
<path d="M465.212 246.233L537.197 194.713V246.233L465.212 301.132V246.233Z" fill="#E63B00"/>
<path d="M469.51 182.033L541.494 93.708V182.033L469.51 276.14V182.033Z" fill="#E63B00"/>
<path d="M540.42 26.9162H531.825V35.8882H540.42V26.9162Z" fill="white"/>
<path d="M302.979 3.89786V201.961L222.023 270.677V64.5289L302.979 3.89786Z" fill="#ECBE1F"/>
<path d="M804.72 78.7545H764.968V81.7453H804.72V78.7545Z" fill="#009ACB"/>
<path d="M763.131 78.5354V78.5453C763.12 78.7547 763.174 78.9441 763.27 79.1235C763.335 79.3129 763.442 79.4724 763.603 79.602C763.754 79.7515 763.926 79.8512 764.119 79.911C764.312 80.0007 764.517 80.0506 764.742 80.0406C764.882 80.0207 765.032 80.0007 765.172 79.9908C765.441 79.921 765.677 79.7914 765.881 79.602C765.967 79.5023 766.053 79.4026 766.128 79.3029C766.279 79.0737 766.343 78.8145 766.343 78.5453V78.5354C766.354 78.326 766.3 78.1366 766.203 77.9572C766.139 77.7678 766.031 77.6083 765.87 77.4787C765.72 77.3292 765.548 77.2295 765.355 77.1697C765.161 77.08 764.957 77.0301 764.732 77.0401C764.592 77.06 764.441 77.0799 764.302 77.0899C764.033 77.1597 763.797 77.2893 763.593 77.4787C763.507 77.5784 763.421 77.6781 763.346 77.7777C763.206 78.017 763.131 78.2662 763.131 78.5354Z" fill="#009ACB"/>
<path d="M764.613 80.6088C764.753 80.6487 764.893 80.6786 765.032 80.7085C765.312 80.7584 765.591 80.7883 765.87 80.8082C766.096 80.8182 766.3 80.7683 766.494 80.6786C766.698 80.6188 766.87 80.5191 767.009 80.3696C767.17 80.23 767.278 80.0706 767.342 79.8911C767.439 79.7117 767.493 79.5223 767.482 79.3129C767.46 79.1834 767.439 79.0438 767.428 78.9142C767.353 78.665 767.213 78.4457 767.009 78.2563C766.902 78.1765 766.794 78.0968 766.687 78.027C766.44 77.8874 766.16 77.8276 765.87 77.8276C765.774 77.8276 765.677 77.8177 765.591 77.8077C765.731 77.8276 765.881 77.8476 766.021 77.8575C765.838 77.8376 765.645 77.7977 765.473 77.7379C765.258 77.6781 765.043 77.6681 764.828 77.708C764.613 77.718 764.409 77.7778 764.227 77.8874C764.044 77.9772 763.883 78.1067 763.775 78.2762C763.636 78.4158 763.539 78.5852 763.485 78.7846C763.464 78.9142 763.442 79.0538 763.431 79.1833C763.431 79.4525 763.507 79.7017 763.646 79.941C763.732 80.0407 763.818 80.1403 763.893 80.24C764.098 80.4095 764.334 80.5391 764.613 80.6088Z" fill="#009ACB"/>
<path d="M767.203 80.9478C767.407 80.9578 767.6 80.9578 767.804 80.9279C768.137 80.888 768.471 80.8581 768.793 80.7584C769.008 80.7086 769.19 80.6188 769.341 80.4892C769.513 80.3796 769.652 80.24 769.76 80.0705C769.878 79.9011 769.942 79.7117 769.953 79.5123C769.996 79.3129 769.996 79.1135 769.921 78.9141C769.867 78.7945 769.813 78.6748 769.76 78.5552C769.62 78.3259 769.427 78.1565 769.18 78.0169C769.051 77.9671 768.922 77.9172 768.793 77.8673C768.503 77.7976 768.223 77.7976 767.933 77.8673C767.761 77.9172 767.579 77.9571 767.407 77.977C767.547 77.9571 767.697 77.9372 767.837 77.9272C767.632 77.9571 767.418 77.9571 767.203 77.9471C766.977 77.9371 766.773 77.987 766.58 78.0767C766.375 78.1365 766.204 78.2362 766.064 78.3858C765.903 78.5253 765.795 78.6848 765.731 78.8643C765.634 79.0437 765.58 79.2331 765.591 79.4425C765.613 79.5721 765.634 79.7116 765.645 79.8412C765.72 80.0905 765.86 80.3098 766.064 80.4992C766.171 80.579 766.279 80.6587 766.386 80.7285C766.644 80.8781 766.913 80.9478 767.203 80.9478Z" fill="#009ACB"/>
<path d="M763.893 79.7516L809.555 45.1693L805.795 42.8665L753.15 76.7609L759.596 83.7392L763.893 79.7516Z" fill="#009ACB"/>
<path d="M986.379 80.0906C986.379 80.0906 986.379 288.502 986.379 285.81C986.379 283.119 1012.52 260.26 1012.52 258.914C1012.52 257.568 1012.52 57.8199 1012.52 57.8199L986.379 80.0906Z" fill="#8FB816"/>
<path d="M505.717 62.6249L586.801 1.99377H780.364L708.433 62.6249" fill="#ECBE1F"/>
<path d="M526.345 62.6249L607.43 1.99377H800.982L729.051 62.6249" fill="#ECBE1F"/>
<path d="M1080.84 19.4594L987.26 80.0606H763.894L846.901 19.4594" fill="#E98909"/>
<path d="M1211.01 61.628L1282.94 0H1089.39L1008.31 61.628" fill="#8DB815"/>
<path d="M445.938 93.5286L517.868 32.8975H324.306L243.232 93.5286" fill="#ECBE1F"/>
<path d="M545.792 32.8975L465.309 93.7081H273.186L344.579 32.8975" fill="#ECBE1F"/>
<path d="M19.5002 64.6187L100.585 3.98758H294.137L222.206 64.6187" fill="#8FB816"/>
<path d="M100.359 3.98758L28.4285 64.7982H221.98L303.065 3.98758" fill="#8FB816"/>
<path d="M607.623 1.99377L535.692 62.8043H729.255L810.34 1.99377" fill="#ECBE1F"/>
<path d="M754.224 241.248V249.423L727.364 268.832L728.482 237.161L740.794 227.96" fill="#009ACB"/>
<path d="M1013.15 258.196V266.37L986.293 285.78L987.41 254.108L999.723 244.907" fill="#8DB815"/>
<path d="M769.266 230.283V238.457L742.406 257.867L743.523 226.195L755.836 216.994" fill="#009ACB"/>
<path d="M222.249 64.7982L300.83 3.98758H89.3788L0.805847 64.7982" fill="#8FB816"/>
<path d="M1232.05 61.3988H1009.88V268.165H1232.05V61.3988Z" fill="#ECBE1F"/>
<path d="M1109.53 0L1037.6 60.8106H1231.15L1312.23 0" fill="#8DB815"/>
<path d="M1230.36 62.8044L1308.61 0H1098.06L1009.86 62.8044" fill="#8DB815"/>
<path d="M986.433 80.0606C986.433 80.0606 986.433 288.212 986.433 285.53C986.433 282.849 1012.57 260.02 1012.57 258.674C1012.57 257.328 1012.57 57.8299 1012.57 57.8299L986.433 80.0606Z" fill="#8FB816"/>
<path d="M465.212 93.7081H243.962V301.571H465.212V93.7081Z" fill="#E98909"/>
<path d="M728.965 62.4355H506.791V268.584H728.965V62.4355Z" fill="#8FB816"/>
<path d="M986.379 79.6618H764.205V285.809H986.379V79.6618Z" fill="#E63B00"/>
<path d="M222.818 64.5988H0.644653V270.747H222.818V64.5988Z" fill="#009ACB"/>
<path d="M127.681 169.651V204.991C127.681 210.574 126.316 214.761 123.587 217.552C120.859 220.344 117.259 221.739 112.779 221.739C108.439 221.739 104.925 220.344 102.239 217.552C99.5426 214.761 98.1996 210.574 98.1996 204.991V162.643C98.1996 155.964 97.9525 150.77 97.469 147.062C96.9748 143.363 95.6533 140.333 93.483 137.96C91.3127 135.588 87.8854 134.411 83.201 134.411C73.8216 134.411 67.6546 137.402 64.6785 143.363C61.7024 149.335 60.2198 157.898 60.2198 169.063V204.991C60.2198 210.504 58.8768 214.681 56.1801 217.503C53.4833 220.324 49.9378 221.739 45.5328 221.739C41.1923 221.739 37.6468 220.324 34.8856 217.503C32.1244 214.681 30.7384 210.514 30.7384 204.991V128.958C30.7384 123.964 31.9847 120.166 34.4665 117.564C36.9484 114.972 40.2146 113.666 44.2758 113.666C48.1973 113.666 51.4635 114.882 54.085 117.314C56.7065 119.747 58.0173 123.116 58.0173 127.403V129.935C62.981 124.422 68.2992 120.365 73.9613 117.763C79.6233 115.171 85.9193 113.865 92.8491 113.865C100.048 113.865 106.247 115.191 111.425 117.853C116.604 120.514 120.869 124.542 124.221 129.925C129.045 124.472 134.224 120.435 139.746 117.803C145.269 115.171 151.393 113.855 158.108 113.855C165.94 113.855 172.687 115.281 178.36 118.142C184.022 121.003 188.255 125.09 191.059 130.404C193.509 135.209 194.734 142.765 194.734 153.083V204.972C194.734 210.554 193.369 214.741 190.64 217.532C187.911 220.324 184.312 221.719 179.832 221.719C175.491 221.719 171.946 220.304 169.185 217.483C166.424 214.661 165.038 210.494 165.038 204.972V160.301C165.038 154.588 164.78 150.013 164.253 146.573C163.727 143.134 162.309 140.243 159.999 137.91C157.689 135.578 154.197 134.401 149.502 134.401C145.72 134.401 142.142 135.438 138.747 137.522C135.352 139.595 132.709 142.386 130.829 145.895C128.734 150.372 127.681 158.297 127.681 169.651Z" fill="white" stroke="white" stroke-miterlimit="10"/>
<path d="M354.098 156.951C350.306 156.951 347.072 155.874 344.375 153.711C341.689 151.558 340.335 148.497 340.335 144.56C340.335 140.981 341.711 138.04 344.472 135.727C347.233 133.414 350.435 132.258 354.088 132.258C357.612 132.258 360.727 133.305 363.456 135.398C366.185 137.492 367.539 140.552 367.539 144.55C367.539 148.438 366.207 151.468 363.553 153.661C360.91 155.855 357.751 156.951 354.098 156.951ZM367.55 183.03V256.003C367.55 261.057 366.25 264.885 363.661 267.467C361.071 270.049 357.784 271.355 353.798 271.355C349.812 271.355 346.567 270.029 344.074 267.377C341.582 264.725 340.335 260.937 340.335 256.003V183.768C340.335 178.773 341.582 175.015 344.074 172.483C346.567 169.951 349.801 168.695 353.798 168.695C357.794 168.695 361.071 169.961 363.661 172.483C366.261 175.015 367.55 178.524 367.55 183.03Z" fill="white" stroke="white" stroke-miterlimit="10"/>
<path d="M666.886 190.816C666.886 194.125 665.823 197.664 663.685 201.423C661.547 205.191 658.302 208.77 653.929 212.179C649.557 215.588 644.045 218.33 637.405 220.403C630.755 222.477 623.277 223.524 614.95 223.524C597.255 223.524 583.438 218.739 573.511 209.168C563.573 199.598 558.609 186.758 558.609 170.668C558.609 159.762 560.876 150.122 565.432 141.758C569.976 133.384 576.552 126.915 585.158 122.339C593.763 117.763 604.045 115.48 616.003 115.48C623.417 115.48 630.217 116.487 636.406 118.501C642.594 120.515 647.837 123.106 652.146 126.287C656.443 129.467 659.731 132.856 662.009 136.465C664.276 140.064 665.415 143.423 665.415 146.543C665.415 149.724 664.136 152.415 661.59 154.628C659.033 156.831 655.938 157.938 652.307 157.938C649.933 157.938 647.956 157.37 646.376 156.233C644.808 155.097 643.035 153.263 641.08 150.73C637.577 145.796 633.924 142.097 630.11 139.635C626.296 137.173 621.45 135.937 615.574 135.937C607.107 135.937 600.285 139.007 595.117 145.138C589.939 151.269 587.349 159.663 587.349 170.299C587.349 175.294 588.015 179.89 589.348 184.077C590.68 188.264 592.603 191.832 595.117 194.783C597.631 197.734 600.682 199.977 604.249 201.502C607.816 203.028 611.738 203.785 616.003 203.785C621.74 203.785 626.65 202.549 630.744 200.087C634.837 197.624 638.458 193.856 641.606 188.792C643.357 185.811 645.237 183.468 647.268 181.784C649.299 180.099 651.78 179.252 654.714 179.252C658.205 179.252 661.117 180.488 663.427 182.95C665.737 185.402 666.886 188.034 666.886 190.816Z" fill="white" stroke="white" stroke-miterlimit="10"/>
<path d="M932.09 185.333C932.09 193.248 930.758 200.555 928.104 207.234C925.45 213.924 921.604 219.666 916.565 224.471C911.526 229.276 905.509 232.954 898.515 235.516C891.521 238.078 883.656 239.364 874.911 239.364C866.24 239.364 858.44 238.068 851.51 235.466C844.581 232.865 838.585 229.156 833.514 224.321C828.443 219.486 824.597 213.774 821.975 207.185C819.354 200.595 818.043 193.308 818.043 185.333C818.043 177.288 819.375 169.921 822.029 163.232C824.683 156.552 828.497 150.84 833.46 146.095C838.424 141.36 844.441 137.711 851.51 135.139C858.58 132.577 866.369 131.291 874.911 131.291C883.581 131.291 891.456 132.587 898.515 135.189C905.585 137.781 911.633 141.489 916.661 146.284C921.7 151.089 925.525 156.802 928.147 163.421C930.768 170.04 932.09 177.348 932.09 185.333ZM903.339 185.333C903.339 174.496 900.771 166.053 895.625 160.022C890.479 153.99 883.581 150.97 874.9 150.97C869.302 150.97 864.371 152.316 860.105 155.007C855.84 157.699 852.552 161.676 850.243 166.93C847.933 172.184 846.783 178.324 846.783 185.333C846.783 192.281 847.922 198.342 850.189 203.536C852.466 208.73 855.711 212.707 859.944 215.459C864.177 218.22 869.163 219.596 874.9 219.596C883.57 219.596 890.479 216.565 895.625 210.494C900.771 204.433 903.339 196.039 903.339 185.333Z" fill="white" stroke="white" stroke-miterlimit="10"/>
<path d="M1172.66 185.283C1172.66 192.62 1170.73 198.9 1166.89 204.124C1163.04 209.348 1157.36 213.306 1149.84 215.997C1142.32 218.689 1133.17 220.035 1122.4 220.035C1112.11 220.035 1103.3 218.579 1095.96 215.658C1088.61 212.737 1083.19 209.089 1079.69 204.702C1076.19 200.326 1074.45 195.93 1074.45 191.513C1074.45 188.592 1075.56 186.09 1077.81 184.017C1080.04 181.943 1082.88 180.897 1086.31 180.897C1089.32 180.897 1091.63 181.574 1093.24 182.94C1094.85 184.306 1096.39 186.22 1097.86 188.682C1100.79 193.418 1104.31 196.956 1108.4 199.289C1112.48 201.622 1118.07 202.798 1125.14 202.798C1130.87 202.798 1135.58 201.612 1139.24 199.249C1142.92 196.877 1144.75 194.175 1144.75 191.125C1144.75 186.449 1142.85 183.04 1139.04 180.906C1135.23 178.763 1128.95 176.719 1120.21 174.776C1110.34 172.503 1102.32 170.12 1096.13 167.618C1089.94 165.116 1084.99 161.826 1081.28 157.739C1077.57 153.651 1075.71 148.617 1075.71 142.646C1075.71 137.322 1077.42 132.298 1080.86 127.553C1084.29 122.817 1089.34 119.039 1096.02 116.208C1102.7 113.387 1110.76 111.971 1120.21 111.971C1127.62 111.971 1134.28 112.689 1140.19 114.114C1146.1 115.54 1151.03 117.454 1154.98 119.857C1158.94 122.259 1161.95 124.921 1164.01 127.842C1166.07 130.763 1167.1 133.624 1167.1 136.405C1167.1 139.456 1166 141.958 1163.79 143.902C1161.59 145.846 1158.46 146.823 1154.4 146.823C1151.47 146.823 1148.97 146.045 1146.9 144.49C1144.84 142.935 1142.48 140.592 1139.82 137.482C1137.65 134.89 1135.11 132.806 1132.16 131.251C1129.22 129.696 1125.23 128.918 1120.21 128.918C1115.03 128.918 1110.73 129.945 1107.3 131.989C1103.87 134.032 1102.16 136.585 1102.16 139.635C1102.16 142.426 1103.41 144.709 1105.94 146.494C1108.45 148.278 1111.85 149.754 1116.11 150.92C1120.38 152.086 1126.25 153.512 1133.74 155.207C1142.63 157.22 1149.88 159.623 1155.51 162.414C1161.14 165.205 1165.4 168.495 1168.31 172.293C1171.21 176.081 1172.66 180.418 1172.66 185.283Z" fill="white" stroke="white" stroke-miterlimit="10"/>
<path d="M1310.97 0.777588L1311.14 214.074L1232.11 268.584L1232.1 267.547L1230.79 61.2992" fill="#009ACB"/>
<path d="M1230.77 61.4486H1008.6V268.165H1230.77V61.4486Z" fill="#ECBE1F"/>
<path d="M1167.05 187.007C1167.05 194.345 1165.13 200.625 1161.28 205.849C1157.43 211.072 1151.75 215.03 1144.23 217.722C1136.71 220.413 1127.56 221.759 1116.79 221.759C1106.51 221.759 1097.7 220.304 1090.35 217.383C1083 214.462 1077.58 210.813 1074.08 206.427C1070.58 202.051 1068.84 197.654 1068.84 193.238C1068.84 190.317 1069.96 187.815 1072.2 185.741C1074.44 183.668 1077.27 182.621 1080.7 182.621C1083.71 182.621 1086.02 183.299 1087.63 184.665C1089.24 186.03 1090.78 187.945 1092.25 190.407C1095.18 195.142 1098.71 198.681 1102.79 201.014C1106.87 203.347 1112.46 204.523 1119.53 204.523C1125.27 204.523 1129.97 203.337 1133.64 200.974C1137.31 198.601 1139.15 195.9 1139.15 192.849C1139.15 188.174 1137.25 184.764 1133.43 182.631C1129.62 180.488 1123.34 178.444 1114.6 176.5C1104.73 174.227 1096.71 171.845 1090.52 169.342C1084.33 166.84 1079.38 163.55 1075.67 159.463C1071.96 155.376 1070.11 150.342 1070.11 144.37C1070.11 139.047 1071.81 134.022 1075.25 129.277C1078.68 124.542 1083.73 120.764 1090.41 117.933C1097.1 115.111 1105.15 113.696 1114.6 113.696C1122.01 113.696 1128.67 114.414 1134.58 115.839C1140.49 117.265 1145.42 119.179 1149.38 121.581C1153.33 123.984 1156.34 126.645 1158.4 129.566C1160.46 132.487 1161.49 135.348 1161.49 138.13C1161.49 141.18 1160.39 143.682 1158.19 145.626C1155.98 147.57 1152.86 148.547 1148.79 148.547C1145.86 148.547 1143.36 147.77 1141.3 146.214C1139.23 144.659 1136.87 142.317 1134.22 139.206C1132.05 136.614 1129.5 134.531 1126.56 132.976C1123.61 131.421 1119.63 130.643 1114.6 130.643C1109.42 130.643 1105.12 131.67 1101.69 133.713C1098.27 135.757 1096.55 138.309 1096.55 141.36C1096.55 144.151 1097.8 146.434 1100.33 148.218C1102.84 150.003 1106.24 151.478 1110.5 152.644C1114.77 153.811 1120.65 155.236 1128.13 156.931C1137.02 158.945 1144.27 161.347 1149.9 164.139C1155.53 166.93 1159.8 170.22 1162.7 174.018C1165.6 177.816 1167.05 182.143 1167.05 187.007Z" fill="white" stroke="white" stroke-miterlimit="10"/>
<path d="M1310.76 209.348L1232.33 267.168L1310.76 209.348Z" fill="#009ACB"/>
<path d="M1310.76 214.332L1232.33 267.168L1310.76 209.348V214.332Z" fill="#009ACB"/>
</svg>
