<svg width="549" height="359" viewBox="0 0 549 359" fill="none" xmlns="http://www.w3.org/2000/svg">
<path d="M314.313 0.900385C292.013 2.90039 279.413 5.90039 265.913 12.5004C257.713 16.4004 255.113 18.3004 247.313 26.3004C234.913 38.9004 233.913 39.1004 210.313 35.8004C195.613 33.8004 163.513 35.0004 144.313 38.3004C124.713 41.7004 103.013 50.6004 90.6126 60.3004C86.4126 63.6004 84.6126 65.7004 83.9126 68.5004C83.3126 70.6004 81.3126 75.3004 79.3126 79.0004C77.4126 82.8004 76.2126 85.8004 76.6126 85.9004C79.0126 86.2004 71.3126 87.6004 66.6126 87.7004C59.9126 87.8004 49.1126 90.0004 41.2126 92.8004C27.5126 97.6004 15.2126 107.9 10.0126 118.9C8.21263 122.6 6.81263 126.5 6.81263 127.6C6.81263 128.7 6.21263 130.3 5.51263 131C3.51263 133 0.912628 141.4 0.212628 148.2C-1.18737 162.6 4.31263 176.2 17.1126 189.5C21.7126 194.3 26.3126 199.8 27.2126 201.5C28.1126 203.4 29.3126 209.4 29.9126 215.5C31.6126 233.9 37.3126 246.8 49.1126 259.4C59.5126 270.6 71.0126 277.5 87.4126 282.4C95.5126 284.8 97.7126 285 112.013 284.9C128.213 284.7 132.713 285.5 135.613 289.1C136.313 289.9 138.613 295 140.613 300.5C142.713 305.9 146.113 312.9 148.213 316.1C153.513 324.1 163.613 332.9 172.113 337.2C188.313 345.2 202.813 346.2 222.113 340.8C235.313 337.1 234.313 337 248.513 343.2C262.813 349.6 274.713 349 288.813 341.1C298.013 335.9 301.613 336.1 314.313 342.5C336.113 353.5 352.813 357.7 378.913 358.5C398.313 359.1 406.913 358.3 423.713 354.2C457.613 345.9 484.713 326.1 495.713 301.6C498.413 295.7 499.213 292.6 501.913 278.5C502.713 274.1 503.813 271.9 506.413 269.3C508.313 267.4 510.313 265.8 510.913 265.8C511.513 265.8 511.713 265.4 511.313 264.9C510.813 264 513.313 262.7 515.213 262.9C515.713 262.9 516.413 262.6 516.713 262.1C518.113 260.2 522.113 257.4 521.413 258.8C521.013 259.6 521.613 259.2 522.813 257.8C524.013 256.4 524.613 256 524.213 256.8C523.113 259 527.313 255.4 533.513 248.8C545.613 236.1 550.913 218.5 547.813 201.7C546.313 193.5 539.713 181 533.613 174.7C527.713 168.6 518.913 161.5 520.213 163.8C520.713 164.6 519.813 164.1 518.313 162.6C513.913 158.5 514.113 153.9 518.613 148.4C523.213 142.8 525.613 136.4 526.513 127.6C527.013 121.7 526.813 120.3 524.513 115.5C522.013 110.6 514.213 101.9 507.513 96.8004C506.013 95.6004 503.813 92.8004 502.713 90.6004C500.813 86.8004 500.713 86.0004 501.813 78.4004C502.913 71.3004 502.813 69.4004 501.413 64.6004C499.713 58.7004 495.113 51.9004 489.513 46.8004C486.213 43.8004 478.113 39.0004 475.113 38.3004C474.113 38.0004 470.713 36.9004 467.513 35.8004C464.313 34.6004 457.213 33.0004 451.813 32.1004C446.313 31.2004 442.013 30.2004 442.313 29.9004C442.513 29.5004 438.513 26.5004 433.513 23.0004C424.313 16.8004 409.613 9.70039 405.313 9.40039C404.013 9.40039 403.213 8.90039 403.613 8.40039C403.913 7.90039 403.413 7.70039 402.513 8.10039C401.613 8.40039 398.913 8.00039 396.613 7.20039C380.213 1.30039 342.013 -1.59961 314.313 0.900385Z" fill="black"/>
</svg>
