<?xml version="1.0" encoding="utf-8"?>
<!-- Generator: Adobe Illustrator 24.0.2, SVG Export Plug-In . SVG Version: 6.00 Build 0)  -->
<svg version="1.1" xmlns="http://www.w3.org/2000/svg" xmlns:xlink="http://www.w3.org/1999/xlink" x="0px" y="0px"
	 viewBox="0 0 1920 1080" enable-background="new 0 0 1920 1080" xml:space="preserve">
<g id="Capa_1">
	<g>
		<g>
			<path fill="#FFFFFF" d="M813.32,984.02c1.93,0,1.93-3,0-3C811.39,981.02,811.38,984.02,813.32,984.02L813.32,984.02z"/>
		</g>
	</g>
	<g>
	</g>
	<g>
		<path d="M411.34,764.5c0,0.8-1.04,1.69-3.12,2.67c-2.08,0.98-4.51,1.47-7.31,1.47c-4.07,0-7.44-1.42-10.12-4.27
			c-2.68-2.85-4.01-6.32-4.01-10.43s1.35-7.57,4.06-10.41c2.7-2.83,6.09-4.25,10.16-4.25c2.41,0,4.58,0.39,6.5,1.17
			c1.92,0.78,2.88,1.66,2.88,2.63c0,0.4-0.14,0.71-0.41,0.94c-0.28,0.23-0.65,0.34-1.13,0.34s-1.05-0.2-1.7-0.6
			c-0.65-0.4-1.48-0.81-2.49-1.22c-1-0.41-2.22-0.62-3.64-0.62c-3.11,0-5.67,1.19-7.68,3.56c-2.01,2.37-3.01,5.17-3.01,8.39
			s1,6.05,3.01,8.49c2.01,2.43,4.55,3.65,7.63,3.65c1.42,0,2.71-0.13,3.86-0.39c1.15-0.26,2.01-0.55,2.6-0.85
			c0.58-0.3,1.12-0.58,1.61-0.85c0.49-0.26,0.87-0.39,1.13-0.39C410.95,763.52,411.34,763.85,411.34,764.5z"/>
		<path d="M447.22,748.69c2.34,0,4.25,0.56,5.71,1.69c1.47,1.13,2.2,2.6,2.2,4.4s-0.91,3.18-2.73,4.12
			c-1.82,0.94-4.05,1.41-6.7,1.41c-1.51,0-3.36-0.19-5.54-0.57c0.17,1.76,0.94,3.27,2.29,4.54c1.35,1.27,2.86,1.9,4.51,1.9
			c0.99,0,1.9-0.12,2.75-0.36c0.84-0.24,1.48-0.5,1.92-0.77c1.16-0.78,1.93-1.17,2.29-1.17c0.36,0,0.65,0.09,0.87,0.28
			s0.33,0.42,0.33,0.7c0,0.7-0.84,1.51-2.51,2.41c-1.67,0.9-3.48,1.35-5.43,1.35c-3.02,0-5.42-0.92-7.2-2.75
			c-1.77-1.83-2.73-4.04-2.88-6.63c-1.54-0.4-2.31-1.05-2.31-1.96c0-0.38,0.12-0.67,0.37-0.88s0.55-0.32,0.89-0.32
			c0.35,0,0.79,0.11,1.31,0.34c0.64-2.26,1.85-4.12,3.64-5.57C442.81,749.42,444.88,748.69,447.22,748.69z M445.56,757.95
			c1.96,0,3.53-0.29,4.71-0.87s1.77-1.35,1.77-2.33c0-0.98-0.39-1.83-1.16-2.54c-0.77-0.71-1.87-1.07-3.29-1.07
			c-1.92,0-3.53,0.62-4.84,1.86s-2.15,2.69-2.53,4.35C441.81,757.75,443.6,757.95,445.56,757.95z"/>
		<path d="M499.67,756.22l-0.22,5.91c0,0.7,0.01,1.24,0.02,1.6c0.01,0.36,0.1,0.74,0.26,1.13c0.16,0.39,0.36,0.63,0.59,0.71
			c0.23,0.09,0.47,0.14,0.72,0.17c0.25,0.03,0.42,0.06,0.52,0.11c0.1,0.05,0.15,0.15,0.15,0.3c0,0.65-0.24,1.2-0.72,1.64
			c-0.48,0.44-1.04,0.66-1.68,0.66c-1.11,0-1.87-0.38-2.29-1.13c-0.42-0.75-0.63-1.86-0.63-3.31l0.17-6.93
			c0-1.71-0.42-3.09-1.26-4.14c-0.84-1.05-2.01-1.58-3.51-1.58c-1.5,0-2.94,0.71-4.34,2.15c-1.4,1.43-2.37,3.05-2.92,4.85l0.13,8.17
			c0,1.28-0.55,1.92-1.66,1.92c-1.34,0-2.01-0.88-2.01-2.65c0-1.77,0.29-4.25,0.87-7.43c0-1.05-0.12-2.51-0.37-4.37
			c-0.25-1.86-0.37-3-0.37-3.44c0-0.44,0.15-0.83,0.46-1.17c0.31-0.34,0.72-0.51,1.24-0.51s0.94,0.17,1.24,0.51
			c0.31,0.34,0.46,0.72,0.46,1.15s-0.01,0.95-0.02,1.56c-0.01,0.62-0.02,1.14-0.02,1.56c2.12-3.19,4.74-4.78,7.85-4.78
			c2.33,0,4.13,0.71,5.41,2.15C499.03,752.46,499.67,754.19,499.67,756.22z"/>
		<path d="M532.04,751.55l-0.09,8.92c0,2.28,0.11,3.78,0.33,4.48c0.22,0.7,0.79,1.05,1.72,1.05c0.44,0,0.97-0.13,1.59-0.39
			c0.63-0.26,1.04-0.4,1.24-0.4c0.61,0,0.92,0.26,0.92,0.77c0,0.51-0.54,1.05-1.61,1.62c-1.08,0.56-2.14,0.85-3.18,0.85
			c-2.53,0-3.79-1.61-3.79-4.82l-0.04-12.08c-0.96,0.08-1.63,0.11-2.01,0.11c-1.45,0-2.18-0.41-2.18-1.24s0.73-1.24,2.18-1.24
			c0.12,0,0.76,0.03,1.92,0.08l-0.09-4.21c0-1.25,0.55-1.88,1.66-1.88c1.1,0,1.66,0.63,1.66,1.88l-0.13,4.25l3.53-0.15
			c1.45,0,2.18,0.43,2.18,1.28c0,0.8-0.73,1.21-2.18,1.21C535.39,751.63,534.19,751.6,532.04,751.55z"/>
		<path d="M566.01,759.46l0.13,7.08c0,1.28-0.55,1.92-1.66,1.92c-1.34,0-2.01-0.88-2.01-2.65c0-1.77,0.29-4.25,0.87-7.43
			c0-1.05-0.12-2.5-0.37-4.33c-0.25-1.83-0.37-2.97-0.37-3.42c0-0.45,0.15-0.85,0.46-1.2c0.31-0.35,0.72-0.53,1.24-0.53
			s0.94,0.18,1.24,0.53s0.46,0.73,0.46,1.15s-0.01,0.94-0.02,1.58s-0.02,1.17-0.02,1.6c0.58-1.28,1.49-2.41,2.73-3.39
			c1.24-0.98,2.51-1.47,3.82-1.47s2.32,0.23,3.03,0.7c0.71,0.46,1.07,0.96,1.07,1.49c0,0.53-0.16,0.94-0.48,1.24
			c-0.32,0.3-0.73,0.45-1.24,0.45c-0.51,0-1.06-0.23-1.66-0.7c-0.6-0.46-1.07-0.7-1.42-0.7c-0.96,0-2.08,0.89-3.36,2.67
			C567.18,755.82,566.36,757.63,566.01,759.46z"/>
		<path d="M610.35,748.69c2.98,0,5.43,0.96,7.35,2.88c1.92,1.92,2.88,4.27,2.88,7.06s-0.97,5.15-2.92,7.09
			c-1.95,1.95-4.41,2.92-7.37,2.92s-5.41-0.96-7.33-2.88c-1.92-1.92-2.88-4.27-2.88-7.06s0.97-5.15,2.9-7.09
			C604.92,749.66,607.37,748.69,610.35,748.69z M615.37,763.97c1.41-1.48,2.12-3.26,2.12-5.34c0-2.08-0.68-3.85-2.03-5.31
			s-3.03-2.18-5.04-2.18c-2.01,0-3.72,0.74-5.13,2.22c-1.41,1.48-2.12,3.26-2.12,5.34c0,2.08,0.68,3.85,2.03,5.31
			c1.35,1.46,3.03,2.18,5.04,2.18C612.25,766.19,613.96,765.45,615.37,763.97z"/>
		<path d="M697.61,765.67c0.76,0,1.13,0.19,1.13,0.56c0,0.48-0.2,0.97-0.59,1.47c-0.39,0.5-1.01,0.75-1.85,0.75
			c-0.84,0-1.5-0.4-1.98-1.2c-0.48-0.8-0.82-2.08-1.03-3.84c-2.12,3.36-4.81,5.04-8.07,5.04c-1.89,0-3.52-0.53-4.89-1.58
			c-1.37-1.05-2.34-2.27-2.92-3.65c-0.58-1.38-0.87-2.76-0.87-4.14c0-2.74,0.96-5.12,2.88-7.15s4.38-3.05,7.37-3.05
			c2.18,0,4.25,0.62,6.19,1.84c0.06-3.49,0.09-6.04,0.09-7.66c0-1.62,0.14-2.62,0.41-3.01c0.28-0.39,0.73-0.58,1.35-0.58
			c0.63,0,1.13,0.22,1.53,0.66c0.39,0.44,0.59,1.09,0.59,1.94c0,0.85-0.06,1.9-0.17,3.14c-0.12,1.24-0.29,2.89-0.52,4.93
			c-0.23,2.05-0.42,3.9-0.57,5.55c0,3.06,0.13,5.46,0.39,7.19S696.86,765.54,697.61,765.67z M692.99,759.49v-5.98
			c-1.74-1.46-3.81-2.18-6.19-2.18c-1.86,0-3.5,0.74-4.91,2.22c-1.41,1.48-2.12,3.22-2.12,5.21s0.51,3.7,1.53,5.12
			c1.02,1.42,2.4,2.13,4.14,2.13C688.5,766,691.01,763.83,692.99,759.49z"/>
		<path d="M723.98,748.69c2.34,0,4.25,0.56,5.71,1.69c1.47,1.13,2.2,2.6,2.2,4.4s-0.91,3.18-2.73,4.12
			c-1.82,0.94-4.05,1.41-6.7,1.41c-1.51,0-3.36-0.19-5.54-0.57c0.17,1.76,0.94,3.27,2.29,4.54c1.35,1.27,2.86,1.9,4.51,1.9
			c0.99,0,1.9-0.12,2.75-0.36c0.84-0.24,1.48-0.5,1.92-0.77c1.16-0.78,1.93-1.17,2.29-1.17c0.36,0,0.65,0.09,0.87,0.28
			s0.33,0.42,0.33,0.7c0,0.7-0.84,1.51-2.51,2.41c-1.67,0.9-3.48,1.35-5.43,1.35c-3.02,0-5.42-0.92-7.2-2.75
			c-1.77-1.83-2.73-4.04-2.88-6.63c-1.54-0.4-2.31-1.05-2.31-1.96c0-0.38,0.12-0.67,0.37-0.88s0.55-0.32,0.89-0.32
			c0.35,0,0.79,0.11,1.31,0.34c0.64-2.26,1.85-4.12,3.64-5.57C719.58,749.42,721.64,748.69,723.98,748.69z M722.32,757.95
			c1.96,0,3.53-0.29,4.71-0.87s1.77-1.35,1.77-2.33c0-0.98-0.39-1.83-1.16-2.54c-0.77-0.71-1.87-1.07-3.29-1.07
			c-1.92,0-3.53,0.62-4.84,1.86s-2.15,2.69-2.53,4.35C718.58,757.75,720.36,757.95,722.32,757.95z"/>
		<path d="M800.29,765.59l7.07-0.19c1.45,0,2.18,0.48,2.18,1.43c0,0.95-0.73,1.43-2.18,1.43l-7.07-0.19l-7.63,0.19
			c-1.31,0-1.96-0.48-1.96-1.43c0-0.88,0.04-2.36,0.11-4.44c0.07-2.08,0.11-4.74,0.11-7.98c-0.26,0.02-0.55,0.04-0.87,0.04
			c-1.4,0-2.09-0.46-2.09-1.39c0-0.43,0.19-0.78,0.57-1.05c0.38-0.28,0.81-0.41,1.29-0.41s0.85,0.01,1.11,0.04
			c-0.06-5.04-0.16-8.09-0.31-9.15c-0.35-0.43-0.52-0.89-0.52-1.39c0-0.95,0.77-1.43,2.31-1.43l8.42,0.19l6.54-0.19
			c1.45,0,2.18,0.48,2.18,1.43c0,0.95-0.73,1.43-2.18,1.43l-6.54-0.19c-3.31,0-5.5,0.05-6.54,0.15c-0.15,3.29-0.22,6.36-0.22,9.22
			c1.28,0.05,2.3,0.08,3.05,0.08l7.85-0.19c0.67,0,1.2,0.13,1.59,0.4c0.39,0.26,0.59,0.62,0.59,1.07c0,0.93-0.73,1.39-2.18,1.39
			l-7.85-0.19c-0.81,0-1.83,0.03-3.05,0.08v3.73c0,3.74,0.07,6.2,0.22,7.38C796.31,765.54,798.32,765.59,800.29,765.59z"/>
		<path d="M855.47,765.67c0.76,0,1.13,0.19,1.13,0.56c0,0.48-0.2,0.97-0.59,1.47c-0.39,0.5-1.01,0.75-1.85,0.75
			c-0.84,0-1.5-0.4-1.98-1.2c-0.48-0.8-0.82-2.08-1.03-3.84c-2.12,3.36-4.81,5.04-8.07,5.04c-1.89,0-3.52-0.53-4.89-1.58
			c-1.37-1.05-2.34-2.27-2.92-3.65c-0.58-1.38-0.87-2.76-0.87-4.14c0-2.74,0.96-5.12,2.88-7.15s4.38-3.05,7.37-3.05
			c2.18,0,4.25,0.62,6.19,1.84c0.06-3.49,0.09-6.04,0.09-7.66c0-1.62,0.14-2.62,0.41-3.01c0.28-0.39,0.73-0.58,1.35-0.58
			c0.63,0,1.13,0.22,1.53,0.66c0.39,0.44,0.59,1.09,0.59,1.94c0,0.85-0.06,1.9-0.17,3.14c-0.12,1.24-0.29,2.89-0.52,4.93
			c-0.23,2.05-0.42,3.9-0.57,5.55c0,3.06,0.13,5.46,0.39,7.19S854.72,765.54,855.47,765.67z M850.85,759.49v-5.98
			c-1.74-1.46-3.81-2.18-6.19-2.18c-1.86,0-3.5,0.74-4.91,2.22c-1.41,1.48-2.12,3.22-2.12,5.21s0.51,3.7,1.53,5.12
			c1.02,1.42,2.4,2.13,4.14,2.13C846.36,766,848.87,763.83,850.85,759.49z"/>
		<path d="M885.35,751.97l-0.35,8.28c0,1.71,0.42,3.09,1.27,4.16c0.84,1.07,2.01,1.6,3.51,1.6c1.5,0,2.94-0.72,4.34-2.16
			c1.4-1.44,2.37-3.07,2.92-4.87l-0.13-8.17c0-1.28,0.55-1.92,1.66-1.92c1.34,0,2.01,0.88,2.01,2.65c0,1.77-0.29,4.25-0.87,7.43
			c0,1.88,0.16,3.42,0.48,4.61c0.32,1.19,0.7,1.86,1.13,2.01c0.17,0.08,0.39,0.13,0.63,0.15c0.25,0.03,0.42,0.06,0.52,0.11
			c0.1,0.05,0.15,0.15,0.15,0.3c0,0.68-0.24,1.23-0.72,1.66c-0.48,0.43-1.08,0.64-1.81,0.64c-1.83,0-2.75-1.61-2.75-4.82
			c-2.15,3.21-4.86,4.82-8.11,4.82c-2.33,0-4.13-0.75-5.41-2.24c-1.28-1.49-1.92-3.32-1.92-5.48l0.26-5.68c0-1-0.12-1.94-0.35-2.8
			c-0.23-0.87-0.35-1.49-0.35-1.86c0-0.38,0.17-0.72,0.52-1.04c0.35-0.31,0.8-0.47,1.35-0.47
			C884.68,748.88,885.35,749.91,885.35,751.97z"/>
		<path d="M944.46,764.2c0.73,0,1.09,0.33,1.09,1s-0.84,1.41-2.53,2.22c-1.69,0.81-3.46,1.22-5.32,1.22c-3.05,0-5.6-0.97-7.63-2.92
			c-2.04-1.94-3.05-4.3-3.05-7.06s1.03-5.11,3.08-7.06c2.05-1.94,4.75-2.92,8.09-2.92c1.83,0,3.45,0.36,4.86,1.07
			c1.41,0.71,2.12,1.45,2.12,2.2c0,0.4-0.15,0.73-0.44,1c-0.29,0.26-0.63,0.39-1,0.39c-0.38,0-0.81-0.19-1.31-0.56
			c-1.51-1.1-3.05-1.66-4.62-1.66c-2.01,0-3.76,0.73-5.26,2.18c-1.5,1.46-2.25,3.22-2.25,5.31c0,2.08,0.76,3.86,2.27,5.34
			c1.51,1.48,3.39,2.22,5.63,2.22c1.72,0,3.39-0.5,5.02-1.51C943.74,764.36,944.17,764.2,944.46,764.2z"/>
		<path d="M988.34,758.97c0,1.88,0.16,3.42,0.48,4.61c0.32,1.19,0.7,1.86,1.13,2.01c0.17,0.08,0.39,0.13,0.63,0.15
			c0.25,0.03,0.42,0.06,0.52,0.11c0.1,0.05,0.15,0.15,0.15,0.3c0,0.68-0.21,1.23-0.63,1.66c-0.42,0.43-1.05,0.64-1.9,0.64
			c-0.84,0-1.5-0.46-1.96-1.39c-0.47-0.93-0.7-2.12-0.7-3.58c-0.73,1.41-1.8,2.58-3.21,3.54c-1.41,0.95-3,1.43-4.75,1.43
			c-1.76,0-3.28-0.5-4.56-1.5c-2.33-1.83-3.49-4.45-3.49-7.87c0-2.74,0.92-5.12,2.75-7.15s4.19-3.05,7.07-3.05
			c2.18,0,4.07,0.64,5.67,1.92c0-1.28,0.55-1.92,1.66-1.92c1.34,0,2.01,0.88,2.01,2.65C989.21,753.3,988.92,755.78,988.34,758.97z
			 M985.81,759.31l-0.22-5.8c-1.75-1.46-3.57-2.18-5.47-2.18c-1.91,0-3.54,0.74-4.91,2.22c-1.37,1.48-2.05,3.26-2.05,5.33
			c0,2.07,0.44,3.78,1.33,5.12c0.89,1.34,2.14,2.01,3.77,2.01c1.63,0,3.11-0.63,4.45-1.88
			C984.05,762.87,985.08,761.26,985.81,759.31z"/>
		<path d="M1033.09,764.2c0.73,0,1.09,0.33,1.09,1s-0.84,1.41-2.53,2.22c-1.69,0.81-3.46,1.22-5.32,1.22c-3.05,0-5.6-0.97-7.63-2.92
			c-2.04-1.94-3.05-4.3-3.05-7.06s1.02-5.11,3.08-7.06c2.05-1.94,4.75-2.92,8.09-2.92c1.83,0,3.45,0.36,4.86,1.07
			c1.41,0.71,2.12,1.45,2.12,2.2c0,0.4-0.15,0.73-0.44,1c-0.29,0.26-0.63,0.39-1,0.39s-0.81-0.19-1.31-0.56
			c-1.51-1.1-3.05-1.66-4.62-1.66c-2.01,0-3.76,0.73-5.26,2.18c-1.5,1.46-2.25,3.22-2.25,5.31c0,2.08,0.76,3.86,2.27,5.34
			s3.39,2.22,5.63,2.22c1.71,0,3.39-0.5,5.02-1.51C1032.38,764.36,1032.8,764.2,1033.09,764.2z"/>
		<path d="M1061.71,740.79c0.61,0,1.06,0.17,1.35,0.51c0.29,0.34,0.44,0.77,0.44,1.28c0,0.51-0.2,1.03-0.61,1.54
			s-0.92,0.77-1.53,0.77c-0.61,0-1.07-0.18-1.37-0.53c-0.31-0.35-0.46-0.82-0.46-1.39s0.21-1.08,0.63-1.52
			C1060.58,741.01,1061.09,740.79,1061.71,740.79z M1062.93,758.67l0.22,7.9c0,1.25-0.55,1.88-1.66,1.88
			c-1.11,0-1.66-0.63-1.66-1.88l0.22-7.9l-0.22-7.9c0-1.25,0.55-1.88,1.66-1.88c1.1,0,1.66,0.63,1.66,1.88L1062.93,758.67z"/>
		<path d="M1099.41,748.69c2.98,0,5.43,0.96,7.35,2.88c1.92,1.92,2.88,4.27,2.88,7.06s-0.97,5.15-2.92,7.09
			c-1.95,1.95-4.41,2.92-7.37,2.92c-2.97,0-5.41-0.96-7.33-2.88c-1.92-1.92-2.88-4.27-2.88-7.06s0.97-5.15,2.9-7.09
			C1093.98,749.66,1096.43,748.69,1099.41,748.69z M1104.43,763.97c1.41-1.48,2.12-3.26,2.12-5.34c0-2.08-0.68-3.85-2.03-5.31
			s-3.03-2.18-5.04-2.18s-3.72,0.74-5.13,2.22c-1.41,1.48-2.12,3.26-2.12,5.34c0,2.08,0.68,3.85,2.03,5.31s3.03,2.18,5.04,2.18
			C1101.31,766.19,1103.02,765.45,1104.43,763.97z M1103.84,740.9c0,1.08-0.66,2.16-1.99,3.24s-2.38,1.62-3.16,1.62
			s-1.18-0.26-1.18-0.79c0-0.3,0.23-0.68,0.7-1.13c0.46-0.45,0.81-0.8,1.02-1.04c0.22-0.24,0.48-0.68,0.79-1.32
			c0.31-0.64,0.63-1.13,0.96-1.49c0.33-0.35,0.76-0.53,1.29-0.53s0.92,0.14,1.18,0.43C1103.71,740.19,1103.84,740.52,1103.84,740.9z
			"/>
		<path d="M1154.05,756.22l-0.22,5.91c0,0.7,0.01,1.24,0.02,1.6c0.01,0.36,0.1,0.74,0.26,1.13c0.16,0.39,0.36,0.63,0.59,0.71
			c0.23,0.09,0.47,0.14,0.72,0.17c0.25,0.03,0.42,0.06,0.52,0.11c0.1,0.05,0.15,0.15,0.15,0.3c0,0.65-0.24,1.2-0.72,1.64
			c-0.48,0.44-1.04,0.66-1.68,0.66c-1.11,0-1.87-0.38-2.29-1.13c-0.42-0.75-0.63-1.86-0.63-3.31l0.17-6.93
			c0-1.71-0.42-3.09-1.27-4.14c-0.84-1.05-2.01-1.58-3.51-1.58c-1.5,0-2.94,0.71-4.34,2.15c-1.4,1.43-2.37,3.05-2.92,4.85l0.13,8.17
			c0,1.28-0.55,1.92-1.66,1.92c-1.34,0-2.01-0.88-2.01-2.65c0-1.77,0.29-4.25,0.87-7.43c0-1.05-0.12-2.51-0.37-4.37
			c-0.25-1.86-0.37-3-0.37-3.44c0-0.44,0.15-0.83,0.46-1.17c0.31-0.34,0.72-0.51,1.24-0.51s0.94,0.17,1.24,0.51
			c0.31,0.34,0.46,0.72,0.46,1.15s-0.01,0.95-0.02,1.56c-0.01,0.62-0.02,1.14-0.02,1.56c2.12-3.19,4.74-4.78,7.85-4.78
			c2.33,0,4.13,0.71,5.41,2.15C1153.41,752.46,1154.05,754.19,1154.05,756.22z"/>
		<path d="M1210.54,765.59l3.84-0.19c0.67,0,1.2,0.13,1.59,0.39s0.59,0.61,0.59,1.04c0,0.43-0.2,0.78-0.61,1.05
			c-0.41,0.28-0.93,0.41-1.57,0.41l-5.63-0.23l-5.76,0.19c-1.45,0-2.18-0.48-2.18-1.43c0-0.95,0.73-1.43,2.18-1.43
			c0.32,0,1.64,0.06,3.97,0.19c0.14-5.65,0.22-9.52,0.22-11.61c0-2.09-0.07-5.96-0.22-11.61c-2.56,0.1-3.88,0.15-3.97,0.15
			c-1.4,0-2.09-0.46-2.09-1.39c0-0.45,0.19-0.81,0.57-1.07c0.38-0.26,0.89-0.39,1.53-0.39l5.76,0.19c0.99,0,2.14-0.04,3.45-0.11
			s2.16-0.11,2.55-0.11s0.8,0.14,1.22,0.43c0.42,0.29,0.63,0.65,0.63,1.07s-0.2,0.77-0.61,1.03c-0.41,0.26-0.84,0.4-1.29,0.4
			s-1.84-0.06-4.17-0.19c-0.15,5.77-0.22,9.67-0.22,11.71S1210.39,759.95,1210.54,765.59z"/>
		<path d="M1260.61,756.22l-0.22,5.91c0,0.7,0.01,1.24,0.02,1.6c0.01,0.36,0.1,0.74,0.26,1.13c0.16,0.39,0.36,0.63,0.59,0.71
			c0.23,0.09,0.47,0.14,0.72,0.17c0.25,0.03,0.42,0.06,0.52,0.11c0.1,0.05,0.15,0.15,0.15,0.3c0,0.65-0.24,1.2-0.72,1.64
			c-0.48,0.44-1.04,0.66-1.68,0.66c-1.11,0-1.87-0.38-2.29-1.13c-0.42-0.75-0.63-1.86-0.63-3.31l0.17-6.93
			c0-1.71-0.42-3.09-1.27-4.14c-0.84-1.05-2.01-1.58-3.51-1.58c-1.5,0-2.94,0.71-4.34,2.15c-1.4,1.43-2.37,3.05-2.92,4.85l0.13,8.17
			c0,1.28-0.55,1.92-1.66,1.92c-1.34,0-2.01-0.88-2.01-2.65c0-1.77,0.29-4.25,0.87-7.43c0-1.05-0.12-2.51-0.37-4.37
			c-0.25-1.86-0.37-3-0.37-3.44c0-0.44,0.15-0.83,0.46-1.17c0.31-0.34,0.72-0.51,1.24-0.51s0.94,0.17,1.24,0.51
			c0.31,0.34,0.46,0.72,0.46,1.15s-0.01,0.95-0.02,1.56c-0.01,0.62-0.02,1.14-0.02,1.56c2.12-3.19,4.74-4.78,7.85-4.78
			c2.33,0,4.13,0.71,5.41,2.15C1259.97,752.46,1260.61,754.19,1260.61,756.22z"/>
		<path d="M1292.63,749.26l4.23-0.08c0.46,0,0.86,0.1,1.18,0.3c0.32,0.2,0.48,0.5,0.48,0.9c0,0.75-0.55,1.13-1.66,1.13l-4.23-0.08
			v2.52c0,3.46,0.04,6.37,0.13,8.73c0.09,2.36,0.13,3.73,0.13,4.12c0,0.39-0.15,0.76-0.46,1.11c-0.31,0.35-0.72,0.53-1.24,0.53
			s-0.94-0.18-1.24-0.53c-0.31-0.35-0.46-0.72-0.46-1.11c0-0.39,0.01-1.17,0.04-2.35c0.15-3.54,0.22-7.04,0.22-10.5v-2.52
			l-2.22,0.08c-1.11,0-1.66-0.38-1.66-1.13c0-0.4,0.16-0.7,0.48-0.9c0.32-0.2,0.71-0.3,1.18-0.3l2.18,0.08v-3.2
			c0-2.33,0.53-4.01,1.59-5.04c1.06-1.03,2.29-1.54,3.69-1.54c1.4,0,2.55,0.23,3.47,0.7c0.92,0.46,1.37,0.96,1.37,1.49
			c0,0.83-0.41,1.24-1.22,1.24c-0.38,0-0.87-0.15-1.48-0.45c-0.61-0.3-1.21-0.45-1.79-0.45c-1.8,0-2.7,1.47-2.7,4.4V749.26z"/>
		<path d="M1340.39,758.97c0,1.88,0.16,3.42,0.48,4.61c0.32,1.19,0.7,1.86,1.13,2.01c0.17,0.08,0.39,0.13,0.63,0.15
			c0.25,0.03,0.42,0.06,0.52,0.11c0.1,0.05,0.15,0.15,0.15,0.3c0,0.68-0.21,1.23-0.63,1.66c-0.42,0.43-1.05,0.64-1.9,0.64
			c-0.84,0-1.5-0.46-1.96-1.39c-0.47-0.93-0.7-2.12-0.7-3.58c-0.73,1.41-1.8,2.58-3.21,3.54c-1.41,0.95-3,1.43-4.75,1.43
			s-3.28-0.5-4.56-1.5c-2.33-1.83-3.49-4.45-3.49-7.87c0-2.74,0.92-5.12,2.75-7.15s4.19-3.05,7.07-3.05c2.18,0,4.07,0.64,5.67,1.92
			c0-1.28,0.55-1.92,1.66-1.92c1.34,0,2.01,0.88,2.01,2.65C1341.26,753.3,1340.97,755.78,1340.39,758.97z M1337.86,759.31l-0.22-5.8
			c-1.75-1.46-3.57-2.18-5.47-2.18c-1.91,0-3.54,0.74-4.91,2.22c-1.37,1.48-2.05,3.26-2.05,5.33c0,2.07,0.44,3.78,1.33,5.12
			c0.89,1.34,2.14,2.01,3.77,2.01c1.63,0,3.11-0.63,4.45-1.88C1336.1,762.87,1337.13,761.26,1337.86,759.31z"/>
		<path d="M1387.33,756.22l-0.22,5.91c0,0.7,0.01,1.24,0.02,1.6c0.01,0.36,0.1,0.74,0.26,1.13c0.16,0.39,0.36,0.63,0.59,0.71
			c0.23,0.09,0.47,0.14,0.72,0.17c0.25,0.03,0.42,0.06,0.52,0.11c0.1,0.05,0.15,0.15,0.15,0.3c0,0.65-0.24,1.2-0.72,1.64
			c-0.48,0.44-1.04,0.66-1.68,0.66c-1.11,0-1.87-0.38-2.29-1.13c-0.42-0.75-0.63-1.86-0.63-3.31l0.17-6.93
			c0-1.71-0.42-3.09-1.27-4.14c-0.84-1.05-2.01-1.58-3.51-1.58c-1.5,0-2.94,0.71-4.34,2.15c-1.4,1.43-2.37,3.05-2.92,4.85l0.13,8.17
			c0,1.28-0.55,1.92-1.66,1.92c-1.34,0-2.01-0.88-2.01-2.65c0-1.77,0.29-4.25,0.87-7.43c0-1.05-0.12-2.51-0.37-4.37
			c-0.25-1.86-0.37-3-0.37-3.44c0-0.44,0.15-0.83,0.46-1.17c0.31-0.34,0.72-0.51,1.24-0.51s0.94,0.17,1.24,0.51
			c0.31,0.34,0.46,0.72,0.46,1.15s-0.01,0.95-0.02,1.56c-0.01,0.62-0.02,1.14-0.02,1.56c2.12-3.19,4.74-4.78,7.85-4.78
			c2.33,0,4.13,0.71,5.41,2.15C1386.69,752.46,1387.33,754.19,1387.33,756.22z"/>
		<path d="M1419.69,751.55l-0.09,8.92c0,2.28,0.11,3.78,0.33,4.48c0.22,0.7,0.79,1.05,1.72,1.05c0.44,0,0.97-0.13,1.59-0.39
			c0.63-0.26,1.04-0.4,1.24-0.4c0.61,0,0.92,0.26,0.92,0.77c0,0.51-0.54,1.05-1.61,1.62c-1.08,0.56-2.14,0.85-3.18,0.85
			c-2.53,0-3.79-1.61-3.79-4.82l-0.04-12.08c-0.96,0.08-1.63,0.11-2.01,0.11c-1.46,0-2.18-0.41-2.18-1.24s0.73-1.24,2.18-1.24
			c0.12,0,0.76,0.03,1.92,0.08l-0.09-4.21c0-1.25,0.55-1.88,1.66-1.88c1.1,0,1.66,0.63,1.66,1.88l-0.13,4.25l3.53-0.15
			c1.45,0,2.18,0.43,2.18,1.28c0,0.8-0.73,1.21-2.18,1.21C1423.05,751.63,1421.84,751.6,1419.69,751.55z"/>
		<path d="M1452.27,740.79c0.61,0,1.06,0.17,1.35,0.51c0.29,0.34,0.44,0.77,0.44,1.28c0,0.51-0.2,1.03-0.61,1.54
			s-0.92,0.77-1.53,0.77c-0.61,0-1.07-0.18-1.37-0.53c-0.31-0.35-0.46-0.82-0.46-1.39s0.21-1.08,0.63-1.52
			C1451.15,741.01,1451.66,740.79,1452.27,740.79z M1453.5,758.67l0.22,7.9c0,1.25-0.55,1.88-1.66,1.88c-1.11,0-1.66-0.63-1.66-1.88
			l0.22-7.9l-0.22-7.9c0-1.25,0.55-1.88,1.66-1.88c1.1,0,1.66,0.63,1.66,1.88L1453.5,758.67z"/>
		<path d="M1484.03,753.96l0.22,12.61c0,1.25-0.55,1.88-1.66,1.88c-1.11,0-1.66-0.63-1.66-1.88l0.22-12.61l-0.22-12.61
			c0-1.25,0.55-1.88,1.66-1.88c1.1,0,1.66,0.63,1.66,1.88L1484.03,753.96z"/>
	</g>
</g>
<g id="Capa_11">
</g>
<g id="Capa_8">
	<line fill="#ECBE1F" x1="997.5" y1="400.63" x2="997.5" y2="607.43"/>
	<polyline fill="#009ACB" points="998.5,403.54 1074,342.81 1073.38,396.79 1036.25,423.78 1036.25,574.56 998.5,610 	"/>
	<path fill="#009ACB" d="M1502.99,565.53"/>
	<path fill="#009ACB" d="M753,639"/>
	<polyline fill="#009ACB" points="753,640 753,433 820,372 820,378.02 	"/>
	<polyline fill="#009ACB" points="753,586 820,534.32 820,586 753,641.07 753,586 	"/>
	<polyline fill="#009ACB" points="757,523.6 824,435 824,523.6 757,618 757,523.6 	"/>
	<polygon fill="#ECBE1F" points="602,344.91 602,543.59 526.65,612.52 526.65,405.73 	"/>
	<path fill="#009ACB" d="M998.5,610"/>
	<line fill="#009ACB" x1="998.5" y1="610" x2="999" y2="610"/>
	<path fill="#009ACB" d="M998.5,608.62"/>
	<path fill="#009ACB" d="M998.5,608.31"/>
	<rect x="1032" y="420" fill="#009ACB" width="37" height="3"/>
	<g>
		<g>
			<path fill="#009ACB" d="M1030.29,419.78c0,0,0,0.01,0,0.01c-0.01,0.21,0.04,0.4,0.13,0.58c0.06,0.19,0.16,0.35,0.31,0.48
				c0.14,0.15,0.3,0.25,0.48,0.31c0.18,0.09,0.37,0.14,0.58,0.13c0.13-0.02,0.27-0.04,0.4-0.05c0.25-0.07,0.47-0.2,0.66-0.39
				c0.08-0.1,0.16-0.2,0.23-0.3c0.14-0.23,0.2-0.49,0.2-0.76c0,0,0-0.01,0-0.01c0.01-0.21-0.04-0.4-0.13-0.58
				c-0.06-0.19-0.16-0.35-0.31-0.48c-0.14-0.15-0.3-0.25-0.48-0.31c-0.18-0.09-0.37-0.14-0.58-0.13c-0.13,0.02-0.27,0.04-0.4,0.05
				c-0.25,0.07-0.47,0.2-0.66,0.39c-0.08,0.1-0.16,0.2-0.23,0.3C1030.36,419.26,1030.29,419.51,1030.29,419.78L1030.29,419.78z"/>
		</g>
	</g>
	<g>
		<g>
			<path fill="#009ACB" d="M1031.67,421.86c0.13,0.04,0.26,0.07,0.39,0.1c0.26,0.05,0.52,0.08,0.78,0.1
				c0.21,0.01,0.4-0.04,0.58-0.13c0.19-0.06,0.35-0.16,0.48-0.31c0.15-0.14,0.25-0.3,0.31-0.48c0.09-0.18,0.14-0.37,0.13-0.58
				c-0.02-0.13-0.04-0.27-0.05-0.4c-0.07-0.25-0.2-0.47-0.39-0.66c-0.1-0.08-0.2-0.16-0.3-0.23c-0.23-0.14-0.49-0.2-0.76-0.2
				c-0.09,0-0.18-0.01-0.26-0.02c0.13,0.02,0.27,0.04,0.4,0.05c-0.17-0.02-0.35-0.06-0.51-0.12c-0.2-0.06-0.4-0.07-0.6-0.03
				c-0.2,0.01-0.39,0.07-0.56,0.18c-0.17,0.09-0.32,0.22-0.42,0.39c-0.13,0.14-0.22,0.31-0.27,0.51c-0.02,0.13-0.04,0.27-0.05,0.4
				c0,0.27,0.07,0.52,0.2,0.76c0.08,0.1,0.16,0.2,0.23,0.3C1031.19,421.66,1031.41,421.79,1031.67,421.86L1031.67,421.86z"/>
		</g>
	</g>
	<g>
		<g>
			<path fill="#009ACB" d="M1034.08,422.2c0.19,0.01,0.37,0.01,0.56-0.02c0.31-0.04,0.62-0.07,0.92-0.17
				c0.2-0.05,0.37-0.14,0.51-0.27c0.16-0.11,0.29-0.25,0.39-0.42c0.11-0.17,0.17-0.36,0.18-0.56c0.04-0.2,0.04-0.4-0.03-0.6
				c-0.05-0.12-0.1-0.24-0.15-0.36c-0.13-0.23-0.31-0.4-0.54-0.54c-0.12-0.05-0.24-0.1-0.36-0.15c-0.27-0.07-0.53-0.07-0.8,0
				c-0.16,0.05-0.33,0.09-0.49,0.11c0.13-0.02,0.27-0.04,0.4-0.05c-0.19,0.03-0.39,0.03-0.59,0.02c-0.21-0.01-0.4,0.04-0.58,0.13
				c-0.19,0.06-0.35,0.16-0.48,0.31c-0.15,0.14-0.25,0.3-0.31,0.48c-0.09,0.18-0.14,0.37-0.13,0.58c0.02,0.13,0.04,0.27,0.05,0.4
				c0.07,0.25,0.2,0.47,0.39,0.66c0.1,0.08,0.2,0.16,0.3,0.23C1033.56,422.13,1033.81,422.2,1034.08,422.2L1034.08,422.2z"/>
		</g>
	</g>
	<polyline fill="#009ACB" points="1031,421 1073.5,386.31 1070,384 1021,418 1027,425 1031,421 	"/>
</g>
<g id="Capa_7">
</g>
<g id="Capa_10">
	<path fill="#8FB816" d="M1238.08,421.34c0,0,0,209.06,0,206.36c0-2.7,24.33-25.63,24.33-26.98c0-1.35,0-201.72,0-201.72
		L1238.08,421.34"/>
	<path fill="#8FB816" d="M1262.41,600.72"/>
	<path fill="#8FB816" d="M1262,601"/>
</g>
<g id="Capa_4">
	<polyline fill="#ECBE1F" points="790.7,403.82 866.17,343 1046.33,343 979.38,403.82 	"/>
	<polyline fill="#ECBE1F" points="809.9,403.82 885.37,343 1065.52,343 998.57,403.82 	"/>
	<polyline fill="#ECBE1F" points="1030.68,420.82 1106.15,360 1286.31,360 1219.36,420.82 	"/>
	<polyline fill="#ECBE1F" points="1313.72,360.18 1238.25,421 1058.1,421 1125.04,360.18 	"/>
	<polyline fill="#8DB815" points="1447.16,402.82 1514.11,342 1333.96,342 1258.49,402.82 	"/>
	<polyline fill="#ECBE1F" points="735.06,434.82 802.01,374 621.85,374 546.39,434.82 	"/>
	<polyline fill="#ECBE1F" points="828,374 753.09,435 574.27,435 640.72,374 	"/>
	<polyline fill="#8FB816" points="338.15,405.82 413.62,345 593.77,345 526.82,405.82 	"/>
	<path fill="#8FB816" d="M1351.21,338.18"/>
	<path fill="#8FB816" d="M1469,605"/>
	<polyline fill="#8FB816" points="413.41,345 346.46,406 526.61,406 602.08,345 	"/>
	<polyline fill="#ECBE1F" points="885.55,343 818.6,404 998.76,404 1074.23,343 	"/>
	<polyline fill="#009ACB" points="1022,583 1022,591.2 997,610.67 998.04,578.9 1009.5,569.67 	"/>
	<polyline fill="#8DB815" points="1263,600 1263,608.2 1238,627.67 1239.04,595.9 1250.5,586.67 	"/>
	<polyline fill="#009ACB" points="1036,572 1036,580.2 1011,599.67 1012.04,567.9 1023.5,558.67 	"/>
	<polyline fill="#8FB816" points="526.86,406 600,345 403.19,345 320.75,406 	"/>
	<rect x="1259.95" y="402.59" fill="#ECBE1F" width="206.79" height="206.79"/>
	<polyline fill="#8DB815" points="1352.7,341 1285.75,402 1465.9,402 1541.37,341 	"/>
	<polyline fill="#8DB815" points="1465.17,404 1538,341 1342.03,341 1259.94,404 	"/>
</g>
<g id="Capa_9">
</g>
<g id="Capa_3">
	<rect x="546.07" y="434.72" fill="#E98909" width="206.79" height="206.79"/>
	<rect x="791.7" y="403.63" fill="#8FB816" width="206.79" height="206.79"/>
	<rect x="1031.29" y="420.91" fill="#E63B00" width="206.79" height="206.79"/>
	<rect x="320.6" y="405.8" fill="#009ACB" width="206.79" height="206.79"/>
</g>
<g id="Capa_2">
	<g id="Capa_5">
		<g>
			<rect x="336.4" y="415.39" fill="none" width="275.19" height="196.74"/>
			<path fill="#FFFFFF" stroke="#FFFFFF" stroke-miterlimit="10" d="M438.84,511.18v35.45c0,5.6-1.27,9.8-3.81,12.6
				s-5.89,4.2-10.06,4.2c-4.04,0-7.31-1.4-9.81-4.2c-2.51-2.8-3.76-7-3.76-12.6v-42.48c0-6.7-0.23-11.91-0.68-15.63
				c-0.46-3.71-1.69-6.75-3.71-9.13c-2.02-2.38-5.21-3.56-9.57-3.56c-8.73,0-14.47,3-17.24,8.98c-2.77,5.99-4.15,14.58-4.15,25.78
				v36.04c0,5.53-1.25,9.72-3.76,12.55c-2.51,2.83-5.81,4.25-9.91,4.25c-4.04,0-7.34-1.42-9.91-4.25
				c-2.57-2.83-3.86-7.01-3.86-12.55v-76.27c0-5.01,1.16-8.82,3.47-11.43c2.31-2.6,5.35-3.91,9.13-3.91c3.65,0,6.69,1.22,9.13,3.66
				S374,464.5,374,468.8v2.54c4.62-5.53,9.57-9.6,14.84-12.21c5.27-2.6,11.13-3.91,17.58-3.91c6.7,0,12.47,1.33,17.29,4
				c4.82,2.67,8.79,6.71,11.91,12.11c4.49-5.47,9.31-9.52,14.45-12.16c5.14-2.64,10.84-3.96,17.09-3.96c7.29,0,13.57,1.43,18.85,4.3
				c5.27,2.87,9.21,6.97,11.82,12.3c2.28,4.82,3.42,12.4,3.42,22.75v52.05c0,5.6-1.27,9.8-3.81,12.6s-5.89,4.2-10.06,4.2
				c-4.04,0-7.34-1.42-9.91-4.25c-2.57-2.83-3.86-7.01-3.86-12.55V501.8c0-5.73-0.24-10.32-0.73-13.77
				c-0.49-3.45-1.81-6.35-3.96-8.69s-5.4-3.52-9.77-3.52c-3.52,0-6.85,1.04-10.01,3.13c-3.16,2.08-5.62,4.88-7.37,8.4
				C439.82,491.84,438.84,499.79,438.84,511.18z"/>
		</g>
	</g>
	<g id="Capa_6">
		<g>
			<rect x="623.69" y="472.56" fill="none" width="325.2" height="264.32"/>
			<path fill="#FFFFFF" stroke="#FFFFFF" stroke-miterlimit="10" d="M649.58,498.44c-3.53,0-6.54-1.08-9.05-3.25
				c-2.5-2.16-3.76-5.23-3.76-9.18c0-3.59,1.28-6.54,3.85-8.86c2.57-2.32,5.55-3.48,8.95-3.48c3.28,0,6.18,1.05,8.72,3.15
				c2.54,2.1,3.8,5.17,3.8,9.18c0,3.9-1.24,6.94-3.71,9.14C655.92,497.34,652.98,498.44,649.58,498.44z M662.1,524.6v73.2
				c0,5.07-1.21,8.91-3.62,11.5s-5.47,3.9-9.18,3.9s-6.73-1.33-9.05-3.99s-3.48-6.46-3.48-11.41v-72.46c0-5.01,1.16-8.78,3.48-11.32
				c2.32-2.54,5.33-3.8,9.05-3.8s6.77,1.27,9.18,3.8C660.9,516.56,662.1,520.08,662.1,524.6z"/>
		</g>
		<g>
			<rect x="831.34" y="417.38" fill="none" width="274.66" height="249.62"/>
			<path fill="#FFFFFF" stroke="#FFFFFF" stroke-miterlimit="10" d="M940.71,532.41c0,3.32-0.99,6.87-2.98,10.64
				c-1.99,3.78-5.01,7.37-9.08,10.79c-4.07,3.42-9.2,6.17-15.38,8.25c-6.19,2.08-13.15,3.13-20.9,3.13
				c-16.47,0-29.33-4.8-38.57-14.4c-9.25-9.6-13.87-22.48-13.87-38.62c0-10.94,2.11-20.61,6.35-29c4.23-8.4,10.35-14.89,18.36-19.48
				s17.58-6.88,28.71-6.88c6.9,0,13.23,1.01,18.99,3.03c5.76,2.02,10.64,4.62,14.65,7.81c4,3.19,7.06,6.59,9.18,10.21
				c2.11,3.61,3.17,6.98,3.17,10.11c0,3.19-1.19,5.89-3.56,8.11c-2.38,2.21-5.26,3.32-8.64,3.32c-2.21,0-4.05-0.57-5.52-1.71
				c-1.46-1.14-3.11-2.98-4.93-5.52c-3.26-4.95-6.66-8.66-10.21-11.13c-3.55-2.47-8.06-3.71-13.53-3.71
				c-7.88,0-14.23,3.08-19.04,9.23c-4.82,6.15-7.23,14.57-7.23,25.24c0,5.01,0.62,9.62,1.86,13.82c1.24,4.2,3.03,7.78,5.37,10.74
				c2.34,2.96,5.18,5.21,8.5,6.74c3.32,1.53,6.97,2.29,10.94,2.29c5.34,0,9.91-1.24,13.72-3.71c3.81-2.47,7.18-6.25,10.11-11.33
				c1.63-2.99,3.38-5.34,5.27-7.03c1.89-1.69,4.2-2.54,6.93-2.54c3.25,0,5.96,1.24,8.11,3.71
				C939.64,526.98,940.71,529.62,940.71,532.41z"/>
		</g>
		<g>
			<rect x="1073.97" y="433.07" fill="none" width="272.03" height="222.93"/>
			<path fill="#FFFFFF" stroke="#FFFFFF" stroke-miterlimit="10" d="M1187.55,526.91c0,7.94-1.24,15.27-3.71,21.97
				c-2.47,6.71-6.05,12.47-10.74,17.29c-4.69,4.82-10.29,8.51-16.8,11.08c-6.51,2.57-13.83,3.86-21.97,3.86
				c-8.07,0-15.33-1.3-21.78-3.91s-12.03-6.33-16.75-11.18c-4.72-4.85-8.3-10.58-10.74-17.19c-2.44-6.61-3.66-13.92-3.66-21.92
				c0-8.07,1.24-15.46,3.71-22.17c2.47-6.7,6.02-12.43,10.64-17.19c4.62-4.75,10.22-8.41,16.8-10.99
				c6.58-2.57,13.83-3.86,21.78-3.86c8.07,0,15.4,1.3,21.97,3.91c6.58,2.6,12.21,6.32,16.89,11.13c4.69,4.82,8.25,10.55,10.69,17.19
				S1187.55,518.9,1187.55,526.91z M1160.79,526.91c0-10.87-2.39-19.34-7.18-25.39s-11.21-9.08-19.29-9.08
				c-5.21,0-9.8,1.35-13.77,4.05c-3.97,2.7-7.03,6.69-9.18,11.96s-3.22,11.43-3.22,18.46c0,6.97,1.06,13.05,3.17,18.26
				c2.12,5.21,5.14,9.2,9.08,11.96c3.94,2.77,8.58,4.15,13.92,4.15c8.07,0,14.5-3.04,19.29-9.13
				C1158.4,546.07,1160.79,537.65,1160.79,526.91z"/>
		</g>
		<g>
			<rect x="1311.85" y="413.68" fill="none" width="285.15" height="226.32"/>
			<path fill="#FFFFFF" stroke="#FFFFFF" stroke-miterlimit="10" d="M1411.46,526.86c0,7.36-1.79,13.66-5.37,18.9
				c-3.58,5.24-8.87,9.21-15.87,11.91c-7,2.7-15.51,4.05-25.54,4.05c-9.57,0-17.77-1.46-24.61-4.39s-11.88-6.59-15.14-10.99
				c-3.26-4.39-4.88-8.8-4.88-13.23c0-2.93,1.04-5.44,3.13-7.52c2.08-2.08,4.72-3.13,7.91-3.13c2.8,0,4.95,0.68,6.45,2.05
				c1.5,1.37,2.93,3.29,4.3,5.76c2.73,4.75,6.01,8.3,9.81,10.64s9,3.52,15.58,3.52c5.34,0,9.72-1.19,13.13-3.56
				c3.42-2.38,5.13-5.09,5.13-8.15c0-4.69-1.77-8.11-5.32-10.25c-3.55-2.15-9.39-4.2-17.53-6.15c-9.18-2.28-16.65-4.67-22.41-7.18
				c-5.76-2.51-10.37-5.81-13.82-9.91c-3.45-4.1-5.18-9.15-5.18-15.14c0-5.34,1.59-10.38,4.79-15.14
				c3.19-4.75,7.89-8.54,14.11-11.38c6.22-2.83,13.72-4.25,22.51-4.25c6.9,0,13.1,0.72,18.6,2.15c5.5,1.43,10.09,3.35,13.77,5.76
				c3.68,2.41,6.48,5.08,8.4,8.01c1.92,2.93,2.88,5.8,2.88,8.59c0,3.06-1.03,5.57-3.08,7.52s-4.96,2.93-8.74,2.93
				c-2.73,0-5.06-0.78-6.98-2.34c-1.92-1.56-4.12-3.91-6.59-7.03c-2.02-2.6-4.39-4.69-7.13-6.25s-6.45-2.34-11.13-2.34
				c-4.82,0-8.82,1.03-12.01,3.08c-3.19,2.05-4.79,4.61-4.79,7.67c0,2.8,1.17,5.09,3.52,6.88c2.34,1.79,5.5,3.27,9.47,4.44
				c3.97,1.17,9.44,2.6,16.41,4.3c8.27,2.02,15.02,4.43,20.26,7.23c5.24,2.8,9.21,6.1,11.91,9.91
				C1410.11,517.63,1411.46,521.98,1411.46,526.86z"/>
		</g>
		<path fill="#FFFFFF" stroke="#FFFFFF" stroke-miterlimit="10" d="M1536.5,303.5"/>
		<path fill="#FFFFFF" stroke="#FFFFFF" stroke-miterlimit="10" d="M1535.78,536.41"/>
		<polyline fill="#009ACB" points="1541,341.77 1541.14,555.58 1466.8,610.22 1465.57,402.45 		"/>
		<path fill="#FFFFFF" stroke="#FFFFFF" stroke-miterlimit="10" d="M1262.41,600.72"/>
		<rect x="1258.76" y="402.64" fill="#ECBE1F" width="206.79" height="206.79"/>
		<g>
			<rect x="1306.63" y="412.42" fill="none" width="272.03" height="222.93"/>
			<path fill="#FFFFFF" stroke="#FFFFFF" stroke-miterlimit="10" d="M1406.24,525.59c0,7.36-1.79,13.66-5.37,18.9
				c-3.58,5.24-8.87,9.21-15.87,11.91c-7,2.7-15.51,4.05-25.54,4.05c-9.57,0-17.77-1.46-24.61-4.39s-11.88-6.59-15.14-10.99
				c-3.26-4.39-4.88-8.8-4.88-13.23c0-2.93,1.04-5.44,3.13-7.52c2.08-2.08,4.72-3.13,7.91-3.13c2.8,0,4.95,0.68,6.45,2.05
				c1.5,1.37,2.93,3.29,4.3,5.76c2.73,4.75,6.01,8.3,9.81,10.64s9,3.52,15.58,3.52c5.34,0,9.72-1.19,13.13-3.56
				c3.42-2.38,5.13-5.09,5.13-8.15c0-4.69-1.77-8.11-5.32-10.25c-3.55-2.15-9.39-4.2-17.53-6.15c-9.18-2.28-16.65-4.67-22.41-7.18
				c-5.76-2.51-10.37-5.81-13.82-9.91c-3.45-4.1-5.18-9.15-5.18-15.14c0-5.34,1.59-10.38,4.79-15.14
				c3.19-4.75,7.89-8.54,14.11-11.38c6.22-2.83,13.72-4.25,22.51-4.25c6.9,0,13.1,0.72,18.6,2.15c5.5,1.43,10.09,3.35,13.77,5.76
				c3.68,2.41,6.48,5.08,8.4,8.01c1.92,2.93,2.88,5.79,2.88,8.59c0,3.06-1.03,5.57-3.08,7.52s-4.96,2.93-8.74,2.93
				c-2.73,0-5.06-0.78-6.98-2.34c-1.92-1.56-4.12-3.91-6.59-7.03c-2.02-2.6-4.39-4.69-7.13-6.25s-6.45-2.34-11.13-2.34
				c-4.82,0-8.82,1.03-12.01,3.08c-3.19,2.05-4.79,4.61-4.79,7.67c0,2.8,1.17,5.09,3.52,6.88c2.34,1.79,5.5,3.27,9.47,4.44
				c3.97,1.17,9.44,2.6,16.41,4.3c8.27,2.02,15.02,4.43,20.26,7.23c5.24,2.8,9.21,6.1,11.91,9.91
				C1404.89,516.37,1406.24,520.71,1406.24,525.59z"/>
		</g>
	</g>
	<g>
	</g>
	<g>
	</g>
	<g>
	</g>
	<g>
	</g>
	<g>
	</g>
	<g>
	</g>
	<g>
	</g>
	<g>
	</g>
	<g>
	</g>
	<g>
	</g>
	<g>
	</g>
	<g>
	</g>
	<g>
	</g>
	<g>
	</g>
	<g>
	</g>
</g>
</svg>
