<?xml version="1.0" encoding="utf-8"?>
<!-- Generator: Adobe Illustrator 24.0.2, SVG Export Plug-In . SVG Version: 6.00 Build 0)  -->
<svg version="1.1" xmlns="http://www.w3.org/2000/svg" xmlns:xlink="http://www.w3.org/1999/xlink" x="0px" y="0px"
	 viewBox="0 0 1920 1080" enable-background="new 0 0 1920 1080" xml:space="preserve">
<g id="Capa_1">
	<g>
		<g>
			<path fill="#FFFFFF" d="M813.32,984.02c1.93,0,1.93-3,0-3C811.39,981.02,811.38,984.02,813.32,984.02L813.32,984.02z"/>
		</g>
	</g>
	<g>
	</g>
	<g>
		<path d="M372.89,756.94c0,1.09-1.41,2.29-4.23,3.62c-2.82,1.33-6.12,1.99-9.9,1.99c-5.52,0-10.09-1.93-13.71-5.79
			c-3.63-3.86-5.44-8.57-5.44-14.13c0-5.56,1.83-10.26,5.5-14.1c3.66-3.84,8.25-5.76,13.77-5.76c3.27,0,6.21,0.53,8.81,1.58
			s3.9,2.24,3.9,3.57c0,0.54-0.19,0.97-0.56,1.28c-0.38,0.31-0.89,0.46-1.54,0.46c-0.65,0-1.42-0.27-2.31-0.82
			c-0.89-0.54-2.01-1.1-3.37-1.66s-3-0.84-4.94-0.84c-4.22,0-7.68,1.61-10.4,4.82c-2.72,3.21-4.08,7-4.08,11.37
			c0,4.37,1.36,8.2,4.08,11.5c2.72,3.3,6.17,4.95,10.34,4.95c1.93,0,3.67-0.18,5.23-0.54c1.56-0.36,2.73-0.74,3.52-1.15
			c0.79-0.41,1.52-0.79,2.19-1.15c0.67-0.36,1.18-0.54,1.54-0.54C372.35,755.61,372.89,756.05,372.89,756.94z"/>
		<path d="M407.43,735.52c3.17,0,5.75,0.76,7.74,2.29c1.99,1.53,2.98,3.52,2.98,5.97s-1.23,4.31-3.69,5.58
			c-2.46,1.28-5.49,1.91-9.07,1.91c-2.05,0-4.55-0.25-7.51-0.77c0.24,2.38,1.27,4.43,3.1,6.15c1.83,1.72,3.87,2.58,6.12,2.58
			c1.34,0,2.58-0.16,3.72-0.48c1.14-0.32,2.01-0.67,2.6-1.05c1.58-1.05,2.61-1.58,3.1-1.58c0.49,0,0.89,0.13,1.18,0.38
			s0.44,0.57,0.44,0.94c0,0.95-1.13,2.04-3.4,3.26c-2.27,1.22-4.72,1.84-7.36,1.84c-4.1,0-7.35-1.24-9.75-3.72
			c-2.4-2.48-3.7-5.47-3.9-8.98c-2.09-0.54-3.13-1.43-3.13-2.65c0-0.51,0.17-0.91,0.5-1.2c0.33-0.29,0.74-0.43,1.21-0.43
			c0.47,0,1.06,0.15,1.77,0.46c0.87-3.06,2.51-5.58,4.94-7.55S404.26,735.52,407.43,735.52z M405.19,748.06
			c2.66,0,4.79-0.39,6.38-1.17c1.6-0.78,2.39-1.84,2.39-3.16s-0.52-2.47-1.57-3.44c-1.04-0.97-2.53-1.45-4.46-1.45
			c-2.6,0-4.79,0.84-6.56,2.52c-1.77,1.68-2.92,3.65-3.43,5.89C400.11,747.79,402.53,748.06,405.19,748.06z"/>
		<path d="M464.44,745.72l-0.3,8.01c0,0.95,0.01,1.67,0.03,2.17c0.02,0.49,0.14,1,0.35,1.53c0.22,0.53,0.48,0.85,0.8,0.97
			c0.31,0.12,0.64,0.2,0.98,0.23c0.33,0.03,0.57,0.08,0.71,0.15c0.14,0.07,0.21,0.2,0.21,0.41c0,0.88-0.33,1.62-0.98,2.22
			c-0.65,0.59-1.41,0.89-2.28,0.89c-1.5,0-2.53-0.51-3.1-1.53c-0.57-1.02-0.86-2.52-0.86-4.49l0.24-9.38c0-2.31-0.57-4.18-1.71-5.61
			c-1.14-1.43-2.73-2.14-4.76-2.14c-2.03,0-3.99,0.97-5.88,2.91c-1.89,1.94-3.21,4.13-3.96,6.58l0.18,11.07
			c0,1.73-0.75,2.6-2.25,2.6c-1.81,0-2.72-1.2-2.72-3.6c0-2.4,0.39-5.75,1.18-10.07c0-1.43-0.17-3.4-0.5-5.92
			c-0.34-2.52-0.5-4.07-0.5-4.67s0.21-1.12,0.62-1.58c0.41-0.46,0.98-0.69,1.68-0.69c0.71,0,1.27,0.23,1.68,0.69
			c0.41,0.46,0.62,0.98,0.62,1.56s-0.01,1.28-0.03,2.12c-0.02,0.83-0.03,1.54-0.03,2.12c2.88-4.32,6.42-6.48,10.64-6.48
			c3.15,0,5.59,0.97,7.33,2.91C463.57,740.62,464.44,742.96,464.44,745.72z"/>
		<path d="M494.23,739.39l-0.12,12.09c0,3.09,0.15,5.12,0.44,6.07c0.3,0.95,1.07,1.43,2.33,1.43c0.59,0,1.31-0.18,2.16-0.54
			c0.85-0.36,1.41-0.54,1.68-0.54c0.83,0,1.24,0.35,1.24,1.05s-0.73,1.43-2.19,2.19c-1.46,0.77-2.9,1.15-4.31,1.15
			c-3.43,0-5.14-2.17-5.14-6.53l-0.06-16.37c-1.3,0.1-2.21,0.15-2.72,0.15c-1.97,0-2.96-0.56-2.96-1.68s0.98-1.68,2.96-1.68
			c0.16,0,1.02,0.03,2.6,0.1l-0.12-5.71c0-1.7,0.75-2.55,2.25-2.55c1.5,0,2.25,0.85,2.25,2.55l-0.18,5.76l4.79-0.2
			c1.97,0,2.96,0.58,2.96,1.73c0,1.09-0.99,1.63-2.96,1.63C498.78,739.5,497.15,739.46,494.23,739.39z"/>
		<path d="M526.21,750.1l0.18,9.59c0,1.73-0.75,2.6-2.25,2.6c-1.81,0-2.72-1.2-2.72-3.6c0-2.4,0.39-5.75,1.18-10.07
			c0-1.43-0.17-3.38-0.5-5.87c-0.34-2.48-0.5-4.03-0.5-4.64s0.21-1.16,0.62-1.63c0.41-0.48,0.98-0.71,1.68-0.71
			c0.71,0,1.27,0.24,1.68,0.71c0.41,0.48,0.62,0.99,0.62,1.56c0,0.56-0.01,1.27-0.03,2.14c-0.02,0.87-0.03,1.59-0.03,2.17
			c0.79-1.73,2.02-3.26,3.69-4.59c1.67-1.33,3.4-1.99,5.17-1.99c1.77,0,3.14,0.31,4.11,0.94c0.97,0.63,1.45,1.3,1.45,2.01
			s-0.22,1.27-0.65,1.68c-0.43,0.41-1,0.61-1.68,0.61s-1.44-0.31-2.25-0.94c-0.81-0.63-1.45-0.94-1.92-0.94
			c-1.3,0-2.82,1.21-4.55,3.62C527.78,745.17,526.68,747.62,526.21,750.1z"/>
		<path d="M572.22,735.52c4.04,0,7.36,1.3,9.96,3.9c2.6,2.6,3.9,5.79,3.9,9.56c0,3.77-1.32,6.98-3.96,9.61
			c-2.64,2.64-5.97,3.95-9.99,3.95c-4.02,0-7.33-1.3-9.93-3.9c-2.6-2.6-3.9-5.79-3.9-9.56c0-3.77,1.31-6.98,3.93-9.61
			C564.85,736.84,568.18,735.52,572.22,735.52z M579.02,756.22c1.91-2.01,2.87-4.42,2.87-7.24s-0.92-5.22-2.75-7.19
			c-1.83-1.97-4.11-2.96-6.83-2.96c-2.72,0-5.03,1-6.94,3.01c-1.91,2.01-2.87,4.42-2.87,7.24c0,2.82,0.92,5.22,2.75,7.19
			c1.83,1.97,4.11,2.96,6.83,2.96C574.79,759.23,577.1,758.23,579.02,756.22z"/>
		<path d="M676.39,758.52c1.02,0,1.54,0.25,1.54,0.76c0,0.65-0.27,1.31-0.8,1.99c-0.53,0.68-1.37,1.02-2.51,1.02
			c-1.14,0-2.04-0.54-2.69-1.63c-0.65-1.09-1.11-2.82-1.39-5.2c-2.88,4.56-6.52,6.83-10.93,6.83c-2.56,0-4.77-0.71-6.62-2.14
			c-1.85-1.43-3.17-3.08-3.96-4.95c-0.79-1.87-1.18-3.74-1.18-5.61c0-3.71,1.3-6.94,3.9-9.69s5.93-4.13,9.99-4.13
			c2.96,0,5.75,0.83,8.39,2.5c0.08-4.73,0.12-8.19,0.12-10.38c0-2.19,0.19-3.55,0.56-4.08c0.37-0.53,0.98-0.79,1.83-0.79
			c0.85,0,1.54,0.3,2.07,0.89c0.53,0.59,0.8,1.47,0.8,2.63c0,1.16-0.08,2.58-0.24,4.26c-0.16,1.68-0.39,3.91-0.71,6.68
			c-0.32,2.77-0.57,5.28-0.77,7.52c0,4.15,0.18,7.4,0.53,9.74C674.68,757.09,675.37,758.35,676.39,758.52z M670.13,750.16v-8.11
			c-2.36-1.97-5.16-2.96-8.39-2.96c-2.52,0-4.74,1-6.65,3.01c-1.91,2.01-2.87,4.36-2.87,7.06c0,2.7,0.69,5.01,2.07,6.94
			c1.38,1.92,3.25,2.88,5.62,2.88C664.04,758.98,667.45,756.04,670.13,750.16z"/>
		<path d="M712.12,735.52c3.17,0,5.75,0.76,7.74,2.29c1.99,1.53,2.98,3.52,2.98,5.97s-1.23,4.31-3.69,5.58
			c-2.46,1.28-5.49,1.91-9.07,1.91c-2.05,0-4.55-0.25-7.51-0.77c0.24,2.38,1.27,4.43,3.1,6.15c1.83,1.72,3.87,2.58,6.12,2.58
			c1.34,0,2.58-0.16,3.72-0.48c1.14-0.32,2.01-0.67,2.6-1.05c1.58-1.05,2.61-1.58,3.1-1.58c0.49,0,0.89,0.13,1.18,0.38
			s0.44,0.57,0.44,0.94c0,0.95-1.13,2.04-3.4,3.26c-2.27,1.22-4.72,1.84-7.36,1.84c-4.1,0-7.35-1.24-9.75-3.72
			c-2.4-2.48-3.7-5.47-3.9-8.98c-2.09-0.54-3.13-1.43-3.13-2.65c0-0.51,0.17-0.91,0.5-1.2c0.33-0.29,0.74-0.43,1.21-0.43
			c0.47,0,1.06,0.15,1.77,0.46c0.87-3.06,2.51-5.58,4.94-7.55S708.95,735.52,712.12,735.52z M709.88,748.06
			c2.66,0,4.79-0.39,6.38-1.17c1.6-0.78,2.39-1.84,2.39-3.16s-0.52-2.47-1.57-3.44c-1.04-0.97-2.53-1.45-4.46-1.45
			c-2.6,0-4.79,0.84-6.56,2.52c-1.77,1.68-2.92,3.65-3.43,5.89C704.8,747.79,707.22,748.06,709.88,748.06z"/>
		<path d="M801.46,758.42l9.58-0.25c1.97,0,2.96,0.65,2.96,1.94s-0.99,1.94-2.96,1.94l-9.58-0.25l-10.34,0.25
			c-1.77,0-2.66-0.65-2.66-1.94c0-1.19,0.05-3.2,0.15-6.02c0.1-2.82,0.15-6.43,0.15-10.81c-0.35,0.03-0.75,0.05-1.18,0.05
			c-1.89,0-2.84-0.63-2.84-1.89c0-0.58,0.26-1.05,0.77-1.43c0.51-0.37,1.09-0.56,1.74-0.56s1.15,0.02,1.51,0.05
			c-0.08-6.83-0.22-10.96-0.41-12.39c-0.47-0.58-0.71-1.21-0.71-1.89c0-1.29,1.04-1.94,3.13-1.94l11.41,0.25l8.87-0.25
			c1.97,0,2.96,0.65,2.96,1.94c0,1.29-0.99,1.94-2.96,1.94l-8.87-0.25c-4.49,0-7.45,0.07-8.87,0.2c-0.2,4.45-0.3,8.62-0.3,12.5
			c1.73,0.07,3.11,0.1,4.14,0.1l10.64-0.25c0.91,0,1.63,0.18,2.16,0.54c0.53,0.36,0.8,0.84,0.8,1.45c0,1.26-0.99,1.89-2.96,1.89
			l-10.64-0.25c-1.1,0-2.48,0.03-4.14,0.1v5.05c0,5.07,0.1,8.4,0.3,10C796.06,758.35,798.78,758.42,801.46,758.42z"/>
		<path d="M862.16,758.52c1.02,0,1.54,0.25,1.54,0.76c0,0.65-0.27,1.31-0.8,1.99c-0.53,0.68-1.37,1.02-2.51,1.02
			c-1.14,0-2.04-0.54-2.69-1.63c-0.65-1.09-1.11-2.82-1.39-5.2c-2.88,4.56-6.52,6.83-10.93,6.83c-2.56,0-4.77-0.71-6.62-2.14
			c-1.85-1.43-3.17-3.08-3.96-4.95c-0.79-1.87-1.18-3.74-1.18-5.61c0-3.71,1.3-6.94,3.9-9.69s5.93-4.13,9.99-4.13
			c2.96,0,5.75,0.83,8.39,2.5c0.08-4.73,0.12-8.19,0.12-10.38c0-2.19,0.19-3.55,0.56-4.08c0.37-0.53,0.98-0.79,1.83-0.79
			c0.85,0,1.54,0.3,2.07,0.89c0.53,0.59,0.8,1.47,0.8,2.63c0,1.16-0.08,2.58-0.24,4.26c-0.16,1.68-0.39,3.91-0.71,6.68
			c-0.32,2.77-0.57,5.28-0.77,7.52c0,4.15,0.18,7.4,0.53,9.74C860.45,757.09,861.14,758.35,862.16,758.52z M855.9,750.16v-8.11
			c-2.36-1.97-5.16-2.96-8.39-2.96c-2.52,0-4.74,1-6.65,3.01c-1.91,2.01-2.87,4.36-2.87,7.06c0,2.7,0.69,5.01,2.07,6.94
			c1.38,1.92,3.25,2.88,5.62,2.88C849.81,758.98,853.22,756.04,855.9,750.16z"/>
		<path d="M888.58,739.96l-0.47,11.22c0,2.31,0.57,4.19,1.71,5.64c1.14,1.45,2.73,2.17,4.76,2.17c2.03,0,3.99-0.98,5.88-2.93
			s3.21-4.16,3.96-6.6l-0.18-11.07c0-1.73,0.75-2.6,2.25-2.6c1.81,0,2.72,1.2,2.72,3.6c0,2.4-0.39,5.75-1.18,10.07
			c0,2.55,0.22,4.63,0.65,6.25c0.43,1.62,0.95,2.52,1.54,2.73c0.24,0.1,0.52,0.17,0.86,0.2c0.33,0.03,0.57,0.08,0.71,0.15
			c0.14,0.07,0.21,0.2,0.21,0.41c0,0.92-0.33,1.67-0.98,2.24c-0.65,0.58-1.47,0.87-2.45,0.87c-2.48,0-3.72-2.17-3.72-6.53
			c-2.92,4.35-6.58,6.53-10.99,6.53c-3.15,0-5.6-1.01-7.33-3.03c-1.73-2.02-2.6-4.5-2.6-7.42l0.35-7.7c0-1.36-0.16-2.63-0.47-3.8
			c-0.32-1.17-0.47-2.01-0.47-2.52c0-0.51,0.24-0.98,0.71-1.4c0.47-0.42,1.08-0.64,1.83-0.64
			C887.67,735.77,888.58,737.17,888.58,739.96z"/>
		<path d="M954.6,756.53c0.99,0,1.48,0.45,1.48,1.35c0,0.9-1.14,1.9-3.43,3.01c-2.29,1.1-4.69,1.66-7.21,1.66
			c-4.14,0-7.59-1.32-10.34-3.95c-2.76-2.63-4.14-5.82-4.14-9.56c0-3.74,1.39-6.93,4.17-9.56c2.78-2.63,6.43-3.95,10.96-3.95
			c2.48,0,4.68,0.48,6.59,1.45s2.87,1.96,2.87,2.98c0,0.54-0.2,0.99-0.59,1.35c-0.39,0.36-0.85,0.54-1.36,0.54s-1.1-0.25-1.77-0.76
			c-2.05-1.5-4.14-2.24-6.27-2.24c-2.72,0-5.09,0.99-7.12,2.96c-2.03,1.97-3.04,4.37-3.04,7.19s1.02,5.24,3.07,7.24
			c2.05,2.01,4.59,3.01,7.63,3.01c2.32,0,4.59-0.68,6.8-2.04C953.64,756.75,954.21,756.53,954.6,756.53z"/>
		<path d="M1000,749.44c0,2.55,0.22,4.63,0.65,6.25c0.43,1.62,0.95,2.52,1.54,2.73c0.24,0.1,0.52,0.17,0.86,0.2
			c0.33,0.03,0.57,0.08,0.71,0.15c0.14,0.07,0.21,0.2,0.21,0.41c0,0.92-0.29,1.67-0.86,2.24c-0.57,0.58-1.43,0.87-2.57,0.87
			c-1.14,0-2.03-0.63-2.66-1.89c-0.63-1.26-0.95-2.87-0.95-4.84c-0.99,1.9-2.43,3.5-4.34,4.79s-4.06,1.94-6.44,1.94
			c-2.38,0-4.44-0.68-6.18-2.04c-3.15-2.48-4.73-6.03-4.73-10.66c0-3.71,1.24-6.94,3.72-9.69s5.67-4.13,9.58-4.13
			c2.96,0,5.52,0.87,7.68,2.6c0-1.73,0.75-2.6,2.25-2.6c1.81,0,2.72,1.2,2.72,3.6C1001.18,741.77,1000.78,745.12,1000,749.44z
			 M996.57,749.9l-0.3-7.85c-2.36-1.97-4.84-2.96-7.42-2.96s-4.8,1-6.65,3.01c-1.85,2.01-2.78,4.41-2.78,7.22
			c0,2.81,0.6,5.12,1.8,6.94c1.2,1.82,2.91,2.73,5.11,2.73c2.21,0,4.22-0.85,6.03-2.55C994.18,754.73,995.58,752.55,996.57,749.9z"
			/>
		<path d="M1046.57,756.53c0.99,0,1.48,0.45,1.48,1.35c0,0.9-1.14,1.9-3.43,3.01c-2.29,1.1-4.69,1.66-7.21,1.66
			c-4.14,0-7.59-1.32-10.34-3.95c-2.76-2.63-4.14-5.82-4.14-9.56c0-3.74,1.39-6.93,4.17-9.56c2.78-2.63,6.43-3.95,10.96-3.95
			c2.48,0,4.68,0.48,6.59,1.45s2.87,1.96,2.87,2.98c0,0.54-0.2,0.99-0.59,1.35c-0.39,0.36-0.85,0.54-1.36,0.54s-1.1-0.25-1.77-0.76
			c-2.05-1.5-4.14-2.24-6.27-2.24c-2.72,0-5.09,0.99-7.12,2.96c-2.03,1.97-3.04,4.37-3.04,7.19s1.02,5.24,3.07,7.24
			c2.05,2.01,4.59,3.01,7.63,3.01c2.32,0,4.59-0.68,6.8-2.04C1045.61,756.75,1046.18,756.53,1046.57,756.53z"/>
		<path d="M1071.28,724.81c0.83,0,1.44,0.23,1.83,0.69c0.39,0.46,0.59,1.04,0.59,1.73c0,0.7-0.28,1.39-0.83,2.09
			c-0.55,0.7-1.24,1.05-2.07,1.05c-0.83,0-1.45-0.24-1.86-0.71c-0.41-0.48-0.62-1.1-0.62-1.89s0.29-1.47,0.86-2.07
			C1069.75,725.11,1070.45,724.81,1071.28,724.81z M1072.93,749.03l0.3,10.71c0,1.7-0.75,2.55-2.25,2.55c-1.5,0-2.25-0.85-2.25-2.55
			l0.3-10.71l-0.3-10.71c0-1.7,0.75-2.55,2.25-2.55c1.5,0,2.25,0.85,2.25,2.55L1072.93,749.03z"/>
		<path d="M1108.31,735.52c4.04,0,7.36,1.3,9.96,3.9c2.6,2.6,3.9,5.79,3.9,9.56c0,3.77-1.32,6.98-3.96,9.61
			c-2.64,2.64-5.97,3.95-9.99,3.95s-7.33-1.3-9.93-3.9c-2.6-2.6-3.9-5.79-3.9-9.56c0-3.77,1.31-6.98,3.93-9.61
			C1100.94,736.84,1104.27,735.52,1108.31,735.52z M1115.1,756.22c1.91-2.01,2.87-4.42,2.87-7.24s-0.92-5.22-2.75-7.19
			c-1.83-1.97-4.11-2.96-6.83-2.96s-5.03,1-6.95,3.01c-1.91,2.01-2.87,4.42-2.87,7.24c0,2.82,0.92,5.22,2.75,7.19
			s4.11,2.96,6.83,2.96C1110.88,759.23,1113.19,758.23,1115.1,756.22z M1114.31,724.96c0,1.46-0.9,2.92-2.69,4.39
			s-3.22,2.19-4.29,2.19c-1.06,0-1.6-0.36-1.6-1.07c0-0.41,0.32-0.92,0.95-1.53c0.63-0.61,1.09-1.08,1.39-1.4
			c0.29-0.32,0.65-0.92,1.06-1.79c0.41-0.87,0.85-1.54,1.3-2.01c0.45-0.48,1.03-0.71,1.74-0.71c0.71,0,1.24,0.2,1.6,0.59
			C1114.13,724,1114.31,724.45,1114.31,724.96z"/>
		<path d="M1168.27,745.72l-0.3,8.01c0,0.95,0.01,1.67,0.03,2.17c0.02,0.49,0.14,1,0.35,1.53s0.48,0.85,0.8,0.97
			c0.31,0.12,0.64,0.2,0.97,0.23c0.33,0.03,0.57,0.08,0.71,0.15c0.14,0.07,0.21,0.2,0.21,0.41c0,0.88-0.33,1.62-0.97,2.22
			c-0.65,0.59-1.41,0.89-2.28,0.89c-1.5,0-2.53-0.51-3.1-1.53c-0.57-1.02-0.86-2.52-0.86-4.49l0.24-9.38c0-2.31-0.57-4.18-1.71-5.61
			c-1.14-1.43-2.73-2.14-4.76-2.14c-2.03,0-3.99,0.97-5.88,2.91c-1.89,1.94-3.21,4.13-3.96,6.58l0.18,11.07
			c0,1.73-0.75,2.6-2.25,2.6c-1.81,0-2.72-1.2-2.72-3.6c0-2.4,0.39-5.75,1.18-10.07c0-1.43-0.17-3.4-0.5-5.92
			c-0.34-2.52-0.5-4.07-0.5-4.67s0.21-1.12,0.62-1.58s0.98-0.69,1.68-0.69s1.27,0.23,1.68,0.69c0.41,0.46,0.62,0.98,0.62,1.56
			s-0.01,1.28-0.03,2.12c-0.02,0.83-0.03,1.54-0.03,2.12c2.88-4.32,6.42-6.48,10.64-6.48c3.15,0,5.59,0.97,7.33,2.91
			C1167.4,740.62,1168.27,742.96,1168.27,745.72z"/>
		<path d="M1244.81,758.42l5.2-0.25c0.91,0,1.63,0.18,2.16,0.54c0.53,0.36,0.8,0.83,0.8,1.4s-0.28,1.05-0.83,1.43
			c-0.55,0.37-1.26,0.56-2.13,0.56l-7.63-0.31l-7.8,0.25c-1.97,0-2.96-0.65-2.96-1.94s0.99-1.94,2.96-1.94
			c0.43,0,2.23,0.08,5.38,0.25c0.2-7.65,0.29-12.89,0.29-15.73c0-2.84-0.1-8.08-0.29-15.73c-3.47,0.14-5.26,0.2-5.38,0.2
			c-1.89,0-2.84-0.63-2.84-1.89c0-0.61,0.26-1.1,0.77-1.45c0.51-0.36,1.2-0.54,2.07-0.54l7.8,0.25c1.34,0,2.9-0.05,4.67-0.15
			c1.77-0.1,2.93-0.15,3.46-0.15c0.53,0,1.08,0.2,1.66,0.59c0.57,0.39,0.86,0.88,0.86,1.45s-0.28,1.04-0.83,1.4
			c-0.55,0.36-1.13,0.54-1.74,0.54c-0.61,0-2.49-0.08-5.64-0.25c-0.2,7.82-0.3,13.11-0.3,15.86S1244.61,750.77,1244.81,758.42z"/>
		<path d="M1298.6,745.72l-0.3,8.01c0,0.95,0.01,1.67,0.03,2.17c0.02,0.49,0.14,1,0.35,1.53s0.48,0.85,0.8,0.97
			c0.31,0.12,0.64,0.2,0.97,0.23c0.33,0.03,0.57,0.08,0.71,0.15c0.14,0.07,0.21,0.2,0.21,0.41c0,0.88-0.33,1.62-0.97,2.22
			c-0.65,0.59-1.41,0.89-2.28,0.89c-1.5,0-2.53-0.51-3.1-1.53c-0.57-1.02-0.86-2.52-0.86-4.49l0.24-9.38c0-2.31-0.57-4.18-1.71-5.61
			c-1.14-1.43-2.73-2.14-4.76-2.14c-2.03,0-3.99,0.97-5.88,2.91c-1.89,1.94-3.21,4.13-3.96,6.58l0.18,11.07
			c0,1.73-0.75,2.6-2.25,2.6c-1.81,0-2.72-1.2-2.72-3.6c0-2.4,0.39-5.75,1.18-10.07c0-1.43-0.17-3.4-0.5-5.92
			c-0.34-2.52-0.5-4.07-0.5-4.67s0.21-1.12,0.62-1.58s0.98-0.69,1.68-0.69s1.27,0.23,1.68,0.69c0.41,0.46,0.62,0.98,0.62,1.56
			s-0.01,1.28-0.03,2.12c-0.02,0.83-0.03,1.54-0.03,2.12c2.88-4.32,6.42-6.48,10.64-6.48c3.15,0,5.59,0.97,7.33,2.91
			C1297.73,740.62,1298.6,742.96,1298.6,745.72z"/>
		<path d="M1327.91,736.28l5.73-0.1c0.63,0,1.16,0.14,1.6,0.41c0.43,0.27,0.65,0.68,0.65,1.22c0,1.02-0.75,1.53-2.25,1.53l-5.73-0.1
			v3.42c0,4.69,0.06,8.64,0.18,11.83c0.12,3.2,0.18,5.06,0.18,5.58c0,0.53-0.21,1.03-0.62,1.5c-0.41,0.48-0.98,0.71-1.68,0.71
			c-0.71,0-1.27-0.24-1.68-0.71c-0.41-0.48-0.62-0.98-0.62-1.5c0-0.53,0.02-1.59,0.06-3.19c0.2-4.79,0.29-9.54,0.29-14.23v-3.42
			l-3.01,0.1c-1.5,0-2.25-0.51-2.25-1.53c0-0.54,0.22-0.95,0.65-1.22c0.43-0.27,0.97-0.41,1.6-0.41l2.96,0.1v-4.33
			c0-3.16,0.72-5.44,2.16-6.83c1.44-1.39,3.1-2.09,4.99-2.09c1.89,0,3.46,0.31,4.7,0.94c1.24,0.63,1.86,1.3,1.86,2.01
			c0,1.12-0.55,1.68-1.66,1.68c-0.51,0-1.18-0.2-2.01-0.61c-0.83-0.41-1.64-0.61-2.42-0.61c-2.44,0-3.67,1.99-3.67,5.97V736.28z"/>
		<path d="M1378.57,749.44c0,2.55,0.22,4.63,0.65,6.25c0.43,1.62,0.95,2.52,1.54,2.73c0.24,0.1,0.52,0.17,0.86,0.2
			c0.33,0.03,0.57,0.08,0.71,0.15c0.14,0.07,0.21,0.2,0.21,0.41c0,0.92-0.29,1.67-0.86,2.24c-0.57,0.58-1.43,0.87-2.57,0.87
			c-1.14,0-2.03-0.63-2.66-1.89c-0.63-1.26-0.95-2.87-0.95-4.84c-0.99,1.9-2.43,3.5-4.34,4.79s-4.06,1.94-6.44,1.94
			c-2.38,0-4.44-0.68-6.18-2.04c-3.15-2.48-4.73-6.03-4.73-10.66c0-3.71,1.24-6.94,3.72-9.69s5.67-4.13,9.58-4.13
			c2.96,0,5.52,0.87,7.68,2.6c0-1.73,0.75-2.6,2.25-2.6c1.81,0,2.72,1.2,2.72,3.6C1379.75,741.77,1379.36,745.12,1378.57,749.44z
			 M1375.14,749.9l-0.3-7.85c-2.36-1.97-4.84-2.96-7.42-2.96s-4.8,1-6.65,3.01c-1.85,2.01-2.78,4.41-2.78,7.22
			c0,2.81,0.6,5.12,1.8,6.94c1.2,1.82,2.91,2.73,5.11,2.73c2.21,0,4.22-0.85,6.03-2.55C1372.75,754.73,1374.15,752.55,1375.14,749.9
			z"/>
		<path d="M1428.1,745.72l-0.3,8.01c0,0.95,0.01,1.67,0.03,2.17c0.02,0.49,0.14,1,0.35,1.53s0.48,0.85,0.8,0.97
			c0.31,0.12,0.64,0.2,0.97,0.23c0.33,0.03,0.57,0.08,0.71,0.15c0.14,0.07,0.21,0.2,0.21,0.41c0,0.88-0.33,1.62-0.97,2.22
			c-0.65,0.59-1.41,0.89-2.28,0.89c-1.5,0-2.53-0.51-3.1-1.53c-0.57-1.02-0.86-2.52-0.86-4.49l0.24-9.38c0-2.31-0.57-4.18-1.71-5.61
			c-1.14-1.43-2.73-2.14-4.76-2.14c-2.03,0-3.99,0.97-5.88,2.91c-1.89,1.94-3.21,4.13-3.96,6.58l0.18,11.07
			c0,1.73-0.75,2.6-2.25,2.6c-1.81,0-2.72-1.2-2.72-3.6c0-2.4,0.39-5.75,1.18-10.07c0-1.43-0.17-3.4-0.5-5.92
			c-0.34-2.52-0.5-4.07-0.5-4.67s0.21-1.12,0.62-1.58s0.98-0.69,1.68-0.69s1.27,0.23,1.68,0.69c0.41,0.46,0.62,0.98,0.62,1.56
			s-0.01,1.28-0.03,2.12c-0.02,0.83-0.03,1.54-0.03,2.12c2.88-4.32,6.42-6.48,10.64-6.48c3.15,0,5.59,0.97,7.33,2.91
			C1427.23,740.62,1428.1,742.96,1428.1,745.72z"/>
		<path d="M1457.89,739.39l-0.12,12.09c0,3.09,0.15,5.12,0.44,6.07c0.3,0.95,1.07,1.43,2.33,1.43c0.59,0,1.31-0.18,2.16-0.54
			c0.85-0.36,1.41-0.54,1.68-0.54c0.83,0,1.24,0.35,1.24,1.05s-0.73,1.43-2.19,2.19c-1.46,0.77-2.9,1.15-4.32,1.15
			c-3.43,0-5.14-2.17-5.14-6.53l-0.06-16.37c-1.3,0.1-2.21,0.15-2.72,0.15c-1.97,0-2.96-0.56-2.96-1.68s0.98-1.68,2.96-1.68
			c0.16,0,1.02,0.03,2.6,0.1l-0.12-5.71c0-1.7,0.75-2.55,2.25-2.55c1.5,0,2.25,0.85,2.25,2.55l-0.18,5.76l4.79-0.2
			c1.97,0,2.96,0.58,2.96,1.73c0,1.09-0.99,1.63-2.96,1.63C1462.44,739.5,1460.8,739.46,1457.89,739.39z"/>
		<path d="M1487.97,724.81c0.83,0,1.44,0.23,1.83,0.69c0.39,0.46,0.59,1.04,0.59,1.73c0,0.7-0.28,1.39-0.83,2.09
			c-0.55,0.7-1.24,1.05-2.07,1.05c-0.83,0-1.45-0.24-1.86-0.71c-0.41-0.48-0.62-1.1-0.62-1.89s0.29-1.47,0.86-2.07
			C1486.44,725.11,1487.14,724.81,1487.97,724.81z M1489.63,749.03l0.3,10.71c0,1.7-0.75,2.55-2.25,2.55c-1.5,0-2.25-0.85-2.25-2.55
			l0.3-10.71l-0.3-10.71c0-1.7,0.75-2.55,2.25-2.55c1.5,0,2.25,0.85,2.25,2.55L1489.63,749.03z"/>
		<path d="M1516.93,742.66l0.3,17.08c0,1.7-0.75,2.55-2.25,2.55c-1.5,0-2.25-0.85-2.25-2.55l0.3-17.08l-0.3-17.08
			c0-1.7,0.75-2.55,2.25-2.55c1.5,0,2.25,0.85,2.25,2.55L1516.93,742.66z"/>
	</g>
</g>
<g id="Capa_11">
</g>
<g id="Capa_8">
	<line fill="#ECBE1F" x1="997.5" y1="400.63" x2="997.5" y2="607.43"/>
	<polyline fill="#009ACB" points="998.5,403.54 1074,342.81 1073.38,396.79 1036.25,423.78 1036.25,574.56 998.5,610 	"/>
	<path fill="#009ACB" d="M1502.99,565.53"/>
	<path fill="#009ACB" d="M753,639"/>
	<polyline fill="#E63B00" points="753,640 753,433 820,372 820,378.02 	"/>
	<polyline fill="#E63B00" points="753,588 820,536.32 820,588 753,643.07 753,588 	"/>
	<polyline fill="#E63B00" points="757,523.6 824,435 824,523.6 757,618 757,523.6 	"/>
	<polygon fill="#ECBE1F" points="602,344.91 602,543.59 526.65,612.52 526.65,405.73 	"/>
	<path fill="#009ACB" d="M998.5,610"/>
	<line fill="#009ACB" x1="998.5" y1="610" x2="999" y2="610"/>
	<path fill="#009ACB" d="M998.5,608.62"/>
	<path fill="#009ACB" d="M998.5,608.31"/>
	<rect x="1032" y="420" fill="#009ACB" width="37" height="3"/>
	<g>
		<g>
			<path fill="#009ACB" d="M1030.29,419.78c0,0,0,0.01,0,0.01c-0.01,0.21,0.04,0.4,0.13,0.58c0.06,0.19,0.16,0.35,0.31,0.48
				c0.14,0.15,0.3,0.25,0.48,0.31c0.18,0.09,0.37,0.14,0.58,0.13c0.13-0.02,0.27-0.04,0.4-0.05c0.25-0.07,0.47-0.2,0.66-0.39
				c0.08-0.1,0.16-0.2,0.23-0.3c0.14-0.23,0.2-0.49,0.2-0.76c0,0,0-0.01,0-0.01c0.01-0.21-0.04-0.4-0.13-0.58
				c-0.06-0.19-0.16-0.35-0.31-0.48c-0.14-0.15-0.3-0.25-0.48-0.31c-0.18-0.09-0.37-0.14-0.58-0.13c-0.13,0.02-0.27,0.04-0.4,0.05
				c-0.25,0.07-0.47,0.2-0.66,0.39c-0.08,0.1-0.16,0.2-0.23,0.3C1030.36,419.26,1030.29,419.51,1030.29,419.78L1030.29,419.78z"/>
		</g>
	</g>
	<g>
		<g>
			<path fill="#009ACB" d="M1031.67,421.86c0.13,0.04,0.26,0.07,0.39,0.1c0.26,0.05,0.52,0.08,0.78,0.1
				c0.21,0.01,0.4-0.04,0.58-0.13c0.19-0.06,0.35-0.16,0.48-0.31c0.15-0.14,0.25-0.3,0.31-0.48c0.09-0.18,0.14-0.37,0.13-0.58
				c-0.02-0.13-0.04-0.27-0.05-0.4c-0.07-0.25-0.2-0.47-0.39-0.66c-0.1-0.08-0.2-0.16-0.3-0.23c-0.23-0.14-0.49-0.2-0.76-0.2
				c-0.09,0-0.18-0.01-0.26-0.02c0.13,0.02,0.27,0.04,0.4,0.05c-0.17-0.02-0.35-0.06-0.51-0.12c-0.2-0.06-0.4-0.07-0.6-0.03
				c-0.2,0.01-0.39,0.07-0.56,0.18c-0.17,0.09-0.32,0.22-0.42,0.39c-0.13,0.14-0.22,0.31-0.27,0.51c-0.02,0.13-0.04,0.27-0.05,0.4
				c0,0.27,0.07,0.52,0.2,0.76c0.08,0.1,0.16,0.2,0.23,0.3C1031.19,421.66,1031.41,421.79,1031.67,421.86L1031.67,421.86z"/>
		</g>
	</g>
	<g>
		<g>
			<path fill="#009ACB" d="M1034.08,422.2c0.19,0.01,0.37,0.01,0.56-0.02c0.31-0.04,0.62-0.07,0.92-0.17
				c0.2-0.05,0.37-0.14,0.51-0.27c0.16-0.11,0.29-0.25,0.39-0.42c0.11-0.17,0.17-0.36,0.18-0.56c0.04-0.2,0.04-0.4-0.03-0.6
				c-0.05-0.12-0.1-0.24-0.15-0.36c-0.13-0.23-0.31-0.4-0.54-0.54c-0.12-0.05-0.24-0.1-0.36-0.15c-0.27-0.07-0.53-0.07-0.8,0
				c-0.16,0.05-0.33,0.09-0.49,0.11c0.13-0.02,0.27-0.04,0.4-0.05c-0.19,0.03-0.39,0.03-0.59,0.02c-0.21-0.01-0.4,0.04-0.58,0.13
				c-0.19,0.06-0.35,0.16-0.48,0.31c-0.15,0.14-0.25,0.3-0.31,0.48c-0.09,0.18-0.14,0.37-0.13,0.58c0.02,0.13,0.04,0.27,0.05,0.4
				c0.07,0.25,0.2,0.47,0.39,0.66c0.1,0.08,0.2,0.16,0.3,0.23C1033.56,422.13,1033.81,422.2,1034.08,422.2L1034.08,422.2z"/>
		</g>
	</g>
	<polyline fill="#009ACB" points="1031,421 1073.5,386.31 1070,384 1021,418 1027,425 1031,421 	"/>
</g>
<g id="Capa_7">
</g>
<g id="Capa_10">
	<path fill="#8FB816" d="M1238.08,421.34c0,0,0,209.06,0,206.36c0-2.7,24.33-25.63,24.33-26.98c0-1.35,0-201.72,0-201.72
		L1238.08,421.34"/>
	<path fill="#8FB816" d="M1262.41,600.72"/>
	<path fill="#8FB816" d="M1262,601"/>
</g>
<g id="Capa_4">
	<polyline fill="#ECBE1F" points="790.7,403.82 866.17,343 1046.33,343 979.38,403.82 	"/>
	<polyline fill="#ECBE1F" points="809.9,403.82 885.37,343 1065.52,343 998.57,403.82 	"/>
	<polyline fill="#E98909" points="1326,360.52 1238.9,421.31 1031,421.31 1108.26,360.52 	"/>
	<polyline fill="#8DB815" points="1447.16,402.82 1514.11,341 1333.96,341 1258.49,402.82 	"/>
	<polyline fill="#ECBE1F" points="735.06,434.82 802.01,374 621.85,374 546.39,434.82 	"/>
	<polyline fill="#ECBE1F" points="828,374 753.09,435 574.27,435 640.72,374 	"/>
	<polyline fill="#8FB816" points="338.15,405.82 413.62,345 593.77,345 526.82,405.82 	"/>
	<path fill="#8FB816" d="M1469,605"/>
	<polyline fill="#8FB816" points="413.41,345 346.46,406 526.61,406 602.08,345 	"/>
	<polyline fill="#ECBE1F" points="885.55,343 818.6,404 998.76,404 1074.23,343 	"/>
	<polyline fill="#009ACB" points="1022,583 1022,591.2 997,610.67 998.04,578.9 1009.5,569.67 	"/>
	<polyline fill="#8DB815" points="1263,600 1263,608.2 1238,627.67 1239.04,595.9 1250.5,586.67 	"/>
	<polyline fill="#009ACB" points="1036,572 1036,580.2 1011,599.67 1012.04,567.9 1023.5,558.67 	"/>
	<polyline fill="#8FB816" points="526.86,406 600,345 403.19,345 320.75,406 	"/>
	<rect x="1259.95" y="402.59" fill="#ECBE1F" width="206.79" height="207.41"/>
	<polyline fill="#8DB815" points="1352.7,341 1285.75,402 1465.9,402 1541.37,341 	"/>
	<polyline fill="#8DB815" points="1465.17,404 1538,341 1342.03,341 1259.94,404 	"/>
	<path fill="#8FB816" d="M1238.13,421.31c0,0,0,208.8,0,206.11c0-2.69,24.33-25.59,24.33-26.94c0-1.35,0-201.47,0-201.47
		L1238.13,421.31"/>
</g>
<g id="Capa_9">
</g>
<g id="Capa_3">
	<rect x="547.07" y="435" fill="#E98909" width="205.93" height="208.51"/>
	<rect x="791.7" y="403.63" fill="#8FB816" width="206.79" height="206.79"/>
	<rect x="1031.29" y="420.91" fill="#E63B00" width="206.79" height="206.79"/>
	<rect x="320.6" y="405.8" fill="#009ACB" width="206.79" height="206.79"/>
</g>
<g id="Capa_2">
	<g id="Capa_5">
		<g>
			<rect x="336.4" y="415.39" fill="none" width="275.19" height="196.74"/>
			<path fill="#FFFFFF" stroke="#FFFFFF" stroke-miterlimit="10" d="M438.84,511.18v35.45c0,5.6-1.27,9.8-3.81,12.6
				s-5.89,4.2-10.06,4.2c-4.04,0-7.31-1.4-9.81-4.2c-2.51-2.8-3.76-7-3.76-12.6v-42.48c0-6.7-0.23-11.91-0.68-15.63
				c-0.46-3.71-1.69-6.75-3.71-9.13c-2.02-2.38-5.21-3.56-9.57-3.56c-8.73,0-14.47,3-17.24,8.98c-2.77,5.99-4.15,14.58-4.15,25.78
				v36.04c0,5.53-1.25,9.72-3.76,12.55c-2.51,2.83-5.81,4.25-9.91,4.25c-4.04,0-7.34-1.42-9.91-4.25
				c-2.57-2.83-3.86-7.01-3.86-12.55v-76.27c0-5.01,1.16-8.82,3.47-11.43c2.31-2.6,5.35-3.91,9.13-3.91c3.65,0,6.69,1.22,9.13,3.66
				S374,464.5,374,468.8v2.54c4.62-5.53,9.57-9.6,14.84-12.21c5.27-2.6,11.13-3.91,17.58-3.91c6.7,0,12.47,1.33,17.29,4
				c4.82,2.67,8.79,6.71,11.91,12.11c4.49-5.47,9.31-9.52,14.45-12.16c5.14-2.64,10.84-3.96,17.09-3.96c7.29,0,13.57,1.43,18.85,4.3
				c5.27,2.87,9.21,6.97,11.82,12.3c2.28,4.82,3.42,12.4,3.42,22.75v52.05c0,5.6-1.27,9.8-3.81,12.6s-5.89,4.2-10.06,4.2
				c-4.04,0-7.34-1.42-9.91-4.25c-2.57-2.83-3.86-7.01-3.86-12.55V501.8c0-5.73-0.24-10.32-0.73-13.77
				c-0.49-3.45-1.81-6.35-3.96-8.69s-5.4-3.52-9.77-3.52c-3.52,0-6.85,1.04-10.01,3.13c-3.16,2.08-5.62,4.88-7.37,8.4
				C439.82,491.84,438.84,499.79,438.84,511.18z"/>
		</g>
	</g>
	<g id="Capa_6">
		<g>
			<rect x="623.69" y="472.56" fill="none" width="325.2" height="264.32"/>
			<path fill="#FFFFFF" stroke="#FFFFFF" stroke-miterlimit="10" d="M649.58,498.44c-3.53,0-6.54-1.08-9.05-3.25
				c-2.5-2.16-3.76-5.23-3.76-9.18c0-3.59,1.28-6.54,3.85-8.86c2.57-2.32,5.55-3.48,8.95-3.48c3.28,0,6.18,1.05,8.72,3.15
				c2.54,2.1,3.8,5.17,3.8,9.18c0,3.9-1.24,6.94-3.71,9.14C655.92,497.34,652.98,498.44,649.58,498.44z M662.1,524.6v73.2
				c0,5.07-1.21,8.91-3.62,11.5s-5.47,3.9-9.18,3.9s-6.73-1.33-9.05-3.99s-3.48-6.46-3.48-11.41v-72.46c0-5.01,1.16-8.78,3.48-11.32
				c2.32-2.54,5.33-3.8,9.05-3.8s6.77,1.27,9.18,3.8C660.9,516.56,662.1,520.08,662.1,524.6z"/>
		</g>
		<g>
			<rect x="831.34" y="417.38" fill="none" width="274.66" height="249.62"/>
			<path fill="#FFFFFF" stroke="#FFFFFF" stroke-miterlimit="10" d="M940.71,532.41c0,3.32-0.99,6.87-2.98,10.64
				c-1.99,3.78-5.01,7.37-9.08,10.79c-4.07,3.42-9.2,6.17-15.38,8.25c-6.19,2.08-13.15,3.13-20.9,3.13
				c-16.47,0-29.33-4.8-38.57-14.4c-9.25-9.6-13.87-22.48-13.87-38.62c0-10.94,2.11-20.61,6.35-29c4.23-8.4,10.35-14.89,18.36-19.48
				s17.58-6.88,28.71-6.88c6.9,0,13.23,1.01,18.99,3.03c5.76,2.02,10.64,4.62,14.65,7.81c4,3.19,7.06,6.59,9.18,10.21
				c2.11,3.61,3.17,6.98,3.17,10.11c0,3.19-1.19,5.89-3.56,8.11c-2.38,2.21-5.26,3.32-8.64,3.32c-2.21,0-4.05-0.57-5.52-1.71
				c-1.46-1.14-3.11-2.98-4.93-5.52c-3.26-4.95-6.66-8.66-10.21-11.13c-3.55-2.47-8.06-3.71-13.53-3.71
				c-7.88,0-14.23,3.08-19.04,9.23c-4.82,6.15-7.23,14.57-7.23,25.24c0,5.01,0.62,9.62,1.86,13.82c1.24,4.2,3.03,7.78,5.37,10.74
				c2.34,2.96,5.18,5.21,8.5,6.74c3.32,1.53,6.97,2.29,10.94,2.29c5.34,0,9.91-1.24,13.72-3.71c3.81-2.47,7.18-6.25,10.11-11.33
				c1.63-2.99,3.38-5.34,5.27-7.03c1.89-1.69,4.2-2.54,6.93-2.54c3.25,0,5.96,1.24,8.11,3.71
				C939.64,526.98,940.71,529.62,940.71,532.41z"/>
		</g>
		<g>
			<rect x="1073.97" y="433.07" fill="none" width="272.03" height="222.93"/>
			<path fill="#FFFFFF" stroke="#FFFFFF" stroke-miterlimit="10" d="M1187.55,526.91c0,7.94-1.24,15.27-3.71,21.97
				c-2.47,6.71-6.05,12.47-10.74,17.29c-4.69,4.82-10.29,8.51-16.8,11.08c-6.51,2.57-13.83,3.86-21.97,3.86
				c-8.07,0-15.33-1.3-21.78-3.91s-12.03-6.33-16.75-11.18c-4.72-4.85-8.3-10.58-10.74-17.19c-2.44-6.61-3.66-13.92-3.66-21.92
				c0-8.07,1.24-15.46,3.71-22.17c2.47-6.7,6.02-12.43,10.64-17.19c4.62-4.75,10.22-8.41,16.8-10.99
				c6.58-2.57,13.83-3.86,21.78-3.86c8.07,0,15.4,1.3,21.97,3.91c6.58,2.6,12.21,6.32,16.89,11.13c4.69,4.82,8.25,10.55,10.69,17.19
				S1187.55,518.9,1187.55,526.91z M1160.79,526.91c0-10.87-2.39-19.34-7.18-25.39s-11.21-9.08-19.29-9.08
				c-5.21,0-9.8,1.35-13.77,4.05c-3.97,2.7-7.03,6.69-9.18,11.96s-3.22,11.43-3.22,18.46c0,6.97,1.06,13.05,3.17,18.26
				c2.12,5.21,5.14,9.2,9.08,11.96c3.94,2.77,8.58,4.15,13.92,4.15c8.07,0,14.5-3.04,19.29-9.13
				C1158.4,546.07,1160.79,537.65,1160.79,526.91z"/>
		</g>
		<g>
			<rect x="1311.85" y="413.68" fill="none" width="285.15" height="226.32"/>
			<path fill="#FFFFFF" stroke="#FFFFFF" stroke-miterlimit="10" d="M1411.46,526.86c0,7.36-1.79,13.66-5.37,18.9
				c-3.58,5.24-8.87,9.21-15.87,11.91c-7,2.7-15.51,4.05-25.54,4.05c-9.57,0-17.77-1.46-24.61-4.39s-11.88-6.59-15.14-10.99
				c-3.26-4.39-4.88-8.8-4.88-13.23c0-2.93,1.04-5.44,3.13-7.52c2.08-2.08,4.72-3.13,7.91-3.13c2.8,0,4.95,0.68,6.45,2.05
				c1.5,1.37,2.93,3.29,4.3,5.76c2.73,4.75,6.01,8.3,9.81,10.64s9,3.52,15.58,3.52c5.34,0,9.72-1.19,13.13-3.56
				c3.42-2.38,5.13-5.09,5.13-8.15c0-4.69-1.77-8.11-5.32-10.25c-3.55-2.15-9.39-4.2-17.53-6.15c-9.18-2.28-16.65-4.67-22.41-7.18
				c-5.76-2.51-10.37-5.81-13.82-9.91c-3.45-4.1-5.18-9.15-5.18-15.14c0-5.34,1.59-10.38,4.79-15.14
				c3.19-4.75,7.89-8.54,14.11-11.38c6.22-2.83,13.72-4.25,22.51-4.25c6.9,0,13.1,0.72,18.6,2.15c5.5,1.43,10.09,3.35,13.77,5.76
				c3.68,2.41,6.48,5.08,8.4,8.01c1.92,2.93,2.88,5.8,2.88,8.59c0,3.06-1.03,5.57-3.08,7.52s-4.96,2.93-8.74,2.93
				c-2.73,0-5.06-0.78-6.98-2.34c-1.92-1.56-4.12-3.91-6.59-7.03c-2.02-2.6-4.39-4.69-7.13-6.25s-6.45-2.34-11.13-2.34
				c-4.82,0-8.82,1.03-12.01,3.08c-3.19,2.05-4.79,4.61-4.79,7.67c0,2.8,1.17,5.09,3.52,6.88c2.34,1.79,5.5,3.27,9.47,4.44
				c3.97,1.17,9.44,2.6,16.41,4.3c8.27,2.02,15.02,4.43,20.26,7.23c5.24,2.8,9.21,6.1,11.91,9.91
				C1410.11,517.63,1411.46,521.98,1411.46,526.86z"/>
		</g>
		<path fill="#FFFFFF" stroke="#FFFFFF" stroke-miterlimit="10" d="M1535.78,536.41"/>
		<polyline fill="#009ACB" points="1540.2,341.78 1540.35,555.74 1466.8,610.42 1466.79,609.38 1465.57,402.49 		"/>
		<path fill="#FFFFFF" stroke="#FFFFFF" stroke-miterlimit="10" d="M1262.41,600.72"/>
		<rect x="1258.76" y="402.64" fill="#ECBE1F" width="206.79" height="207.36"/>
		<g>
			<rect x="1306.63" y="415.42" fill="none" width="272.03" height="222.93"/>
			<path fill="#FFFFFF" stroke="#FFFFFF" stroke-miterlimit="10" d="M1406.24,528.59c0,7.36-1.79,13.66-5.37,18.9
				c-3.58,5.24-8.87,9.21-15.87,11.91c-7,2.7-15.51,4.05-25.54,4.05c-9.57,0-17.77-1.46-24.61-4.39s-11.88-6.59-15.14-10.99
				c-3.26-4.39-4.88-8.8-4.88-13.23c0-2.93,1.04-5.44,3.13-7.52c2.08-2.08,4.72-3.13,7.91-3.13c2.8,0,4.95,0.68,6.45,2.05
				c1.5,1.37,2.93,3.29,4.3,5.76c2.73,4.75,6.01,8.3,9.81,10.64s9,3.52,15.58,3.52c5.34,0,9.72-1.19,13.13-3.56
				c3.42-2.38,5.13-5.09,5.13-8.15c0-4.69-1.77-8.11-5.32-10.25c-3.55-2.15-9.39-4.2-17.53-6.15c-9.18-2.28-16.65-4.67-22.41-7.18
				c-5.76-2.51-10.37-5.81-13.82-9.91c-3.45-4.1-5.18-9.15-5.18-15.14c0-5.34,1.59-10.38,4.79-15.14
				c3.19-4.75,7.89-8.54,14.11-11.38c6.22-2.83,13.72-4.25,22.51-4.25c6.9,0,13.1,0.72,18.6,2.15c5.5,1.43,10.09,3.35,13.77,5.76
				c3.68,2.41,6.48,5.08,8.4,8.01c1.92,2.93,2.88,5.8,2.88,8.59c0,3.06-1.03,5.57-3.08,7.52s-4.96,2.93-8.74,2.93
				c-2.73,0-5.06-0.78-6.98-2.34c-1.92-1.56-4.12-3.91-6.59-7.03c-2.02-2.6-4.39-4.69-7.13-6.25s-6.45-2.34-11.13-2.34
				c-4.82,0-8.82,1.03-12.01,3.08c-3.19,2.05-4.79,4.61-4.79,7.67c0,2.8,1.17,5.09,3.52,6.88c2.34,1.79,5.5,3.27,9.47,4.44
				c3.97,1.17,9.44,2.6,16.41,4.3c8.27,2.02,15.02,4.43,20.26,7.23c5.24,2.8,9.21,6.1,11.91,9.91
				C1404.89,519.37,1406.24,523.71,1406.24,528.59z"/>
		</g>
		<path fill="#ECBE1F" d="M1542,549"/>
		<path fill="#009ACB" d="M1540,551l-73,58L1540,551z"/>
		<polygon fill="#009ACB" points="1540,556 1467,609 1540,551 		"/>
	</g>
	<g id="Capa_12">
	</g>
	<g>
	</g>
	<g>
	</g>
	<g>
	</g>
	<g>
	</g>
	<g>
	</g>
	<g>
	</g>
	<g>
	</g>
	<g>
	</g>
	<g>
	</g>
	<g>
	</g>
	<g>
	</g>
	<g>
	</g>
	<g>
	</g>
	<g>
	</g>
	<g>
	</g>
</g>
</svg>
