<svg width="119" height="104" viewBox="0 0 119 104" fill="none" xmlns="http://www.w3.org/2000/svg">
<g id="phone">
<g id="Group">
<g id="Group_2">
<path id="Ellipse 1" d="M119 52C119 80.7188 92.3609 104 59.5 104C26.6391 104 0 80.7188 0 52C0 23.2812 26.6391 0 59.5 0C92.3609 0 119 23.2812 119 52Z" fill="#F06422"/>
<path id="Vector" d="M85.1855 61.6959C81.5121 61.6959 77.9052 61.1022 74.4872 59.935C72.8124 59.3447 70.7535 59.8863 69.7313 60.9711L62.9849 66.2337C55.161 61.9181 50.3417 56.9397 46.2223 48.9157L51.1653 42.126C52.4495 40.8008 52.9101 38.8649 52.3582 37.0485C51.2239 33.498 50.6476 29.7727 50.6476 25.9752C50.6478 23.2318 48.4879 21 45.8332 21H34.8145C32.1598 21 30 23.2318 30 25.975C30 57.419 54.7559 83 85.1855 83C87.8402 83 90 80.7682 90 78.025V66.6708C89.9998 63.9277 87.84 61.6959 85.1855 61.6959Z" fill="#EEEEEE"/>
</g>
</g>
</g>
</svg>
