<svg width="24" height="24" viewBox="0 0 24 24" fill="none" xmlns="http://www.w3.org/2000/svg">
<path d="M22.026 9.72243e-06H1.286C0.94484 0.000274804 0.617743 0.135986 0.3766 0.377317C0.135457 0.618647 -1.02984e-07 0.945849 0 1.28701V22.027C0.000265082 22.3682 0.135976 22.6953 0.377307 22.9364C0.618638 23.1776 0.94584 23.313 1.287 23.313H12.453V14.3H9.425V10.768H12.453V8.16801C12.453 5.15601 14.291 3.51701 16.978 3.51701C17.8849 3.51389 18.7912 3.56029 19.693 3.65601V6.80701H17.84C16.378 6.80701 16.095 7.50201 16.095 8.52101V10.768H19.59L19.135 14.3H16.1V23.315H22.03C22.3712 23.315 22.6984 23.1796 22.9397 22.9384C23.181 22.6973 23.3167 22.3702 23.317 22.029V1.28501C23.3169 1.11579 23.2833 0.948265 23.2183 0.792029C23.1533 0.635793 23.0582 0.493921 22.9382 0.374545C22.8183 0.255169 22.676 0.160637 22.5194 0.0963667C22.3629 0.0320964 22.1952 -0.000648249 22.026 9.72243e-06Z" fill="white"/>
</svg>
