<svg width="119" height="104" viewBox="0 0 119 104" fill="none" xmlns="http://www.w3.org/2000/svg">
<g id="mail">
<g id="Group">
<g id="Group_2">
<path id="Ellipse 1" d="M119 52C119 80.7188 92.3609 104 59.5 104C26.6391 104 0 80.7188 0 52C0 23.2812 26.6391 0 59.5 0C92.3609 0 119 23.2812 119 52Z" fill="#F06422"/>
<g id="Vector">
<path d="M86.761 30.421L87.5616 29.5769H86.3982H33.6205H32.4501L33.2592 30.4226L59.7617 58.123L60.1245 58.5022L60.4857 58.1214L86.761 30.421ZM30.3672 72.0404V73.2941L31.2299 72.3845L49.8542 52.7502L50.182 52.4046L49.8527 52.0604L31.2285 32.5945L30.3672 31.6943V32.9401V72.0404ZM33.2389 74.579L32.4382 75.4231H33.6017H86.3983H87.5618L86.7611 74.579L68.226 55.0387L67.8633 54.6563L67.5005 55.0387L61.1335 61.7511L61.1334 61.7511C60.5772 62.3376 59.6873 62.3394 59.1289 61.7558L58.786 62.0839L59.1289 61.7558L52.5989 54.9307L52.2361 54.5515L51.8749 54.9323L33.2389 74.579ZM88.7701 72.3844L89.6328 73.2939V72.0403V32.9596V31.7059L88.7701 32.6155L70.235 52.1559L69.9086 52.5L70.235 52.8441L88.7701 72.3844ZM32.8008 26.5H87.1992C90.1036 26.5 92.5 29.0058 92.5 32.1154V72.8846C92.5 76.0126 90.0862 78.5 87.1992 78.5H32.8008C29.8964 78.5 27.5 75.9942 27.5 72.8846V32.1154C27.5 28.9957 29.9068 26.5 32.8008 26.5Z" fill="#EEEEEE"/>
<path d="M86.761 30.421L87.5616 29.5769H86.3982H33.6205H32.4501L33.2592 30.4226L59.7617 58.123L60.1245 58.5022L60.4857 58.1214L86.761 30.421ZM30.3672 72.0404V73.2941L31.2299 72.3845L49.8542 52.7502L50.182 52.4046L49.8527 52.0604L31.2285 32.5945L30.3672 31.6943V32.9401V72.0404ZM33.2389 74.579L32.4382 75.4231H33.6017H86.3983H87.5618L86.7611 74.579L68.226 55.0387L67.8633 54.6563L67.5005 55.0387L61.1335 61.7511L61.1334 61.7511C60.5772 62.3376 59.6873 62.3394 59.1289 61.7558L58.786 62.0839L59.1289 61.7558L52.5989 54.9307L52.2361 54.5515L51.8749 54.9323L33.2389 74.579ZM88.7701 72.3844L89.6328 73.2939V72.0403V32.9596V31.7059L88.7701 32.6155L70.235 52.1559L69.9086 52.5L70.235 52.8441L88.7701 72.3844ZM32.8008 26.5H87.1992C90.1036 26.5 92.5 29.0058 92.5 32.1154V72.8846C92.5 76.0126 90.0862 78.5 87.1992 78.5H32.8008C29.8964 78.5 27.5 75.9942 27.5 72.8846V32.1154C27.5 28.9957 29.9068 26.5 32.8008 26.5Z" stroke="white"/>
<path d="M86.761 30.421L87.5616 29.5769H86.3982H33.6205H32.4501L33.2592 30.4226L59.7617 58.123L60.1245 58.5022L60.4857 58.1214L86.761 30.421ZM30.3672 72.0404V73.2941L31.2299 72.3845L49.8542 52.7502L50.182 52.4046L49.8527 52.0604L31.2285 32.5945L30.3672 31.6943V32.9401V72.0404ZM33.2389 74.579L32.4382 75.4231H33.6017H86.3983H87.5618L86.7611 74.579L68.226 55.0387L67.8633 54.6563L67.5005 55.0387L61.1335 61.7511L61.1334 61.7511C60.5772 62.3376 59.6873 62.3394 59.1289 61.7558L58.786 62.0839L59.1289 61.7558L52.5989 54.9307L52.2361 54.5515L51.8749 54.9323L33.2389 74.579ZM88.7701 72.3844L89.6328 73.2939V72.0403V32.9596V31.7059L88.7701 32.6155L70.235 52.1559L69.9086 52.5L70.235 52.8441L88.7701 72.3844ZM32.8008 26.5H87.1992C90.1036 26.5 92.5 29.0058 92.5 32.1154V72.8846C92.5 76.0126 90.0862 78.5 87.1992 78.5H32.8008C29.8964 78.5 27.5 75.9942 27.5 72.8846V32.1154C27.5 28.9957 29.9068 26.5 32.8008 26.5Z" stroke="url(#paint0_linear)"/>
</g>
</g>
</g>
</g>
<defs>
<linearGradient id="paint0_linear" x1="60" y1="26" x2="60" y2="79" gradientUnits="userSpaceOnUse">
<stop stop-color="white"/>
<stop offset="1" stop-color="white" stop-opacity="0"/>
</linearGradient>
</defs>
</svg>
