<svg width="24" height="24" viewBox="0 0 24 24" fill="none" xmlns="http://www.w3.org/2000/svg">
<path d="M21.669 0H3.01899C2.40134 0.0018465 1.80951 0.248026 1.37276 0.684774C0.936015 1.12152 0.689835 1.71335 0.687988 2.331L0.687988 20.981C0.689835 21.5987 0.936015 22.1905 1.37276 22.6272C1.80951 23.064 2.40134 23.3102 3.01899 23.312H21.669C22.2866 23.3102 22.8785 23.064 23.3152 22.6272C23.752 22.1905 23.9981 21.5987 24 20.981V2.331C23.9981 1.71335 23.752 1.12152 23.3152 0.684774C22.8785 0.248026 22.2866 0.0018465 21.669 0V0ZM12.344 6.994C13.266 6.994 14.1674 7.26742 14.9341 7.77969C15.7007 8.29196 16.2983 9.02006 16.6511 9.87193C17.004 10.7238 17.0963 11.6612 16.9164 12.5655C16.7365 13.4699 16.2925 14.3005 15.6405 14.9525C14.9885 15.6045 14.1578 16.0485 13.2535 16.2284C12.3492 16.4083 11.4118 16.316 10.5599 15.9631C9.70805 15.6103 8.97994 15.0127 8.46768 14.2461C7.95541 13.4794 7.68199 12.5781 7.68199 11.656C7.68568 10.4207 8.17804 9.23704 9.05154 8.36355C9.92503 7.49005 11.1087 6.99769 12.344 6.994ZM3.60199 20.981C3.52421 20.9857 3.44633 20.9738 3.37348 20.9461C3.30063 20.9185 3.23448 20.8757 3.17938 20.8206C3.12429 20.7655 3.0815 20.6994 3.05386 20.6265C3.02621 20.5537 3.01432 20.4758 3.01899 20.398V10.491H5.46699C5.37045 10.8717 5.33102 11.2647 5.34999 11.657C5.37199 13.4973 6.1185 15.2548 7.42764 16.5484C8.73678 17.8419 10.503 18.5674 12.3435 18.5674C14.1839 18.5674 15.9502 17.8419 17.2593 16.5484C18.5685 15.2548 19.315 13.4973 19.337 11.657C19.356 11.2647 19.3165 10.8717 19.22 10.491H21.668V20.4C21.6727 20.4778 21.6608 20.5557 21.6331 20.6285C21.6055 20.7014 21.5627 20.7675 21.5076 20.8226C21.4525 20.8777 21.3863 20.9205 21.3135 20.9481C21.2406 20.9758 21.1628 20.9877 21.085 20.983L3.60199 20.981ZM21.669 5.245C21.6737 5.32278 21.6618 5.40066 21.6341 5.47351C21.6065 5.54635 21.5637 5.61251 21.5086 5.6676C21.4535 5.7227 21.3873 5.76548 21.3145 5.79313C21.2416 5.82078 21.1638 5.83266 21.086 5.828H18.755C18.6772 5.83266 18.5993 5.82078 18.5265 5.79313C18.4536 5.76548 18.3875 5.7227 18.3324 5.6676C18.2773 5.61251 18.2345 5.54635 18.2069 5.47351C18.1792 5.40066 18.1673 5.32278 18.172 5.245V2.914C18.1673 2.83622 18.1792 2.75834 18.2069 2.68549C18.2345 2.61265 18.2773 2.54649 18.3324 2.4914C18.3875 2.4363 18.4536 2.39352 18.5265 2.36587C18.5993 2.33822 18.6772 2.32634 18.755 2.331H21.088C21.1658 2.32634 21.2436 2.33822 21.3165 2.36587C21.3893 2.39352 21.4555 2.4363 21.5106 2.4914C21.5657 2.54649 21.6085 2.61265 21.6361 2.68549C21.6638 2.75834 21.6757 2.83622 21.671 2.914L21.669 5.245Z" fill="white"/>
</svg>
