<svg width="24" height="24" viewBox="0 0 24 24" fill="none" xmlns="http://www.w3.org/2000/svg">
<path fill-rule="evenodd" clip-rule="evenodd" d="M19.705 3.50416C17.7351 1.53399 15.1163 0.346911 12.3362 0.163966C9.55619 -0.0189787 6.8044 0.814682 4.5933 2.50971C2.38219 4.20474 0.862474 6.64559 0.317143 9.37776C-0.228187 12.1099 0.238037 14.9472 1.629 17.3612L0 23.3122L6.088 21.7122C7.77157 22.6302 9.65841 23.1115 11.576 23.1122C13.8477 23.1122 16.0685 22.4387 17.9575 21.1769C19.8466 19.9151 21.3192 18.1216 22.1892 16.0231C23.0592 13.9246 23.2875 11.6152 22.8454 9.38694C22.4032 7.15866 21.3104 5.11148 19.705 3.50416ZM11.581 21.1732C9.87163 21.173 8.19373 20.7133 6.723 19.8422L6.37 19.6362L2.757 20.5842L3.721 17.0622L3.494 16.7012C2.36953 14.9085 1.87266 12.793 2.0815 10.6872C2.29034 8.58136 3.19304 6.60465 4.64772 5.06777C6.10239 3.53089 8.02654 2.52099 10.1177 2.19682C12.2089 1.87265 14.3485 2.25258 16.2002 3.27691C18.0519 4.30123 19.5107 5.91186 20.3473 7.85561C21.1839 9.79936 21.3509 11.966 20.8219 14.015C20.293 16.064 19.0981 17.8791 17.4252 19.175C15.7523 20.4709 13.6961 21.1741 11.58 21.1742L11.581 21.1732ZM16.817 14.0242C16.53 13.8802 15.117 13.1862 14.856 13.0902C14.595 12.9942 14.402 12.9472 14.211 13.2342C14.02 13.5212 13.47 14.1682 13.302 14.3592C13.134 14.5502 12.967 14.5752 12.68 14.4312C11.8338 14.0942 11.0527 13.6123 10.372 13.0072C9.74338 12.4272 9.20419 11.7572 8.772 11.0192C8.605 10.7322 8.772 10.5912 8.898 10.4332C9.16121 10.1242 9.40089 9.79595 9.615 9.45116C9.65268 9.37233 9.67021 9.2854 9.66602 9.19813C9.66183 9.11087 9.63605 9.02601 9.591 8.95116C9.523 8.80616 8.95 7.39316 8.71 6.81916C8.477 6.26016 8.241 6.33516 8.064 6.32616C7.887 6.31716 7.705 6.31616 7.514 6.31616C7.36879 6.32012 7.22596 6.35405 7.09449 6.41583C6.96302 6.47761 6.84573 6.5659 6.75 6.67516C6.42629 6.98294 6.17021 7.35475 5.99804 7.76691C5.82588 8.17907 5.74141 8.62256 5.75 9.06916C5.84228 10.1506 6.24782 11.1816 6.917 12.0362C8.14719 13.8808 9.83573 15.3739 11.817 16.3692C12.3513 16.598 12.8974 16.7982 13.453 16.9692C14.0383 17.1471 14.657 17.1862 15.26 17.0832C15.6595 17.0017 16.0378 16.8384 16.3711 16.6037C16.7045 16.369 16.9857 16.0678 17.197 15.7192C17.3846 15.2902 17.4427 14.8157 17.364 14.3542C17.292 14.2342 17.101 14.1632 16.814 14.0192L16.817 14.0242Z" fill="white"/>
</svg>
